<?xml version="1.0" encoding="utf-8"?><svg xmlns="http://www.w3.org/2000/svg" xmlns:xlink="http://www.w3.org/1999/xlink"><symbol viewBox="0 0 44 26" id="arrow-left" xmlns="http://www.w3.org/2000/svg"><path d="M.87 13.222h42.897m-42.898 0L14.275 1M.869 13.222l13.406 12.222"/></symbol><symbol viewBox="0 0 25 16" id="arrow-next" xmlns="http://www.w3.org/2000/svg"><path d="M0 8h22.5m0 0l-6-6m6 6l-6 6"/></symbol><symbol viewBox="0 0 44 26" id="arrow-right" xmlns="http://www.w3.org/2000/svg"><path d="M42.91 13.222H.011m42.897 0L29.504 1m13.405 12.222L29.504 25.444"/></symbol><symbol viewBox="0 0 344.96 344.96" id="check" xmlns="http://www.w3.org/2000/svg"><g data-name="Слой 2"><path d="M321.85 86.24l-40-23.11-23.1-40H212.5L172.48 0l-40 23.11H86.24l-23.11 40-40 23.1v46.21L0 172.48l23.11 40v46.21l40 23.11 23.11 40h46.21l40 23.1 40-23.11h46.21l23.11-40 40-23.11V212.5l23.11-40-23.11-40V86.24zM156.91 243.07a16.79 16.79 0 01-23.34 0l-50.45-50.44a16.19 16.19 0 010-22.89l13.35-13.35a16.19 16.19 0 0122.89 0l25.87 25.87 80.34-80.35a16.19 16.19 0 0122.89 0l13.35 13.35a16.19 16.19 0 010 22.89z" data-name="Capa 1"/></g></symbol><symbol viewBox="0 0 8 14" id="chevron-left" xmlns="http://www.w3.org/2000/svg"><path d="M7 1L2.414 5.586a2 2 0 000 2.828L7 13"/></symbol><symbol viewBox="0 0 8 14" id="chevron-right" xmlns="http://www.w3.org/2000/svg"><path d="M1 13l4.586-4.586a2 2 0 000-2.828L1 1"/></symbol><symbol viewBox="0 0 77 77" id="circle-btn-bg" xmlns="http://www.w3.org/2000/svg"><rect width="77" height="77" rx="38.5"/><mask id="ga" maskUnits="userSpaceOnUse" x="0" y="0" width="77" height="77"><rect y="77" width="77" height="77" rx="38.5" transform="rotate(-90 0 77)"/></mask><g mask="url(#ga)"><path d="M19.824 79.767c.19-1.322.493-2.806.25-4.01-.189-.948-1.02-1.91-2.034-1.264-.048 1.383-.195 2.561-.088 3.688.063.678.446 1.422.83 1.851.205.23 1.01-.051 1.042-.264zm4.313-5.161c.74-.213 1.621-.781 2.043-1.631.62-1.225-.622-1.45-.929-2.233-.093-.245-.313-.363-.715-.799l-2.713 4.207c.862.199 1.627.65 2.308.456m-6.504-5.344c1.464 1.91 1.514-.95 2.48-.952l-1.005-2.16-1.475 3.112zM2.832 79.711c-.774-2.12-.853-5.157-3.15-5.292-.1 0-.228-.245-.285-.42-.545-1.646-1.07-3.3-1.706-5.28-1.363-.091-2.668 2.848-4.378 1.388-1.303 1.981-.521 4.283-.546 5.877.968 1.526 1.678 2.645 2.562 4.043.52-.012 1.509-.58 1.93 1.224.057.245.508.49.738.414 1.273-.36 1.88.735 2.362 2.498-.096-2.87 2.064-2.49 2.477-4.437m3.397-2.14c-.642-.688-1.85-.37-2.145.75-.263 1.005-.5 2.223-.357 3.222.214 1.513-1.16 1.361-1.005 2.693.136 1.225.12 2.49.183 4.126.998-1.959 2.878-2.74 2.18-5.737.574-.779 1.009-1.283 1.371-1.883.546-.896.41-2.503-.226-3.184m9.52 4.531l-.137-3.446c-.78-.198-1.362-.345-1.907-.49-.31-2.132.994-2.071 1.552-3.007l-.375-1.85c-1.44.222-2.882.572-3.98-1.257-.104-.17-.333-.172-.524-.223l.494-2.598 2.662 3.502 1.67-3.894c-.85-1.636-1.555-3.183-3.053-2.353-.36-1.859-.854-3.446-2.476-3.228-.447.06-.913-.2-1.37-.323l.227-2.427c.605.265 1.034.45 1.562.681l.166-1.93c1.354-1.14 2.293.757 3.502.6 1.153-.149 2.335.211 3.585.356-.352-1.142-.655-1.994-.883-2.89-.443-1.739-.705-1.88-1.782-1.073-.597.446-1.243.96-1.883 1.012-1.625.132-3.27.08-4.816-.86-.805 1.376-.52 2.939-.158 4.582-1.37.747-2.29 2.468-3.874 2.353-.762-.056-1.03 1.002-1.154 2.324-.327 3.45 1.012 5.755 2.128 8.473 1.145-.72 2.253-1.056 3.134.639L7.792 77c1.515-2.74 2.217-.602 3.17.025-.281 1.623-.68 3.068.099 4.52.93-.507 1.808-.98 2.616-1.427l2.071 1.976m57.748-17.859c-.103-.475-.136-1.03-.33-1.423-.257-.524-.645-1.293-.955-1.268-.339.027-.826.754-.934 1.315-.23 1.182-.659 3.034-.296 3.585 1.443 2.204-.136 2.632-.891 3.658 1.377 2.13-.721 3.563-.326 5.762l1.412 1.266-.545 1.443c-.747-.365-.754-2.427-1.612-1.631-2.013 3.788.034 6.494.725 9.283.746.282 1.402.705 2.064.735.988.046 2.08.465 2.883-.887.64-1.07 1.378-2.05 1.853-3.274.39-.98.721-2.334.578-3.37-.088-.646-1.108-1.01-1.759-1.54-.582-.773-1.023-1.64-1.61-2.06-.608-.435-.892-.934-.754-1.858a1.76 1.76 0 01.19-.508.873.873 0 01.294-.314c.58-.3.806.244 1.045.994.399 1.254 1.169 1.753 2.125 1.978-.467-4.55-.448-4.603 2.577-7.346l.192-2.525-2.064-2.904c-.585.686-2.901 1.202-3.862.884m-27.638 9.705c.681.59 1.866.093 2.084-1.068.194-1.038.347-2.285.136-3.26-.315-1.469 1.063-1.525.817-2.837-.223-1.198-.286-2.45-.462-4.08-.858 2.103-2.677 3.156-1.78 6.036-.517.86-.915 1.425-1.236 2.077-.481.98-.236 2.551.44 3.132m-13.665-.14c-.1 1.347-.3 2.865.02 4.028.253.916 1.145 1.749 2.11.955-.045-1.383.02-2.578-.16-3.673-.111-.666-.546-1.35-.954-1.714-.22-.199-1 .203-1.017.419m6.697 22.607c.563-.534 1.172-1.144 1.804-1.29 1.608-.373 3.24-.569 4.849.136.708-1.491.317-3.002-.152-4.581 1.314-.95 2.11-2.8 3.694-2.922.762-.059.954-1.15.992-2.485.092-3.482-1.395-5.576-2.69-8.113-1.09.889-2.169 1.388-3.166-.166l.128-2.256c-1.322 2.953-2.164.933-3.156.45.172-1.657.466-3.153-.402-4.483l-2.507 1.81-2.194-1.656.357 3.409 1.935.198c.452 2.077-.849 2.204-1.34 3.225l.498 1.785c1.417-.438 2.827-1.001 4.044.654.113.155.34.123.536.145l-.317 2.66c-1.106-1.183-1.907-2.038-2.884-3.089l-1.398 4.122c.954 1.5 1.762 2.938 3.195 1.883.484 1.797 1.09 3.3 2.68 2.843.44-.125.922.063 1.386.117l-.062 2.449c-.62-.174-1.06-.294-1.599-.446l-.035 1.96c-1.27 1.336-2.333-.412-3.525-.074-1.137.32-2.339.14-3.59.181.427 1.083.787 1.886 1.074 2.743.558 1.665.826 1.768 1.845.803"/><path d="M42.11 71.954c-.085 1.469.036 2.375 1.312 2.392-.156-1.379-.473-2.081-1.313-2.392zm24.749-6.909c-.273-.257-.582-.7-.855-.67-.964.105-1.323-.858-1.71-1.852-.174-.44-.388-.845-.583-1.266.1 2.902-1.499 3.688-2.536 4.898.34 2.972.34 2.972 3.624 5.387.215 1.305-.168 3.041 1.038 3.384.435.123 1.064-.34 1.432-.828 1.097-1.444.273-2.975-.048-4.471 1.516-2.204 1.898-2.51-.362-4.601M61.66 76.075c.2-.133.353-.431.524-.666-.153-.157-.3-.422-.458-.436-.158-.015-.308.232-.522.416.196.304.395.735.456.686zm-12.562-4.763c.913 1.996 1.197 5.005 3.49 4.794.1 0 .245.214.315.378.648 1.555 1.285 3.122 2.053 4.995 1.363-.113 2.461-3.23 4.261-2.035 1.163-2.165.23-4.34.15-5.919l-2.822-3.638c-.515.09-1.46.803-2.002-.928-.073-.245-.545-.4-.761-.302-1.242.549-1.92-.44-2.518-2.133.288 2.843-1.886 2.787-2.166 4.788zM11.08 76.45c.591 3.45.591 3.45 1.886 2.596-1.277-.113-.392-2.777-1.886-2.596zm2.496-4.848c.19-1.323.493-2.806.25-4.011-.189-.948-1.02-1.91-2.034-1.264-.047 1.384-.195 2.561-.088 3.688.064.678.447 1.423.83 1.851.205.23 1.01-.051 1.042-.264zm4.313-5.162c.74-.213 1.621-.781 2.044-1.631.62-1.224-.623-1.45-.93-2.233-.092-.245-.313-.363-.715-.799l-2.713 4.207c.863.199 1.627.65 2.308.456m-6.503-5.344c1.463 1.91 1.513-.95 2.48-.952l-1.006-2.16-1.475 3.112zM-.015 69.42c-.642-.688-1.849-.37-2.145.75-.263 1.006-.5 2.223-.357 3.222.214 1.513-1.16 1.361-1.005 2.694.136 1.224.12 2.49.184 4.126.997-1.96 2.877-2.74 2.18-5.738.573-.778 1.008-1.283 1.37-1.883.546-.896.41-2.502-.226-3.183m9.52 4.53l-.136-3.446c-.781-.198-1.363-.345-1.908-.49-.31-2.132.995-2.071 1.552-3.006l-.375-1.852c-1.44.223-2.882.573-3.98-1.256-.104-.169-.333-.171-.523-.223l.493-2.598 2.663 3.502 1.669-3.894c-.85-1.636-1.555-3.183-3.053-2.353-.36-1.859-.854-3.445-2.475-3.228-.447.06-.913-.2-1.371-.323l.227-2.427c.605.265 1.035.451 1.562.681l.166-1.93c1.355-1.14 2.293.757 3.502.6 1.153-.149 2.336.211 3.585.356-.351-1.141-.655-1.994-.883-2.89-.443-1.739-.704-1.88-1.782-1.072-.597.445-1.243.96-1.883 1.01-1.625.133-3.27.082-4.816-.859-.805 1.377-.519 2.939-.158 4.582-1.37.747-2.29 2.468-3.874 2.353-.762-.056-1.03 1.002-1.154 2.324-.327 3.45 1.012 5.755 2.128 8.473 1.145-.72 2.253-1.055 3.135.64l-.273 2.223c1.515-2.74 2.217-.603 3.17.024-.281 1.624-.68 3.068.099 4.52.93-.506 1.808-.979 2.616-1.427L9.5 73.928"/><path d="M2.438 69.376c.061 1.395.33 2.14 1.144 2.576.183-1.44.123-2.37-1.144-2.576zm2.472 9.472c.237-.816.804-1.81.665-2.48-.296-1.433-1.262-1.034-2.36-1.088.707 1.283.124 3.132 1.695 3.568zM67.248 56.07c-.103-.476-.136-1.032-.33-1.423-.257-.525-.645-1.294-.955-1.269-.339.027-.825.754-.934 1.315-.23 1.183-.658 3.034-.296 3.585 1.443 2.204-.136 2.632-.891 3.659 1.377 2.13-.721 3.563-.326 5.761l1.412 1.267-.545 1.442c-.747-.365-.754-2.427-1.612-1.631-2.013 3.788.034 6.494.725 9.283.746.282 1.402.706 2.064.735.988.046 2.08.465 2.883-.887.64-1.07 1.378-2.05 1.853-3.274.39-.98.721-2.333.578-3.37-.088-.646-1.108-1.01-1.759-1.54-.582-.773-1.023-1.64-1.61-2.059-.608-.436-.892-.935-.754-1.859.042-.192.107-.365.19-.508a.872.872 0 01.294-.314c.58-.299.806.245 1.045.994.4 1.254 1.169 1.753 2.126 1.979-.468-4.55-.449-4.604 2.576-7.347l.192-2.524-2.064-2.905c-.585.686-2.901 1.203-3.862.884M22.002 71.413c-.722.32-1.56 1.019-1.928 1.927-.534 1.32.717 1.35 1.075 2.084.108.22.336.314.766.688l2.415-4.594c-.872-.068-1.664-.401-2.328-.105zm17.608-5.644c.682.59 1.866.093 2.084-1.068.195-1.038.347-2.284.136-3.259-.315-1.47 1.063-1.526.818-2.838-.224-1.198-.287-2.449-.462-4.08-.859 2.104-2.678 3.157-1.78 6.036-.518.86-.916 1.426-1.237 2.077-.481.98-.236 2.552.44 3.132m-13.664-.139c-.1 1.346-.302 2.864.02 4.028.252.915 1.145 1.748 2.11.954-.046-1.383.02-2.578-.162-3.673-.11-.666-.544-1.349-.953-1.714-.22-.198-1 .204-1.017.419M32.64 88.25c.563-.533 1.172-1.143 1.804-1.29 1.608-.372 3.24-.568 4.849.138.708-1.492.317-3.003-.151-4.582 1.313-.95 2.109-2.8 3.694-2.922.761-.058.953-1.15.992-2.485.09-3.482-1.396-5.576-2.69-8.113-1.09.889-2.17 1.389-3.167-.166l.128-2.256c-1.322 2.954-2.164.933-3.156.45.172-1.657.466-3.153-.402-4.483l-2.507 1.81-2.194-1.656.357 3.41 1.935.197c.453 2.077-.849 2.204-1.34 3.225l.498 1.786c1.417-.439 2.828-1.002 4.044.653.113.155.341.123.536.145l-.316 2.66c-1.107-1.183-1.908-2.038-2.885-3.089l-1.398 4.122c.954 1.5 1.762 2.938 3.195 1.883.484 1.797 1.09 3.3 2.68 2.843.44-.125.922.064 1.386.117l-.062 2.45c-.62-.175-1.059-.295-1.599-.447l-.035 1.96c-1.27 1.337-2.333-.412-3.525-.074-1.137.32-2.338.14-3.59.181.427 1.083.787 1.886 1.074 2.743.558 1.665.826 1.768 1.845.803"/><path d="M35.862 63.788c-.085 1.47.036 2.375 1.312 2.392-.155-1.378-.473-2.081-1.312-2.392zm-9.427 13.294l1.147 2 1.257-3.317c-1.585-1.683-1.443 1.172-2.404 1.317zm50.18-8.942c-.241-.383-.454-.834-.741-1.105-.082-.076-.384.367-.75.734.385.431.605.83.871.916.173.054.409-.35.62-.55m1.149 3.842c-.463-1.058-.914-2.45-1.883-1.734l-1.303 6.105c1.098-.263 2.213 1.469 3.146-.314.654-1.246.613-2.74.04-4.045m-4.888-6.215c0-.29-.264-.583-.409-.872l-.733 1.112c.352.328.62.734.74.653.196-.13.409-.578.409-.893m-1.731 8.781c.372.335.721.734.765.673.233-.386.445-.813.63-1.275-.221-.152-.487-.49-.655-.41-.246.123-.424.554-.74 1.012zM60.611 56.88c-.272-.257-.582-.7-.854-.671-.965.105-1.323-.857-1.712-1.852-.173-.44-.387-.844-.582-1.266.1 2.902-1.498 3.688-2.535 4.898.339 2.973.339 2.973 3.623 5.387.215 1.306-.168 3.042 1.038 3.384.435.123 1.064-.34 1.432-.827 1.097-1.445.273-2.976-.047-4.472 1.515-2.204 1.898-2.51-.363-4.6m-5.198 11.048c.2-.132.353-.431.523-.666-.153-.157-.3-.421-.458-.436-.158-.015-.308.233-.522.416.196.304.395.735.457.686zm-4.121 12.898c1.499-.177 2.843-.132 4.127-.909.796-.49.901-1.413.655-2.537-.337-1.537-1.032-2.57-2.036-3.36-1.465 1.654-2.533 3.58-2.746 6.806zM42.85 63.146c.913 1.996 1.197 5.005 3.49 4.795.101 0 .245.213.315.377.649 1.555 1.285 3.122 2.053 4.995 1.363-.112 2.461-3.23 4.261-2.035 1.163-2.164.23-4.339.15-5.918l-2.822-3.64c-.515.091-1.46.804-2.001-.927-.074-.245-.545-.4-.762-.301-1.241.548-1.92-.441-2.518-2.133.289 2.843-1.886 2.786-2.165 4.787zM51.264 61.306a.01.01 0 01.01 0h-.01zm-16.66-11.529h-.011l.014-.015"/><path d="M57.397 60.862c-1.111.02-2.17.14-2.469 2.175-.75-.353-1.448-.683-2.125-1.004l-.36.583c.409.614.674 1.386.518 2.578-1.859-.636-1.863-.639-1.689-3.881.246.245.496.49.732.735.067-.103.136-.204.203-.306-.315-.147-.625-.294-.935-.441v-.015c.03-.088.08-.174.084-.264a.734.734 0 00-.06-.258c-.593.245-1.592.302-1.701.796-.496 2.224-1.71 1.96-2.793 2.204-.623 1.34-1.416 2.065-2.577 1.78-.861-.213-1.74-.262-2.862-.418-.075-.404-.393-1.195-.309-1.876.169-1.357.559-2.654.857-3.977-.297.16-.786.568-.861.44-1.425-2.428-3.298-.917-4.944-1.65-.603 2.716.128 6.49-2.849 6.338-1.771-1.452-1.717-3.617-1.165-5.755 1.765-1.663 3.386-3.183 5.01-4.723l-.162-.451c-1.001.245-2.001.49-3.331.828l.988-4.523c1.072-.39 2.144-.781 3.383-1.225l-.294 2.239 4.852 4.08c.241-1.521.769-2.672 2.044-2.694.759 1.06 1.155 2.243.8 3.793-.473.108-.923.213-1.438.333l.668 1.714c.545-.382 1.07-1.007 1.635-1.105 2.067-.357 4.148-.536 6.59-.827l-1.2-3.38c.689-1.618 1.821-1.687 3.064-1.959l.008 3.551c.484.265.967.53 1.444.789.994-2.258.32-3.786-.598-5.204-1.048-1.618-1.255-2.938-.545-4.268.224-.389.516-.625.826-.669 1.09-.027 2.525 3.108 1.988 4.516-.327.857-.378 1.47-.335 2.449.066 1.555 0 3.247-1.142 4.351-.498.49-.712 1.611-.99 2.297.878 2.08 1.967.935 2.895.864.344 1.534-.32 1.44-.853 1.45M30.475 41.177c.581-.145.911-.226 1.226-.301-.165.614-.38 1.109-1.226.3zm1.252-.407l.03.09-.06.016.03-.106z"/><path d="M34.109 47.769c-.732.377-1.123 2.382-2.225 1.163-.67-.735-1.354-1.47-2.157-2.322.806-.6 1.392-.832 1.771-1.378.379-.546.595-1.428.954-2.351l-.703-2.013a.091.091 0 01.024 0c1.09-1.085 1.303.593 1.61 1.335.475 1.143.872 1.351 1.621.604.514-.509 1.126-.803 1.872-1.315-.124 2.26-2.293 3.137-1.04 5.339l1.171.299-2.412 2.659c.273-.872.164-1.54-.494-2.015m-5.991-1.041l.571-1.332c.188.245.375.49.563.717l-.798 1.048-.337-.433zm-6.604 28.971l-.681 2.662c-.457-1.05-.483-1.876.68-2.662zm1.892 8.231c-.385-.431-.698-.83-1.042-1.156-1.473-1.403-1.478-1.646-.76-3.999.545-1.77 1.462-3.406.92-6 1.542 2.32 1.806-1.959 3.018-.658 0 .198.05.433-.007.563-.889 2.055-.886 2.055.567 3.02.205.146.383.395.512.717.395 1.011.752 2.052 1.156 3.169l-.545 2.65c-1.268.562-2.542 1.13-3.816 1.694m30.629-42.1c-1.103.11-2.09-.906-2.087-2.147 0-1.685 1.343-4.014 2.308-4.019.965-.005 1.435 1.034 1.474 3.35.03 1.66-.6 2.706-1.695 2.816z"/><path d="M38.713 46.054L36.67 44.41c1.203-.57 1.915-.757 2.044 1.645zm10.131.321c.117-.37.421-.607.649-.898.144.274.44.605.409.805-.073.395-.327.715-.619 1.286-.222-.58-.495-1.004-.435-1.193m-6.32 1.394l.037-.49c.624.098 1.248.195 1.873.291l-.041.54-1.869-.341zm10.911 1.303c-.061.203-.305.283-.613.55l-.322-2.09c.99-.091 1.292.369.935 1.54zm12.313.551a233.36 233.36 0 011.977-1.715c-.378 2.344-.378 2.344-1.977 1.715zM43.685 69.36a.866.866 0 01.202-.288.42.42 0 01.25-.114c.123 0 .247.299.502.641a3.827 3.827 0 01-.792.422c-.034 0-.212-.505-.162-.662zm-6.121.147c.05-1.749-.838-2.496-1.625-3.598l4.208.573c-.221 2.111-.926 3.252-2.583 3.025zm-.914 1.545l-.075.463c-.345-.062-.69-.125-1.036-.186l.137-.796.975.519M9.69 70.128c-.592.52-.982 1.815-1.87.909.595-1.156.595-1.156 1.87-.909zm22.053.02c.078-1.636.514-2.145 1.66-1.317-.389 1.398-.758 2.181-1.66 1.317zm-1.32-2.458a4.965 4.965 0 01-.386.78l-.19-1.224.375-.039c.073.162.23.382.2.475M16.609 65.85c.205-.399.913-.734 1.13-.526.926.906.42 1.807-.234 2.846-.696-.662-1.58-.992-.896-2.32zm-3.649 5.856c-.16-.033-.31-.146-.434-.326-.049-.096.08-.387.319-1.4.18.773.272 1.023.285 1.282 0 .15-.137.456-.17.444z"/><path d="M5.208 71.87c-.08.333-.183.964-.116 1.018 1.37 1.09.73 3.198 1.466 5.089-.545-.414-.771-.49-.894-.696-1.547-2.642-2.503-5.938-4.3-8.326-.682-.915-.507-2.309.226-3.271 1.007-1.322 2.052-2.584 3.066-3.852 1.578 2.152 4.007.505 5.35 3.5-1.362 1.273-2.693 2.693-4.13 3.775-.955.718-.445 1.861-.668 2.77m-6.271 8.869c-1.009-.115-1.826-1.753-1.292-3.315.352-1.029-.43-1.328 0-2.376 1.037-.137 2.104-.276 3.159-.416.09 1.251.223 2.263.219 3.274-.008 1.998-.77 2.983-2.086 2.833zm43.3-4.432c.088.22.252.446.248.661 0 .245-.164.71-.25.708-.456-.015-1.04.078-1.334-.296-.293-.375-.353-1.276-.565-2.168 1.146-.13.907 2.19 1.908 1.095m-6.955 2.133c-1.073.02-2.01.358-2.63 1.575.31.435.589 1.425 1.14 3.384l-2.323 1.26-.095-2.565c-.274.094-.533.292-.76.58l-.118-.762c.273-.475.545-.962.818-1.444l-.018-.502c.136-.054.266-.1.382-.14.346-.612.711-1.2 1.078-1.783-1.363.49-1.42.382-1.847-.935.61.213 1.226.428 1.992.698.093-.145.175-.301.273-.441.666-.98 1.362-.607 2.112 1.075m10.37-5.456c-.6.49-1.198.98-2.111 1.739l-.026-3.184c.907.287 1.518.49 2.128.671l.008.774z"/></g></symbol><symbol viewBox="0 0 24 24" id="fb" xmlns="http://www.w3.org/2000/svg"><path d="M13.397 20.997v-8.196h2.765l.411-3.209h-3.176V7.548c0-.926.258-1.56 1.587-1.56h1.684v-2.86A22.108 22.108 0 0014.201 3c-2.444 0-4.122 1.492-4.122 4.231v2.355H7.332v3.21h2.753v8.201h3.312z"/></symbol><symbol viewBox="0 0 24 24" id="instagram" xmlns="http://www.w3.org/2000/svg"><path d="M11.999 7.377a4.624 4.624 0 100 9.248 4.624 4.624 0 000-9.248zm0 7.627a3.004 3.004 0 110-6.008 3.004 3.004 0 010 6.008zm4.807-6.719a1.078 1.078 0 100-2.156 1.078 1.078 0 000 2.156z"/><path d="M20.533 6.11A4.605 4.605 0 0017.9 3.48a6.607 6.607 0 00-2.186-.42c-.963-.042-1.268-.054-3.71-.054s-2.755 0-3.71.054a6.554 6.554 0 00-2.184.42 4.6 4.6 0 00-2.633 2.63 6.585 6.585 0 00-.419 2.186c-.043.962-.056 1.267-.056 3.71 0 2.442 0 2.753.056 3.71.015.748.156 1.486.419 2.187a4.61 4.61 0 002.634 2.632 6.583 6.583 0 002.185.45c.963.042 1.268.055 3.71.055s2.755 0 3.71-.055a6.616 6.616 0 002.186-.42 4.613 4.613 0 002.633-2.632c.263-.7.404-1.438.419-2.186.043-.962.056-1.267.056-3.71s0-2.753-.056-3.71a6.583 6.583 0 00-.421-2.217zm-1.218 9.533a5.046 5.046 0 01-.311 1.688 2.987 2.987 0 01-1.712 1.71c-.535.2-1.1.305-1.67.312-.95.044-1.218.055-3.654.055-2.438 0-2.687 0-3.655-.055a4.961 4.961 0 01-1.67-.311 2.984 2.984 0 01-1.718-1.711 5.08 5.08 0 01-.311-1.67c-.043-.95-.053-1.217-.053-3.653 0-2.437 0-2.686.053-3.655a5.038 5.038 0 01.311-1.687c.305-.79.93-1.41 1.719-1.712a5.01 5.01 0 011.669-.311c.95-.043 1.218-.055 3.655-.055s2.687 0 3.654.055a4.96 4.96 0 011.67.31 2.99 2.99 0 011.712 1.713 5.06 5.06 0 01.311 1.669c.043.95.054 1.218.054 3.655 0 2.436 0 2.698-.043 3.654h-.011v-.001z"/></symbol><symbol viewBox="0 0 18 20" id="user" xmlns="http://www.w3.org/2000/svg"><path d="M.879 15.897a8.765 8.765 0 011.889-2.8 8.804 8.804 0 012.8-1.89c.01-.005.02-.007.029-.012A5.811 5.811 0 019 .672a5.811 5.811 0 013.403 10.526l.028.011a8.727 8.727 0 012.801 1.89 8.802 8.802 0 012.58 6.037.185.185 0 01-.053.136.187.187 0 01-.134.056h-1.406a.187.187 0 01-.188-.183 6.988 6.988 0 00-2.058-4.788A6.985 6.985 0 009 12.297c-1.88 0-3.645.731-4.973 2.06a6.988 6.988 0 00-2.058 4.788.186.186 0 01-.188.183H.375a.188.188 0 01-.188-.192c.024-1.12.256-2.21.692-3.24zm8.12-5.381a4 4 0 002.85-1.182 4.005 4.005 0 001.182-2.85 4.01 4.01 0 00-1.181-2.85A4.005 4.005 0 009 2.454a4.007 4.007 0 00-2.85 1.18 4.005 4.005 0 00-1.181 2.85 4.01 4.01 0 001.18 2.85A4.005 4.005 0 009 10.516z"/></symbol><symbol viewBox="0 0 24 24" id="vk" xmlns="http://www.w3.org/2000/svg"><path d="M21.579 6.855c.14-.465 0-.806-.662-.806h-2.193c-.558 0-.813.295-.953.619 0 0-1.115 2.719-2.695 4.482-.51.513-.743.675-1.021.675-.139 0-.341-.162-.341-.627V6.855c0-.558-.161-.806-.626-.806H9.642c-.348 0-.558.258-.558.504 0 .528.79.65.871 2.138v3.228c0 .707-.127.836-.407.836-.743 0-2.551-2.73-3.624-5.853-.209-.607-.42-.852-.98-.852H2.752c-.627 0-.752.295-.752.619 0 .582.743 3.462 3.461 7.27 1.812 2.602 4.363 4.012 6.687 4.012 1.393 0 1.565-.313 1.565-.853v-1.966c0-.626.133-.752.574-.752.324 0 .882.164 2.183 1.417 1.486 1.486 1.732 2.153 2.567 2.153h2.192c.626 0 .939-.313.759-.931-.197-.615-.907-1.51-1.849-2.57-.512-.603-1.277-1.253-1.51-1.578-.325-.42-.231-.604 0-.976.001 0 2.672-3.761 2.95-5.04z"/></symbol></svg>