<svg width="77" height="77" viewBox="0 0 77 77" fill="none" xmlns="http://www.w3.org/2000/svg">
<rect width="77" height="77" rx="38.5" fill="#EA5837"/>
<g style="mix-blend-mode:color-dodge">
<mask id="mask0" mask-type="alpha" maskUnits="userSpaceOnUse" x="0" y="0" width="77" height="77">
<rect y="77" width="77" height="77" rx="38.5" transform="rotate(-90 0 77)" fill="#C4C4C4"/>
</mask>
<g mask="url(#mask0)">
<path d="M19.8238 79.7675C20.0132 78.4452 20.317 76.9612 20.0745 75.7565C19.8851 74.8088 19.0539 73.8464 18.0401 74.4929C17.9924 75.8764 17.8452 77.0543 17.9515 78.1807C18.0155 78.859 18.3985 79.6035 18.7827 80.032C18.9871 80.2622 19.7924 79.9806 19.8238 79.7675Z" fill="#EA5837"/>
<path d="M24.1365 74.6057C24.8777 74.3927 25.758 73.8245 26.1804 72.9748C26.8004 71.7504 25.5577 71.5251 25.2511 70.7415C25.1584 70.4967 24.9377 70.3791 24.5357 69.9432L21.8227 74.1502C22.6853 74.3486 23.4497 74.7992 24.131 74.6057" fill="#EA5837"/>
<path d="M17.6272 69.2623C19.0907 71.1723 19.1411 68.3122 20.1072 68.3097L19.1016 66.1499L17.6272 69.2623Z" fill="#EA5837"/>
<path d="M2.83181 79.7112C2.05783 77.5905 1.97882 74.554 -0.317202 74.4194C-0.418036 74.4194 -0.546136 74.1745 -0.603367 73.9982C-1.14842 72.3526 -1.67303 70.6997 -2.30938 68.7186C-3.672 68.628 -4.97738 71.5665 -6.68748 70.1071C-7.99014 72.0881 -7.208 74.39 -7.23253 75.9841C-6.26506 77.5097 -5.55513 78.6288 -4.67078 80.0271C-4.15162 80.0148 -3.16237 79.4467 -2.74132 81.2514C-2.68409 81.4963 -2.23307 81.7412 -2.00279 81.6653C-0.730093 81.3053 -0.122352 82.3999 0.358655 84.163C0.263271 81.2931 2.42302 81.6726 2.8359 79.7259" fill="#EA5837"/>
<path d="M6.23292 77.5858C5.59113 76.8977 4.38384 77.216 4.08815 78.3351C3.82517 79.3415 3.58809 80.5586 3.73116 81.5577C3.94509 83.071 2.57019 82.9192 2.72553 84.2513C2.86179 85.4757 2.84545 86.7417 2.90949 88.3775C3.90694 86.4185 5.78736 85.6373 5.08969 82.64C5.66336 81.8613 6.09805 81.3569 6.4605 80.7569C7.00555 79.8607 6.86927 78.2543 6.23429 77.5735" fill="#EA5837"/>
<path d="M15.7536 82.1036L15.6173 78.6582C14.8366 78.4598 14.2547 78.3129 13.7097 78.1684C13.4004 76.0356 14.7044 76.0968 15.2617 75.1613L14.887 73.3101C13.4467 73.5329 12.005 73.8831 10.9067 72.0538C10.8032 71.8849 10.5743 71.8824 10.3835 71.831L10.8768 69.2329L13.5393 72.7346L15.2086 68.841C14.3596 67.2053 13.6538 65.6576 12.1563 66.4878C11.7952 64.6292 11.3019 63.0424 9.68038 63.2603C9.23344 63.3191 8.76745 63.0595 8.30961 62.9371L8.53716 60.5103C9.14216 60.7748 9.57138 60.9609 10.0987 61.1911L10.265 59.2614C11.6194 58.1203 12.5582 60.0181 13.7669 59.8614C14.9197 59.712 16.1024 60.072 17.352 60.2165C17.0004 59.0753 16.6965 58.2232 16.469 57.3269C16.0261 55.5883 15.7645 55.4463 14.6867 56.2543C14.0898 56.7 13.444 57.2143 12.8035 57.2657C11.1793 57.3979 9.53323 57.3465 7.98801 56.4062C7.1827 57.7824 7.46887 59.3447 7.82996 60.9878C6.45916 61.7347 5.54073 63.4562 3.95599 63.3411C3.19429 63.2848 2.92585 64.3427 2.80186 65.665C2.47483 69.1153 3.8143 71.4196 4.93029 74.1378C6.0749 73.4178 7.18271 73.0823 8.06433 74.7769L7.7918 77.0004C9.30704 74.2602 10.0088 76.398 10.9626 77.0249C10.6806 78.6484 10.2813 80.0932 11.0607 81.5453C11.9914 81.0384 12.8689 80.5658 13.677 80.1177L15.7482 82.0938" fill="#EA5837"/>
<path d="M73.4962 64.235C73.3927 63.7599 73.36 63.2041 73.1651 62.8122C72.9089 62.2882 72.5206 61.5193 72.2113 61.5438C71.872 61.5707 71.3855 62.298 71.2765 62.8588C71.0462 64.0415 70.6184 65.8928 70.9808 66.4438C72.4238 68.6477 70.8446 69.0762 70.0897 70.1023C71.4673 72.2327 69.3688 73.6652 69.764 75.8642L71.1757 77.1302L70.6306 78.5726C69.8839 78.2077 69.8771 76.1458 69.0186 76.9417C67.006 80.7299 69.0527 83.4358 69.7436 86.225C70.4903 86.5066 71.1457 86.9302 71.8079 86.9596C72.7959 87.0062 73.8873 87.4249 74.6913 86.0732C75.3317 85.0031 76.0688 84.0235 76.5444 82.7992C76.9341 81.8196 77.2653 80.4655 77.1222 79.4296C77.0336 78.7832 76.0144 78.4183 75.363 77.8894C74.7812 77.1155 74.3397 76.2487 73.7537 75.8299C73.1447 75.3941 72.8613 74.8945 72.9989 73.9713C73.041 73.7788 73.1062 73.6053 73.1898 73.4631C73.2734 73.321 73.3733 73.2135 73.4826 73.1485C74.0631 72.8498 74.2893 73.3934 74.5277 74.1427C74.927 75.3965 75.6969 75.8961 76.6534 76.1213C76.186 71.5715 76.2051 71.5176 79.2302 68.775L79.4223 66.2503L77.3579 63.3461C76.7734 64.0317 74.4569 64.5484 73.4962 64.2301" fill="#EA5837"/>
<path d="M45.8581 73.9347C46.5394 74.5249 47.7235 74.0278 47.9415 72.8671C48.1364 71.8288 48.289 70.5823 48.0778 69.6077C47.763 68.1385 49.1406 68.0821 48.8954 66.7696C48.6719 65.5721 48.6092 64.3208 48.4334 62.6899C47.575 64.7934 45.7559 65.8464 46.6538 68.7262C46.136 69.5857 45.7382 70.1514 45.4166 70.8027C44.9356 71.7822 45.1808 73.3544 45.8567 73.9347" fill="#EA5837"/>
<path d="M32.1923 73.7949C32.0929 75.1418 31.8912 76.66 32.2128 77.8232C32.4649 78.739 33.3574 79.5716 34.3221 78.7782C34.2772 77.3946 34.3426 76.1996 34.1614 75.105C34.051 74.439 33.6163 73.7557 33.2075 73.3909C32.9881 73.1925 32.2073 73.5941 32.191 73.8096" fill="#EA5837"/>
<path d="M38.8882 96.4167C39.451 95.8829 40.0601 95.2731 40.6924 95.1262C42.3003 94.754 43.9327 94.5581 45.5406 95.2634C46.2492 93.772 45.8581 92.2612 45.3893 90.6817C46.7029 89.7316 47.4987 87.8827 49.0834 87.7603C49.8451 87.7015 50.0372 86.6094 50.0754 85.2748C50.1667 81.7926 48.6801 79.6989 47.3856 77.162C46.2955 78.0509 45.2163 78.5505 44.2188 76.9955L44.3469 74.7402C43.0252 77.6934 42.1831 75.6731 41.1911 75.1907C41.3628 73.5329 41.6571 72.0367 40.7891 70.707L38.2819 72.5167L36.088 70.8613L36.4451 74.27C37.2354 74.3508 37.82 74.4096 38.38 74.4683C38.8324 76.5449 37.5311 76.6722 37.0392 77.6934L37.5379 79.4785C38.955 79.0402 40.3653 78.477 41.5822 80.1324C41.6953 80.2866 41.9228 80.2548 42.1177 80.2768L41.8015 82.9362C40.6951 81.7535 39.8939 80.8988 38.9169 79.8483L37.5188 83.9696C38.4726 85.4707 39.2807 86.9081 40.7142 85.8527C41.1979 87.6501 41.8043 89.1537 43.3945 88.6957C43.8346 88.5708 44.3156 88.7594 44.7802 88.8133L44.7176 91.262C44.0976 91.0882 43.6588 90.9682 43.1192 90.8164L43.0838 92.7754C41.8138 94.1124 40.7509 92.364 39.5586 92.7019C38.4222 93.0227 37.2204 92.8415 35.9695 92.8831C36.396 93.9655 36.7557 94.7687 37.0432 95.6258C37.6006 97.2909 37.869 97.3938 38.8882 96.429" fill="#EA5837"/>
<path d="M42.1095 71.9536C42.025 73.4229 42.1463 74.3289 43.4217 74.3461C43.2664 72.9674 42.9489 72.2646 42.1095 71.9536Z" fill="#EA5837"/>
<path d="M66.8589 65.0453C66.5864 64.7882 66.277 64.345 66.0045 64.3744C65.0398 64.4797 64.6814 63.5173 64.2931 62.5231C64.12 62.0823 63.9061 61.6783 63.7112 61.2571C63.8107 64.1589 62.2123 64.9449 61.1754 66.1546C61.5147 69.1274 61.5147 69.1274 64.7986 71.5419C65.0139 72.8471 64.631 74.5833 65.8369 74.9261C66.2716 75.0486 66.9011 74.5858 67.269 74.0985C68.366 72.6537 67.5416 71.1232 67.2213 69.627C68.7366 67.4231 69.1195 67.117 66.8589 65.0257" fill="#EA5837"/>
<path d="M61.6604 76.0747C61.8607 75.9425 62.0134 75.6438 62.1837 75.4087C62.0311 75.252 61.8839 74.9875 61.7258 74.9728C61.5678 74.9581 61.4179 75.2054 61.204 75.3891C61.4002 75.6927 61.5991 76.1237 61.6604 76.0747Z" fill="#EA5837"/>
<path d="M49.0984 71.3118C50.0113 73.3075 50.2948 76.3171 52.5881 76.1065C52.6889 76.1065 52.8333 76.3195 52.9028 76.4836C53.5514 78.0386 54.1878 79.6058 54.9563 81.4791C56.3189 81.3664 57.4172 78.2492 59.2172 79.4442C60.3795 77.2794 59.4461 75.1049 59.3671 73.5255L56.5451 69.8866C56.0301 69.9772 55.0844 70.6898 54.5434 68.9585C54.4698 68.7136 53.9984 68.5593 53.7817 68.6573C52.5404 69.2058 51.8618 68.2165 51.2636 66.5244C51.5525 69.3674 49.3777 69.3111 49.0984 71.3118Z" fill="#EA5837"/>
<path d="M11.0796 76.4504C11.671 79.9007 11.671 79.9007 12.9655 79.0461C11.6887 78.9334 12.5744 76.2692 11.0796 76.4504Z" fill="#F2BF5E"/>
<path d="M13.5759 71.6018C13.7654 70.2794 14.0692 68.7955 13.8267 67.5907C13.6372 66.643 12.8061 65.6806 11.7923 66.3271C11.7446 67.7107 11.5974 68.8885 11.7037 70.015C11.7677 70.6933 12.1506 71.4377 12.5349 71.8662C12.7393 72.0964 13.5446 71.8148 13.5759 71.6018Z" fill="#F2BF5E"/>
<path d="M17.8887 66.4398C18.6299 66.2268 19.5102 65.6587 19.9326 64.8089C20.5526 63.5845 19.3099 63.3593 19.0033 62.5756C18.9106 62.3308 18.6899 62.2132 18.2879 61.7773L15.5749 65.9843C16.4375 66.1827 17.2019 66.6333 17.8832 66.4398" fill="#F2BF5E"/>
<path d="M11.3794 61.0965C12.8429 63.0066 12.8933 60.1464 13.8594 60.144L12.8538 57.9841L11.3794 61.0965Z" fill="#F2BF5E"/>
<path d="M-0.014941 69.42C-0.656738 68.7319 -1.86402 69.0502 -2.15971 70.1693C-2.4227 71.1758 -2.65978 72.3928 -2.5167 73.3919C-2.30277 74.9053 -3.67768 74.7534 -3.52234 76.0856C-3.38607 77.3099 -3.40241 78.576 -3.33837 80.2117C-2.34093 78.2527 -0.460505 77.4716 -1.15817 74.4743C-0.584504 73.6956 -0.149818 73.1911 0.21264 72.5912C0.75769 71.6949 0.621406 70.0885 -0.0135772 69.4078" fill="#F2BF5E"/>
<path d="M9.50578 73.9378L9.36952 70.4924C8.58873 70.2941 8.00689 70.1471 7.46184 70.0027C7.15253 67.8698 8.45654 67.931 9.01386 66.9956L8.63913 65.1443C7.19884 65.3671 5.75719 65.7173 4.65891 63.8881C4.55535 63.7191 4.32645 63.7167 4.13569 63.6652L4.62894 61.0671L7.29151 64.5688L8.96073 60.6753C8.11181 59.0395 7.40599 57.4919 5.90846 58.322C5.54737 56.4634 5.05407 54.8766 3.43255 55.0945C2.98561 55.1533 2.51962 54.8937 2.06177 54.7713L2.28932 52.3445C2.89433 52.609 3.32355 52.7951 3.85088 53.0253L4.01712 51.0957C5.37157 49.9545 6.31041 51.8523 7.51906 51.6956C8.67184 51.5462 9.85461 51.9062 11.1041 52.0507C10.7526 50.9096 10.4487 50.0574 10.2212 49.1611C9.7783 47.4225 9.51667 47.2805 8.43883 48.0886C7.842 48.5343 7.19614 49.0485 6.55571 49.0999C4.93146 49.2322 3.2854 49.1807 1.74018 48.2404C0.934869 49.6166 1.22103 51.1789 1.58213 52.8221C0.211327 53.5689 -0.707106 55.2904 -2.29184 55.1753C-3.05355 55.119 -3.32198 56.1769 -3.44598 57.4992C-3.77301 60.9495 -2.43353 63.2538 -1.31754 65.972C-0.172937 65.252 0.934877 64.9166 1.8165 66.6111L1.54397 68.8346C3.05921 66.0944 3.76096 68.2322 4.7148 68.8591C4.43274 70.4826 4.03349 71.9274 4.81291 73.3795C5.74358 72.8726 6.6211 72.4 7.42914 71.9519L9.50032 73.928" fill="#F2BF5E"/>
<path d="M2.43784 69.3757C2.49915 70.7715 2.76761 71.516 3.58246 71.9518C3.76505 70.512 3.70508 69.5814 2.43784 69.3757Z" fill="#F2BF5E"/>
<path d="M4.90967 78.8477C5.14676 78.0322 5.7136 77.038 5.57461 76.3671C5.27892 74.9345 4.31284 75.3337 3.21457 75.2798C3.92177 76.563 3.33856 78.4118 4.90967 78.8477Z" fill="#F2BF5E"/>
<path d="M67.2483 56.0692C67.1448 55.5942 67.1121 55.0383 66.9172 54.6465C66.661 54.1224 66.2727 53.3535 65.9634 53.378C65.6241 53.4049 65.1376 54.1322 65.0286 54.693C64.7983 55.8758 64.3705 57.727 64.7329 58.278C66.176 60.4819 64.5967 60.9104 63.8418 61.9365C65.2194 64.0669 63.121 65.4995 63.5161 67.6985L64.9278 68.9645L64.3827 70.4068C63.636 70.0419 63.6292 67.9801 62.7707 68.7759C60.7581 72.5642 62.8048 75.2701 63.4957 78.0592C64.2424 78.3408 64.8978 78.7645 65.5601 78.7939C66.548 78.8404 67.6394 79.2591 68.4434 77.9074C69.0838 76.8373 69.821 75.8578 70.2965 74.6334C70.6862 73.6539 71.0174 72.2997 70.8743 71.2639C70.7857 70.6174 69.7665 70.2525 69.1151 69.7236C68.5333 68.9498 68.0918 68.0829 67.5059 67.6642C66.8968 67.2283 66.6134 66.7287 66.751 65.8055C66.7931 65.6131 66.8583 65.4396 66.9419 65.2974C67.0255 65.1552 67.1254 65.0478 67.2347 64.9828C67.8152 64.684 68.0414 65.2276 68.2798 65.977C68.6791 67.2307 69.449 67.7303 70.4055 67.9556C69.9381 63.4057 69.9572 63.3519 72.9823 60.6092L73.1744 58.0846L71.11 55.1803C70.5255 55.866 68.209 56.3827 67.2483 56.0643" fill="#F2BF5E"/>
<path d="M22.0024 71.4131C21.2802 71.7339 20.4422 72.4318 20.0743 73.3403C19.5402 74.6602 20.791 74.6896 21.1494 75.4242C21.257 75.6446 21.4846 75.7377 21.9152 76.1123L24.3298 71.5184C23.4577 71.4499 22.666 71.1168 22.0024 71.4131Z" fill="#F2BF5E"/>
<path d="M39.6103 65.7689C40.2916 66.3591 41.4757 65.862 41.6937 64.7013C41.8886 63.663 42.0412 62.4166 41.83 61.442C41.5152 59.9727 42.8928 59.9164 42.6476 58.6038C42.4241 57.4064 42.3614 56.1551 42.1856 54.5242C41.3272 56.6277 39.5081 57.6806 40.406 60.5604C39.8882 61.4199 39.4903 61.9856 39.1688 62.637C38.6878 63.6165 38.933 65.1886 39.6089 65.7689" fill="#F2BF5E"/>
<path d="M25.9445 65.6293C25.845 66.9761 25.6434 68.4943 25.965 69.6575C26.217 70.5734 27.1096 71.4059 28.0743 70.6125C28.0293 69.229 28.0947 68.034 27.9135 66.9394C27.8031 66.2733 27.3685 65.5901 26.9597 65.2252C26.7403 65.0269 25.9595 65.4285 25.9431 65.644" fill="#F2BF5E"/>
<path d="M32.6404 88.2508C33.2032 87.717 33.8123 87.1073 34.4445 86.9603C36.0524 86.5881 37.6849 86.3922 39.2928 87.0975C40.0013 85.6062 39.6102 84.0953 39.1415 82.5158C40.4551 81.5657 41.2509 79.7168 42.8356 79.5944C43.5973 79.5356 43.7894 78.4435 43.8275 77.1089C43.9188 73.6267 42.4322 71.533 41.1377 68.9961C40.0476 69.885 38.9684 70.3846 37.971 68.8296L38.0991 66.5743C36.7774 69.5275 35.9352 67.5073 34.9432 67.0248C35.1149 65.367 35.4093 63.8708 34.5413 62.5411L32.0341 64.3508L29.8402 62.6954L30.1972 66.1041C30.9876 66.1849 31.5721 66.2437 32.1322 66.3025C32.5845 68.379 31.2832 68.5064 30.7913 69.5275L31.2901 71.3127C32.7072 70.8743 34.1175 70.3111 35.3343 71.9665C35.4474 72.1207 35.675 72.0889 35.8698 72.111L35.5537 74.7703C34.4472 73.5876 33.646 72.7329 32.669 71.6824L31.271 75.8037C32.2248 77.3048 33.0328 78.7422 34.4663 77.6868C34.95 79.4842 35.5564 80.9878 37.1466 80.5298C37.5868 80.405 38.0677 80.5935 38.5324 80.6474L38.4697 83.0962C37.8497 82.9223 37.411 82.8023 36.8714 82.6505L36.8359 84.6095C35.566 85.9465 34.5031 84.1981 33.3108 84.536C32.1744 84.8568 30.9726 84.6756 29.7217 84.7172C30.1482 85.7996 30.5079 86.6028 30.7954 87.4599C31.3527 89.125 31.6212 89.2279 32.6404 88.2631" fill="#F2BF5E"/>
<path d="M35.8617 63.7878C35.7772 65.2571 35.8985 66.1632 37.1739 66.1803C37.0185 64.8016 36.701 64.0988 35.8617 63.7878Z" fill="#F2BF5E"/>
<path d="M26.435 77.082L27.5823 79.0827L28.8387 75.7646C27.254 74.0823 27.3957 76.9375 26.435 77.082Z" fill="#F2BF5E"/>
<path d="M76.615 68.1391C76.3738 67.7571 76.1613 67.3065 75.8738 67.0347C75.792 66.9588 75.4895 67.402 75.1243 67.7693C75.5086 68.2003 75.7293 68.5995 75.995 68.6852C76.1681 68.739 76.4038 68.335 76.615 68.1342" fill="#F2BF5E"/>
<path d="M77.7638 71.9765C77.3005 70.9186 76.8495 69.5277 75.8807 70.2427L74.578 76.3475C75.6762 76.0855 76.7909 77.8168 77.7243 76.0341C78.3783 74.7877 78.3374 73.2939 77.7638 71.9887" fill="#F2BF5E"/>
<path d="M72.876 65.7736C72.876 65.4847 72.6117 65.1908 72.4672 64.9019L71.7341 66.0136C72.0857 66.3417 72.3541 66.7482 72.4741 66.6674C72.6703 66.5376 72.8828 66.0895 72.8828 65.7736" fill="#F2BF5E"/>
<path d="M71.1523 74.5549C71.5243 74.8904 71.8731 75.2895 71.9167 75.2283C72.1503 74.8422 72.3617 74.4148 72.5476 73.9525C72.3255 73.8007 72.0598 73.4627 71.8922 73.5436C71.6456 73.666 71.4684 74.097 71.1523 74.5549Z" fill="#F2BF5E"/>
<path d="M60.6111 56.8797C60.3385 56.6226 60.0292 56.1793 59.7567 56.2087C58.7919 56.314 58.4336 55.3517 58.0452 54.3574C57.8722 53.9167 57.6582 53.5126 57.4634 53.0914C57.5628 55.9932 55.9645 56.7793 54.9276 57.989C55.2668 60.9618 55.2668 60.9618 58.5508 63.3763C58.766 64.6815 58.3832 66.4177 59.5891 66.7605C60.0238 66.8829 60.6533 66.4201 61.0212 65.9328C62.1181 64.488 61.2937 62.9575 60.9735 61.4613C62.4887 59.2574 62.8717 58.9514 60.6111 56.8601" fill="#F2BF5E"/>
<path d="M55.4126 67.909C55.6129 67.7767 55.7655 67.478 55.9358 67.2429C55.7832 67.0862 55.636 66.8217 55.478 66.807C55.3199 66.7923 55.17 67.0397 54.9561 67.2233C55.1523 67.527 55.3513 67.9579 55.4126 67.909Z" fill="#F2BF5E"/>
<path d="M51.2921 80.8069C52.7909 80.6305 54.1345 80.6746 55.4195 79.8984C56.2152 79.4086 56.3202 78.4854 56.0735 77.3614C55.7369 75.8236 55.042 74.7902 54.0378 74.0017C52.5729 75.6546 51.5046 77.5818 51.2921 80.8069Z" fill="#F2BF5E"/>
<path d="M42.8506 63.146C43.7635 65.1418 44.047 68.1513 46.3403 67.9407C46.4411 67.9407 46.5855 68.1537 46.655 68.3178C47.3036 69.8728 47.94 71.44 48.7085 73.3133C50.0711 73.2007 51.1694 70.0834 52.9694 71.2784C54.1318 69.1137 53.1984 66.9392 53.1193 65.3597L50.2974 61.7208C49.7823 61.8114 48.8366 62.524 48.2956 60.7927C48.222 60.5478 47.7506 60.3936 47.5339 60.4915C46.2926 61.0401 45.614 60.0507 45.0158 58.3586C45.3047 61.2017 43.1299 61.1453 42.8506 63.146Z" fill="#F2BF5E"/>
<g style="mix-blend-mode:darken">
<path d="M51.2642 61.3055C51.2671 61.3041 51.2703 61.3041 51.2732 61.3055L51.2642 61.3055Z" fill="#693737"/>
<path d="M34.6042 49.7766C34.6003 49.7758 34.5964 49.7758 34.5926 49.7766L34.6071 49.7618" fill="#693737"/>
<path d="M57.3974 60.8624C56.2855 60.882 55.2267 61.002 54.9283 63.0369C54.1788 62.6843 53.4798 62.3537 52.8026 62.0329L52.4429 62.6157C52.8517 63.2304 53.1174 64.0017 52.9607 65.1943C51.102 64.5576 51.0979 64.5552 51.2724 61.313C51.5176 61.5579 51.7684 61.8027 52.0041 62.0476C52.0709 61.9448 52.1404 61.8444 52.2071 61.7415C51.8924 61.5946 51.5817 61.4477 51.2724 61.3007L51.2724 61.286C51.3023 61.1979 51.3528 61.1122 51.3555 61.0216C51.3498 60.9272 51.329 60.8379 51.2955 60.7645C50.7028 61.0093 49.704 61.0657 49.595 61.5603C49.099 63.7838 47.8849 63.5193 46.8016 63.7642C46.1789 65.1037 45.3858 65.8285 44.2249 65.5445C43.3637 65.3314 42.4848 65.2824 41.3634 65.1257C41.2884 64.7217 40.9696 63.9307 41.054 63.25C41.223 61.8933 41.6127 60.5955 41.9111 59.2731C41.6141 59.4323 41.1249 59.8413 41.0499 59.7139C39.6246 57.2847 37.7524 58.7956 36.1064 58.0635C35.5027 60.7791 36.2344 64.5527 33.2571 64.4009C31.4857 62.9488 31.5402 60.784 32.092 58.6463C33.8566 56.9835 35.4782 55.4629 37.1011 53.9226L36.9403 53.472C35.9387 53.7169 34.9386 53.9618 33.6087 54.2997C33.9834 52.5855 34.29 51.1775 34.5966 49.7768C35.669 49.3874 36.7413 48.9956 37.98 48.5524L37.6856 50.7906L42.538 54.8702C42.7791 53.3496 43.3065 52.1986 44.5819 52.1766C45.3409 53.2369 45.7374 54.4197 45.3817 55.9697C44.9089 56.0775 44.4592 56.1828 43.9442 56.3028L44.6119 58.0169C45.1569 57.6349 45.6815 57.0105 46.247 56.9125C48.3141 56.555 50.3948 56.3762 52.8366 56.0848L51.6362 52.7055C52.3257 51.0869 53.458 51.0183 54.7007 50.7465L54.7089 54.2972C55.1926 54.5617 55.6764 54.8262 56.1533 55.0857C57.1466 52.828 56.4722 51.2999 55.5551 49.8821C54.5073 48.2635 54.3001 46.9436 55.0101 45.6139C55.2336 45.225 55.5256 44.9885 55.8358 44.9454C56.9259 44.9184 58.3607 48.0528 57.8239 49.4609C57.4968 50.318 57.4464 50.9302 57.4887 51.9097C57.5554 53.4646 57.4887 55.1568 56.3468 56.2611C55.8494 56.7509 55.6355 57.8724 55.3561 58.5581C56.235 60.6371 57.3238 59.4935 58.2517 59.4225C58.5965 60.9555 57.9329 60.8624 57.3987 60.8722" fill="#693737"/>
<path d="M30.4746 41.1767C31.0565 41.0323 31.3862 40.9514 31.701 40.8755C31.5361 41.4902 31.3208 41.9848 30.4746 41.1767Z" fill="#693737"/>
<path d="M31.727 40.7698L31.7571 40.8607L31.6969 40.8755L31.727 40.7698Z" fill="#693737"/>
<path d="M34.1088 47.7687C33.377 48.1458 32.9859 50.1514 31.8836 48.9319C31.2132 48.1972 30.5305 47.4626 29.7266 46.6104C30.5332 46.0105 31.1192 45.7779 31.498 45.2318C31.8768 44.6857 32.0934 43.8041 32.4518 42.8809L31.7487 40.8681C31.7568 40.867 31.7651 40.867 31.7732 40.8681C32.8633 39.7832 33.0759 41.4607 33.3838 42.2026C33.858 43.3462 34.2546 43.5544 35.004 42.8075C35.5177 42.2981 36.1295 42.0043 36.8763 41.4925C36.7523 43.7527 34.5829 44.6294 35.8352 46.8308C36.2372 46.9337 36.5533 47.0145 37.0071 47.1296L34.5952 49.7889C34.8677 48.9172 34.7587 48.2487 34.1006 47.7736" fill="#693737"/>
<path d="M28.1091 46.7328L28.6814 45.4007C28.8694 45.6456 29.0561 45.8905 29.2442 46.1182L28.4457 47.1663L28.1091 46.7328Z" fill="#693737"/>
<path d="M21.5058 75.7043L20.8245 78.3661C20.3681 77.3156 20.3422 76.4903 21.5058 75.7043Z" fill="#693737"/>
<path d="M23.3985 83.9347C23.0129 83.5037 22.6995 83.1046 22.3561 82.7789C20.8831 81.3757 20.8776 81.1333 21.5957 78.78C22.1408 77.0096 23.0578 75.3738 22.5155 72.7805C24.058 75.0995 24.3224 70.8215 25.5337 72.1218C25.5337 72.3202 25.5841 72.5552 25.5269 72.685C24.6385 74.7395 24.6412 74.7395 26.0938 75.7044C26.2992 75.8507 26.477 76.0997 26.6061 76.4219C27.0013 77.4332 27.3583 78.4739 27.7616 79.5906L27.2166 82.2401C25.9493 82.8034 24.6753 83.3715 23.4012 83.9347" fill="#693737"/>
<path d="M54.0303 41.8353C52.9266 41.9455 51.9401 40.9293 51.9428 39.6877C51.9428 38.003 53.2863 35.6742 54.2511 35.6693C55.2158 35.6644 55.6859 36.7027 55.7255 39.0192C55.7541 40.6795 55.1245 41.7251 54.0303 41.8353Z" fill="#693737"/>
<path d="M38.7131 46.0544L36.6692 44.4089C37.8724 43.8383 38.5836 43.6522 38.7131 46.0544Z" fill="#693737"/>
<path d="M48.8442 46.3753C48.9614 46.0056 49.2653 45.768 49.4928 45.4766C49.6373 45.7509 49.933 46.0815 49.9016 46.2823C49.8294 46.6765 49.5746 46.9973 49.283 47.5679C49.0609 46.9875 48.7883 46.5639 48.8483 46.3753" fill="#693737"/>
<path d="M42.5284 47.7687L42.5652 47.279C43.1893 47.3769 43.8134 47.4741 44.4375 47.5704L44.3966 48.1091C43.7743 47.9965 43.1516 47.883 42.5284 47.7687Z" fill="#693737"/>
<path d="M53.439 49.0715C53.3777 49.2747 53.1338 49.3555 52.8258 49.6224L52.5042 47.5312C53.4949 47.4406 53.796 47.9009 53.439 49.0715Z" fill="#693737"/>
<path d="M65.7516 49.6225C66.4738 48.9907 66.9889 48.5425 67.7288 47.9083C67.3514 50.2518 67.3514 50.2518 65.7516 49.6225Z" fill="#693737"/>
<path d="M43.6853 69.3595C43.7405 69.2392 43.8092 69.1413 43.8869 69.0721C43.9646 69.0029 44.0496 68.964 44.1363 68.9579C44.2603 68.9579 44.3843 69.2566 44.6391 69.5994C44.3816 69.7762 44.1169 69.917 43.8474 70.0206C43.8133 70.0206 43.6348 69.5162 43.6853 69.3595Z" fill="#693737"/>
<path d="M37.5644 69.5066C37.6148 67.7582 36.7263 67.0113 35.9387 65.9094C37.3204 66.0979 38.7008 66.2865 40.1465 66.4824C39.9258 68.5932 39.2213 69.7344 37.5644 69.5066Z" fill="#693737"/>
<path d="M36.6501 71.0518L36.5751 71.5146C36.2304 71.4534 35.8843 71.3898 35.5395 71.3285L35.6758 70.5327L36.6514 71.0518" fill="#693737"/>
<path d="M9.68919 70.1284C9.09781 70.6475 8.7081 71.9429 7.81967 71.0369C8.41514 69.8811 8.41513 69.8811 9.68919 70.1284Z" fill="#693737"/>
<path d="M31.7432 70.1481C31.8209 68.5123 32.2569 68.0029 33.4029 68.8306C33.0145 70.2289 32.6453 71.0125 31.7432 70.1481Z" fill="#693737"/>
<path d="M30.4228 67.6897C30.3106 67.9746 30.1813 68.2365 30.0372 68.4708L29.8478 67.2464C29.9718 67.2317 30.0972 67.2195 30.2225 67.2073C30.2947 67.3689 30.4514 67.5893 30.4228 67.6823" fill="#693737"/>
<path d="M16.6086 65.8506C16.8144 65.4514 17.5216 65.1159 17.7396 65.3241C18.6648 66.2301 18.1593 67.1313 17.5052 68.1696C16.8089 67.5084 15.9259 67.1778 16.6086 65.8506Z" fill="#693737"/>
<path d="M12.9595 71.7056C12.8008 71.6729 12.6505 71.56 12.5261 71.3799C12.4771 71.2844 12.6052 70.993 12.845 69.9792C13.0248 70.753 13.1175 71.0028 13.1298 71.2623C13.1298 71.4117 12.9935 71.7178 12.9595 71.7056Z" fill="#693737"/>
<path d="M5.20752 71.8696C5.12713 72.2026 5.02492 72.8344 5.09169 72.8883C6.46249 73.978 5.82205 76.0864 6.55787 77.9768C6.01282 77.563 5.78662 77.4871 5.66398 77.2814C4.1174 74.6391 3.16083 71.3431 1.36353 68.9555C0.682217 68.0397 0.856654 66.6463 1.58975 65.684C2.59673 64.3616 3.64186 63.1005 4.65565 61.832C6.23357 63.9845 8.66313 62.3365 10.0067 65.3313C8.64406 66.6047 7.31276 68.025 5.87519 69.1073C4.92136 69.8248 5.43099 70.9684 5.20752 71.8769" fill="#693737"/>
<path d="M-1.06329 80.7463C-2.07163 80.6312 -2.8892 78.993 -2.35505 77.4307C-2.0035 76.4022 -2.78564 76.1034 -2.35505 75.0554C-1.3181 74.9182 -0.25117 74.7786 0.803502 74.6391C0.893435 75.8904 1.02695 76.9017 1.02287 77.9131C1.01469 79.9113 0.253008 80.8957 -1.06329 80.7463Z" fill="#693737"/>
<path d="M42.2368 76.3141C42.3254 76.5345 42.4889 76.7598 42.4848 76.9753C42.4848 77.2202 42.3213 77.6854 42.2355 77.683C41.779 77.6683 41.1944 77.7613 40.9014 77.3867C40.6085 77.012 40.5485 76.1109 40.3359 75.2195C41.4819 75.0897 41.2434 77.4087 42.2436 76.3141" fill="#693737"/>
<path d="M35.2888 78.447C34.2164 78.4666 33.2789 78.8045 32.6589 80.0215C32.9683 80.4574 33.2476 81.4467 33.7994 83.4058C33.0119 83.8318 32.3237 84.2065 31.4762 84.6669L31.3808 82.1006C31.1073 82.1951 30.8482 82.393 30.6205 82.6809L30.5033 81.9193C30.7758 81.4443 31.0483 80.957 31.3208 80.4746L31.3031 79.9726C31.4394 79.9187 31.5688 79.8722 31.6847 79.833C32.0308 79.2208 32.396 78.6331 32.7625 78.0503C31.3999 78.54 31.3426 78.4323 30.9161 77.1148C31.5266 77.3279 32.1425 77.5434 32.9083 77.8127C33.0009 77.6683 33.0827 77.5116 33.1808 77.372C33.8471 76.3925 34.5434 76.7647 35.2929 78.447" fill="#693737"/>
<path d="M45.6625 72.9911C45.0629 73.4809 44.4647 73.9706 43.5518 74.7297L43.5259 71.5463C44.4334 71.8328 45.0438 72.0361 45.6543 72.2173L45.6625 72.9911Z" fill="#693737"/>
</g>
</g>
</g>
</svg>
