<svg width="33" height="32" viewBox="0 0 33 32" fill="none" xmlns="http://www.w3.org/2000/svg">
<g clip-path="url(#clip0)">
<path d="M32.0078 16C32.0078 7.1636 24.8441 0 16.0078 0C7.17142 0 0.0078125 7.1636 0.0078125 16C0.0078125 24.8363 7.17142 32 16.0078 32C24.8441 32 32.0078 24.8363 32.0078 16ZM1.46235 16C1.46235 7.96653 7.97434 1.45454 16.0078 1.45454C24.0413 1.45454 30.5533 7.96653 30.5533 16C30.5533 24.0334 24.0413 30.5454 16.0078 30.5454C7.97434 30.5454 1.46235 24.0334 1.46235 16Z" fill="#28237D"/>
<path d="M16.5555 24.4212V15.9889H19.3105L19.7458 13.1945H16.5555V11.7933C16.5555 11.0641 16.7922 10.3682 17.8284 10.3682H19.8996V7.5791H16.9592C14.4869 7.5791 13.8122 9.2233 13.8122 11.5024V13.1932H12.1158V15.9889H13.8122V24.4212H16.5555Z" fill="#28237D"/>
</g>
<defs>
<clipPath id="clip0">
<rect width="32" height="32" fill="white" transform="translate(0.0078125)"/>
</clipPath>
</defs>
</svg>
