<svg width="33" height="32" viewBox="0 0 33 32" fill="none" xmlns="http://www.w3.org/2000/svg">
<g clip-path="url(#clip0)">
<path d="M32.0078 16C32.0078 7.1636 24.8442 0 16.0079 0C7.17152 0 0.00793457 7.1636 0.00793457 16C0.00793457 24.8363 7.17152 32 16.0079 32C24.8442 32 32.0078 24.8363 32.0078 16ZM1.46247 16C1.46247 7.96653 7.97445 1.45453 16.0079 1.45453C24.0413 1.45453 30.5533 7.96653 30.5533 16C30.5533 24.0334 24.0413 30.5454 16.0079 30.5454C7.97445 30.5454 1.46247 24.0334 1.46247 16Z" fill="#28237D"/>
<g clip-path="url(#clip1)">
<path d="M19.3867 8.4209H12.6292C10.4387 8.4209 8.65662 10.2582 8.65662 12.5165V19.4832C8.65662 21.7415 10.4387 23.5788 12.6292 23.5788H19.3867C21.5772 23.5788 23.3593 21.7415 23.3593 19.4832V12.5165C23.3593 10.2582 21.5772 8.4209 19.3867 8.4209ZM22.1715 19.4832C22.1715 21.0662 20.9222 22.3542 19.3867 22.3542H12.6292C11.0937 22.3542 9.84443 21.0663 9.84443 19.4832V12.5165C9.84443 10.9334 11.0937 9.64549 12.6292 9.64549H19.3867C20.9222 9.64549 22.1715 10.9334 22.1715 12.5165V19.4832Z" fill="#28237D"/>
<path d="M19.2984 15.4712C19.1939 14.7445 18.8723 14.0858 18.3684 13.5664C17.8646 13.0469 17.2257 12.7153 16.5208 12.6076C16.1999 12.5585 15.8745 12.5585 15.5536 12.6076C14.6825 12.7408 13.9138 13.2157 13.3892 13.9449C12.8646 14.6741 12.6468 15.5703 12.776 16.4684C12.9052 17.3665 13.3658 18.1589 14.0731 18.6998C14.6473 19.1389 15.3282 19.3694 16.0302 19.3694C16.193 19.3694 16.3569 19.3571 16.5208 19.332C17.3919 19.1988 18.1606 18.7239 18.6852 17.9947C19.2098 17.2655 19.4276 16.3693 19.2984 15.4712ZM16.3466 18.1206C15.7893 18.2059 15.2332 18.0622 14.7808 17.7162C14.3283 17.3702 14.0336 16.8633 13.951 16.2888C13.8683 15.7143 14.0076 15.141 14.3432 14.6745C14.6789 14.208 15.1706 13.9042 15.7278 13.819C15.8305 13.8033 15.9338 13.7954 16.0372 13.7954C16.1405 13.7954 16.2439 13.8033 16.3465 13.819C17.2721 13.9605 17.9862 14.6967 18.1234 15.6509C18.294 16.8368 17.4969 17.9448 16.3466 18.1206Z" fill="#28237D"/>
<path d="M20.1445 11.7355C20.0339 11.6215 19.8808 11.5562 19.7246 11.5562C19.5683 11.5562 19.4152 11.6215 19.3046 11.7355C19.194 11.8495 19.1306 12.0071 19.1306 12.1685C19.1306 12.3299 19.194 12.4874 19.3046 12.6015C19.4152 12.7155 19.5683 12.7808 19.7246 12.7808C19.8808 12.7808 20.0339 12.7155 20.1445 12.6015C20.2551 12.4874 20.3185 12.3296 20.3185 12.1685C20.3185 12.0073 20.2551 11.8495 20.1445 11.7355Z" fill="#28237D"/>
</g>
</g>
<defs>
<clipPath id="clip0">
<rect width="31.9999" height="32" fill="white" transform="translate(0.00793457)"/>
</clipPath>
<clipPath id="clip1">
<rect width="14.7027" height="15.1579" fill="white" transform="translate(8.65662 8.4209)"/>
</clipPath>
</defs>
</svg>
