<svg width="33" height="32" viewBox="0 0 33 32" fill="none" xmlns="http://www.w3.org/2000/svg">
<g clip-path="url(#clip0)">
<path d="M32.0078 16C32.0078 7.1636 24.8441 0 16.0078 0C7.17142 0 0.0078125 7.1636 0.0078125 16C0.0078125 24.8363 7.17142 32 16.0078 32C24.8441 32 32.0078 24.8363 32.0078 16ZM1.46235 16C1.46235 7.96653 7.97434 1.45454 16.0078 1.45454C24.0413 1.45454 30.5533 7.96653 30.5533 16C30.5533 24.0334 24.0413 30.5454 16.0078 30.5454C7.97434 30.5454 1.46235 24.0334 1.46235 16Z" fill="#28237D"/>
<g clip-path="url(#clip1)">
<path d="M23.4744 11.3698C22.9248 11.6133 22.3351 11.7785 21.7154 11.8522C22.3481 11.4733 22.8324 10.8724 23.062 10.1585C22.4685 10.5094 21.8134 10.7641 21.1154 10.9023C20.5564 10.306 19.7614 9.93457 18.8795 9.93457C17.1877 9.93457 15.816 11.3063 15.816 12.9972C15.816 13.237 15.843 13.4712 15.8953 13.6952C13.3497 13.5673 11.0924 12.3477 9.58159 10.4944C9.3175 10.9461 9.16726 11.4724 9.16726 12.0342C9.16726 13.097 9.7085 14.0349 10.5297 14.5835C10.0276 14.5667 9.55546 14.4286 9.14208 14.1991V14.2373C9.14208 15.7211 10.1984 16.9593 11.5991 17.2412C11.3425 17.3102 11.0718 17.3485 10.7919 17.3485C10.5941 17.3485 10.4028 17.3289 10.2152 17.2916C10.6053 18.5093 11.7363 19.3949 13.0763 19.4192C12.0283 20.2404 10.707 20.7284 9.2718 20.7284C9.02452 20.7284 8.78095 20.7135 8.54114 20.6864C9.89702 21.557 11.5067 22.0647 13.2368 22.0647C18.8721 22.0647 21.9525 17.397 21.9525 13.349L21.9422 12.9524C22.5441 12.5231 23.0648 11.9838 23.4744 11.3698Z" fill="#28237D"/>
</g>
</g>
<defs>
<clipPath id="clip0">
<rect width="32" height="32" fill="white" transform="translate(0.0078125)"/>
</clipPath>
<clipPath id="clip1">
<rect width="14.9333" height="14.9333" fill="white" transform="translate(8.54114 8.5332)"/>
</clipPath>
</defs>
</svg>
