<svg width="18" height="20" viewBox="0 0 18 20" fill="none" xmlns="http://www.w3.org/2000/svg">
<path d="M0.878845 15.8969C1.32097 14.8496 1.96257 13.8984 2.76791 13.0961C3.5708 12.2915 4.5219 11.65 5.56869 11.207C5.57806 11.2023 5.58744 11.2 5.59681 11.1953C4.13666 10.1406 3.18744 8.42266 3.18744 6.48438C3.18744 3.27344 5.789 0.671875 8.99994 0.671875C12.2109 0.671875 14.8124 3.27344 14.8124 6.48438C14.8124 8.42266 13.8632 10.1406 12.4031 11.1977C12.4124 11.2023 12.4218 11.2047 12.4312 11.2094C13.4812 11.6523 14.4234 12.2875 15.232 13.0984C16.0366 13.9013 16.6781 14.8524 17.121 15.8992C17.5562 16.924 17.7909 18.0228 17.8124 19.1359C17.8131 19.161 17.8087 19.1858 17.7995 19.2091C17.7904 19.2324 17.7767 19.2537 17.7592 19.2716C17.7417 19.2895 17.7209 19.3037 17.6978 19.3134C17.6747 19.3231 17.65 19.3281 17.6249 19.3281H16.2187C16.1156 19.3281 16.0335 19.2461 16.0312 19.1453C15.9843 17.3359 15.2578 15.6414 13.9734 14.357C12.6445 13.0281 10.8796 12.2969 8.99994 12.2969C7.12025 12.2969 5.35541 13.0281 4.0265 14.357C2.74213 15.6414 2.01556 17.3359 1.96869 19.1453C1.96634 19.2484 1.88431 19.3281 1.78119 19.3281H0.374939C0.349916 19.3281 0.325146 19.3231 0.302086 19.3134C0.279026 19.3037 0.258144 19.2895 0.240671 19.2716C0.223198 19.2537 0.209486 19.2324 0.200344 19.2091C0.1912 19.1858 0.186813 19.161 0.187439 19.1359C0.210876 18.0156 0.442907 16.9258 0.878845 15.8969ZM8.99994 10.5156C10.0757 10.5156 11.0882 10.0961 11.8499 9.33438C12.6117 8.57266 13.0312 7.56016 13.0312 6.48438C13.0312 5.40859 12.6117 4.39609 11.8499 3.63437C11.0882 2.87266 10.0757 2.45312 8.99994 2.45312C7.92416 2.45312 6.91166 2.87266 6.14994 3.63437C5.38822 4.39609 4.96869 5.40859 4.96869 6.48438C4.96869 7.56016 5.38822 8.57266 6.14994 9.33438C6.91166 10.0961 7.92416 10.5156 8.99994 10.5156Z" fill="white"/>
</svg>
