<svg width="33" height="32" viewBox="0 0 33 32" fill="none" xmlns="http://www.w3.org/2000/svg">
<g clip-path="url(#clip0)">
<path d="M32.0078 16C32.0078 7.1636 24.8441 0 16.0078 0C7.17142 0 0.0078125 7.1636 0.0078125 16C0.0078125 24.8363 7.17142 32 16.0078 32C24.8441 32 32.0078 24.8363 32.0078 16ZM1.46235 16C1.46235 7.96653 7.97434 1.45454 16.0078 1.45454C24.0413 1.45454 30.5533 7.96653 30.5533 16C30.5533 24.0334 24.0413 30.5454 16.0078 30.5454C7.97434 30.5454 1.46235 24.0334 1.46235 16Z" fill="#28237D"/>
<g clip-path="url(#clip1)">
<path d="M24.1369 19.2589C24.117 19.2171 24.0985 19.1825 24.0813 19.1548C23.7962 18.6548 23.2513 18.0411 22.4471 17.3136L22.4301 17.2969L22.4216 17.2887L22.413 17.2804H22.4044C22.0394 16.9416 21.8083 16.7138 21.7115 16.5972C21.5344 16.375 21.4947 16.1501 21.5915 15.9223C21.6599 15.7501 21.9167 15.3866 22.3615 14.8311C22.5955 14.5367 22.7807 14.3008 22.9176 14.123C23.9044 12.8456 24.3322 12.0293 24.201 11.6739L24.15 11.5908C24.1158 11.5408 24.0274 11.495 23.8849 11.4533C23.7422 11.4117 23.5597 11.4048 23.3372 11.4325L20.8732 11.4491C20.8333 11.4353 20.7763 11.4366 20.702 11.4533C20.6279 11.47 20.5908 11.4784 20.5908 11.4784L20.5479 11.4992L20.5139 11.5243C20.4853 11.5409 20.454 11.57 20.4197 11.6117C20.3856 11.6532 20.3571 11.7019 20.3344 11.7575C20.0661 12.4295 19.7611 13.0542 19.4188 13.6318C19.2077 13.9762 19.0139 14.2746 18.8369 14.5274C18.6601 14.78 18.5118 14.9661 18.3921 15.0854C18.2723 15.2048 18.1641 15.3005 18.0669 15.3728C17.9699 15.4451 17.8959 15.4756 17.8446 15.4645C17.7932 15.4533 17.7448 15.4422 17.699 15.4311C17.6192 15.3811 17.555 15.3131 17.5066 15.227C17.458 15.1409 17.4253 15.0326 17.4082 14.9021C17.3912 14.7715 17.3811 14.6591 17.3782 14.5647C17.3755 14.4704 17.3768 14.3369 17.3826 14.1648C17.3885 13.9925 17.3912 13.876 17.3912 13.8149C17.3912 13.6038 17.3954 13.3748 17.4039 13.1276C17.4125 12.8805 17.4195 12.6847 17.4253 12.5404C17.4311 12.396 17.4338 12.2432 17.4338 12.0822C17.4338 11.9211 17.4238 11.7948 17.4039 11.7031C17.3842 11.6116 17.354 11.5227 17.3143 11.4365C17.2743 11.3504 17.2157 11.2839 17.1389 11.2366C17.0619 11.1894 16.9662 11.1519 16.8523 11.1241C16.5499 11.0575 16.165 11.0214 15.6971 11.0158C14.6363 11.0047 13.9546 11.0714 13.6523 11.2158C13.5326 11.2769 13.4242 11.3602 13.3273 11.4657C13.2246 11.5879 13.2102 11.6546 13.2844 11.6656C13.6267 11.7155 13.869 11.8349 14.0116 12.0237L14.063 12.1238C14.103 12.196 14.1429 12.3238 14.1828 12.507C14.2227 12.6902 14.2484 12.8929 14.2598 13.115C14.2882 13.5205 14.2882 13.8676 14.2598 14.1563C14.2312 14.4452 14.2042 14.6701 14.1785 14.8311C14.1528 14.9922 14.1143 15.1227 14.063 15.2226C14.0116 15.3226 13.9774 15.3837 13.9603 15.4059C13.9431 15.428 13.9289 15.442 13.9175 15.4475C13.8434 15.4752 13.7663 15.4893 13.6865 15.4893C13.6066 15.4893 13.5097 15.4503 13.3956 15.3726C13.2816 15.2948 13.1633 15.1879 13.0406 15.0518C12.918 14.9157 12.7796 14.7255 12.6256 14.4812C12.4716 14.2368 12.3119 13.9481 12.1465 13.6148L12.0096 13.3732C11.9241 13.2177 11.8072 12.9914 11.6589 12.6943C11.5105 12.3971 11.3793 12.1097 11.2653 11.832C11.2197 11.7153 11.1513 11.6266 11.06 11.5655L11.0172 11.5404C10.9887 11.5182 10.943 11.4947 10.8803 11.4696C10.8176 11.4445 10.7521 11.4265 10.6836 11.4155L8.3393 11.4321C8.09974 11.4321 7.9372 11.4849 7.85162 11.5904L7.81737 11.6404C7.80026 11.6682 7.79163 11.7126 7.79163 11.7737C7.79163 11.8348 7.80874 11.9098 7.84299 11.9986C8.18521 12.7817 8.55736 13.537 8.95945 14.2645C9.36155 14.992 9.71096 15.5781 10.0075 16.0221C10.3041 16.4665 10.6064 16.8858 10.9144 17.28C11.2224 17.6744 11.4263 17.9271 11.5261 18.0381C11.6259 18.1493 11.7044 18.2325 11.7614 18.288L11.9754 18.4879C12.1122 18.6212 12.3133 18.7809 12.5785 18.9669C12.8438 19.153 13.1375 19.3363 13.4597 19.5169C13.7821 19.6973 14.157 19.8444 14.5849 19.9583C15.0126 20.0722 15.429 20.1179 15.834 20.0959H16.8179C17.0175 20.0791 17.1687 20.018 17.2714 19.9125L17.3055 19.8708C17.3283 19.8376 17.3498 19.7861 17.3696 19.7168C17.3896 19.6474 17.3995 19.571 17.3995 19.4878C17.3937 19.249 17.4123 19.0338 17.455 18.8422C17.4977 18.6507 17.5463 18.5063 17.6006 18.4091C17.655 18.3119 17.7163 18.2299 17.7845 18.1634C17.8529 18.0968 17.9016 18.0565 17.9302 18.0426C17.9586 18.0286 17.9813 18.0191 17.9984 18.0134C18.1353 17.969 18.2964 18.012 18.4819 18.1427C18.6673 18.2732 18.8412 18.4343 19.0039 18.6258C19.1665 18.8175 19.3618 19.0326 19.5899 19.2714C19.8182 19.5102 20.0177 19.6878 20.1888 19.8046L20.3598 19.9045C20.4741 19.9712 20.6224 20.0323 20.8049 20.0879C20.9872 20.1434 21.1468 20.1573 21.2839 20.1295L23.4741 20.0962C23.6907 20.0962 23.8593 20.0613 23.9788 19.992C24.0986 19.9226 24.1698 19.8461 24.1928 19.7629C24.2157 19.6797 24.2169 19.5852 24.1971 19.4796C24.1768 19.3742 24.1568 19.3005 24.1369 19.2589Z" fill="#28237D"/>
</g>
</g>
<defs>
<clipPath id="clip0">
<rect width="32" height="32" fill="white" transform="translate(0.0078125)"/>
</clipPath>
<clipPath id="clip1">
<rect width="16.4324" height="16" fill="white" transform="translate(7.79163 7.5791)"/>
</clipPath>
</defs>
</svg>
