<svg width="248" height="49" viewBox="0 0 248 49" fill="none" xmlns="http://www.w3.org/2000/svg">
<g style="mix-blend-mode:color-dodge">
<mask id="mask0" mask-type="alpha" maskUnits="userSpaceOnUse" x="0" y="0" width="248" height="49">
<rect y="49" width="49" height="248" transform="rotate(-90 0 49)" fill="#C4C4C4"/>
</mask>
<g mask="url(#mask0)">
<path d="M34.5505 49.1155C34.3252 47.7834 35.2215 46.1158 33.1057 45.5942C32.3442 45.4056 31.1614 45.7729 30.4439 46.2015C28.3062 47.4748 29.5966 49.1204 29.986 50.6558C27.0107 52.6148 26.2859 52.8719 30.0766 55.2889C30.5419 55.5852 31.0316 56.0725 31.5238 56.0847C33.26 56.1239 33.7841 57.1352 34.3595 58.1833C34.6044 58.6461 34.9472 59.0796 35.246 59.5277C35.4198 56.6283 38.3657 56.0823 40.3761 55.0268C40.1312 52.0173 40.1312 52.0173 34.5505 49.1155Z" fill="#EA5837"/>
<path d="M41.4438 45.8439C41.1303 45.5134 40.8267 45.0628 40.7091 45.0946C40.332 45.195 40.0259 45.4717 39.6929 45.6799C39.9377 45.8562 40.1827 46.1427 40.4594 46.1696C40.7361 46.1966 41.0348 45.9835 41.4389 45.8317" fill="#EA5837"/>
<path d="M93.1326 51.7674C93.473 50.4451 94.0191 48.9611 93.5832 47.7563C93.2428 46.8087 91.7491 45.8463 89.9272 46.4928C89.8415 47.8763 89.577 49.0542 89.768 50.1806C89.8831 50.8589 90.5712 51.6034 91.2618 52.0319C91.6291 52.2621 93.0763 51.9805 93.1326 51.7674Z" fill="#EA5837"/>
<path d="M100.883 46.6056C102.215 46.3925 103.797 45.8244 104.556 44.9747C105.67 43.7503 103.437 43.525 102.886 42.7414C102.719 42.4965 102.323 42.379 101.6 41.9431L96.7249 46.1501C98.2749 46.3485 99.6487 46.799 100.873 46.6056" fill="#EA5837"/>
<path d="M89.1851 41.2623C91.815 43.1723 91.9056 40.3122 93.6418 40.3097L91.8347 38.1499L89.1851 41.2623Z" fill="#EA5837"/>
<path d="M62.5963 51.7112C61.2054 49.5905 61.0634 46.554 56.9372 46.4194C56.756 46.4194 56.5258 46.1745 56.4229 45.9982C55.4434 44.3526 54.5006 42.6997 53.3571 40.7186C50.9083 40.628 48.5624 43.5665 45.4892 42.1071C43.1481 44.0881 44.5537 46.39 44.5097 47.9841C46.2483 49.5097 47.5241 50.6288 49.1134 52.0271C50.0464 52.0148 51.8241 51.4467 52.5808 53.2514C52.6837 53.4963 53.4942 53.7412 53.908 53.6653C56.1952 53.3053 57.2874 54.3999 58.1518 56.163C57.9804 53.2931 61.8617 53.6726 62.6036 51.7259" fill="#EA5837"/>
<path d="M68.7085 49.5856C67.5551 48.8975 65.3855 49.2159 64.8541 50.335C64.3815 51.3414 63.9555 52.5585 64.2126 53.5576C64.597 55.0709 62.1262 54.9191 62.4054 56.2512C62.6502 57.4756 62.6209 58.7416 62.736 60.3774C64.5285 58.4184 67.9078 57.6372 66.654 54.6399C67.6849 53.8612 68.4661 53.3568 69.1175 52.7568C70.097 51.8606 69.8521 50.2542 68.7109 49.5734" fill="#EA5837"/>
<path d="M85.818 54.1037L85.5731 50.6583C84.17 50.46 83.1244 50.313 82.1449 50.1686C81.589 48.0357 83.9324 48.0969 84.934 47.1615L84.2606 45.3102C81.6722 45.533 79.0814 45.8832 77.1077 44.054C76.9216 43.885 76.5102 43.8826 76.1674 43.8311L77.0538 41.233L81.8388 44.7347L84.8385 40.8412C83.3129 39.2054 82.0445 37.6578 79.3533 38.4879C78.7044 36.6293 77.8179 35.0425 74.9038 35.2604C74.1006 35.3192 73.2632 35.0596 72.4404 34.9372L72.8493 32.5104C73.9366 32.7749 74.7079 32.961 75.6556 33.1912L75.9543 31.2616C78.3884 30.1204 80.0756 32.0182 82.2477 31.8615C84.3194 31.7121 86.4449 32.0721 88.6904 32.2166C88.0586 31.0755 87.5126 30.2233 87.1036 29.327C86.3078 27.5884 85.8376 27.4464 83.9006 28.2545C82.828 28.7001 81.6674 29.2144 80.5164 29.2658C77.5975 29.398 74.6394 29.3466 71.8625 28.4063C70.4152 29.7825 70.9295 31.3448 71.5784 32.988C69.1149 33.7348 67.4644 35.4563 64.6165 35.3412C63.2476 35.2849 62.7652 36.3428 62.5424 37.6651C61.9547 41.1154 64.3619 43.4197 66.3674 46.1379C68.4244 45.4179 70.4152 45.0825 71.9996 46.777L71.5098 49.0005C74.2329 46.2603 75.494 48.3981 77.2081 49.025C76.7013 50.6485 75.9838 52.0933 77.3845 53.5454C79.057 53.0385 80.634 52.5659 82.0861 52.1178L85.8082 54.0939" fill="#EA5837"/>
<path d="M5.44441 42.2809C4.80772 41.7911 4.46492 41.365 3.9972 41.2402C3.696 41.1593 3.21848 41.5291 2.82178 41.6956C3.20624 42.1119 3.53189 42.5919 4.0143 42.9053C4.15143 42.9935 4.74895 42.5968 5.44441 42.2809Z" fill="#EA5837"/>
<path d="M18.1069 55.1028C18.2366 55.5925 18.2342 56.1508 18.528 56.572C18.9223 57.1328 19.5223 57.9556 20.0732 57.9776C20.683 58.0021 21.6429 57.3483 21.9049 56.8096C22.4608 55.6684 23.4501 53.8906 22.8697 53.2858C20.5556 50.8737 23.4354 50.6876 24.9071 49.7816C22.7032 47.4552 26.6212 46.3533 26.1878 44.098L23.8174 42.6287L24.9634 41.2745C26.2539 41.7496 26.0164 43.8017 27.6571 43.138C31.7147 39.673 28.3917 36.6733 27.4881 33.7935C26.1878 33.4042 25.0663 32.885 23.8835 32.7552C22.1253 32.5642 20.2226 31.9814 18.6211 33.2083C17.3576 34.1878 15.9274 35.0448 14.921 36.1762C14.1031 37.1043 13.3465 38.3801 13.4787 39.4453C13.5595 40.1016 15.3373 40.6158 16.4368 41.2402C17.3845 42.0949 18.0677 43.023 19.0643 43.5274C20.1026 44.0539 20.5483 44.5926 20.1908 45.4864C20.0895 45.6725 19.9497 45.8349 19.7808 45.9628C19.6119 46.0907 19.4178 46.1813 19.2113 46.2284C18.1362 46.439 17.7983 45.8635 17.4629 45.0824C16.8996 43.7772 15.5846 43.165 13.9023 42.7977C14.1839 47.394 14.1472 47.4503 8.39994 49.7228L7.75098 52.2083L11.0911 55.4064C12.2176 54.8114 16.4221 54.6448 18.102 55.1028" fill="#EA5837"/>
<path d="M9.22266 44.6097C9.18348 44.8962 9.62428 45.2268 9.85202 45.5378C10.2561 45.2611 10.6576 44.9819 11.2968 44.5411C10.7091 44.1616 10.2781 43.7159 10.0528 43.7796C9.68796 43.88 9.26184 44.2938 9.22266 44.6097Z" fill="#EA5837"/>
<path d="M239.44 48.6773C238.183 48.7458 237.52 50.4526 238.57 50.9742C239.606 51.4483 240.767 51.5771 241.881 51.3415C243.012 51.0354 243.901 50.1171 245.064 49.3433C244.805 49.0715 244.665 48.7899 244.511 48.7826C242.819 48.7115 241.117 48.5867 239.432 48.6773" fill="#EA5837"/>
<path d="M244.345 40.2483L242.295 43.5345C243.901 43.8945 245.008 44.1443 246.127 44.3941C247.254 42.6579 246.617 41.5584 244.352 40.2532" fill="#EA5837"/>
<path d="M189.587 36.235C189.401 35.7599 189.342 35.2041 188.992 34.8122C188.532 34.2882 187.834 33.5193 187.278 33.5438C186.668 33.5707 185.794 34.298 185.598 34.8588C185.184 36.0415 184.415 37.8928 185.067 38.4438C187.66 40.6477 184.822 41.0762 183.465 42.1023C185.941 44.2327 182.17 45.6652 182.88 47.8642L185.417 49.1302L184.438 50.5726C183.096 50.2077 183.083 48.1458 181.541 48.9417C177.924 52.7299 181.602 55.4358 182.843 58.225C184.185 58.5066 185.363 58.9302 186.553 58.9596C188.329 59.0062 190.29 59.4249 191.735 58.0732C192.886 57.0031 194.211 56.0235 195.065 54.7992C195.766 53.8196 196.361 52.4655 196.104 51.4296C195.944 50.7832 194.113 50.4183 192.942 49.8894C191.896 49.1155 191.103 48.2487 190.05 47.8299C188.955 47.3941 188.446 46.8945 188.694 45.9713C188.769 45.7788 188.886 45.6053 189.037 45.4631C189.187 45.321 189.366 45.2135 189.563 45.1485C190.606 44.8498 191.012 45.3934 191.441 46.1427C192.159 47.3965 193.542 47.8961 195.261 48.1213C194.421 43.5715 194.455 43.5176 199.892 40.775L200.237 38.2503L196.527 35.3461C195.477 36.0317 191.314 36.5484 189.587 36.2301" fill="#EA5837"/>
<path d="M139.919 45.9347C141.143 46.5249 143.271 46.0278 143.663 44.8671C144.013 43.8288 144.288 42.5823 143.908 41.6077C143.342 40.1385 145.818 40.0821 145.377 38.7696C144.976 37.5721 144.863 36.3208 144.547 34.6899C143.004 36.7934 139.735 37.8464 141.349 40.7262C140.418 41.5857 139.703 42.1514 139.125 42.8027C138.261 43.7822 138.702 45.3544 139.916 45.9347" fill="#EA5837"/>
<path d="M115.36 45.7949C115.181 47.1418 114.819 48.66 115.397 49.8232C115.85 50.739 117.454 51.5716 119.188 50.7782C119.107 49.3946 119.224 48.1996 118.899 47.105C118.7 46.439 117.919 45.7557 117.185 45.3909C116.79 45.1925 115.387 45.5941 115.358 45.8096" fill="#EA5837"/>
<path d="M127.393 68.4167C128.405 67.8829 129.499 67.2731 130.636 67.1262C133.525 66.754 136.459 66.5581 139.348 67.2634C140.622 65.772 139.919 64.2612 139.077 62.6817C141.437 61.7316 142.867 59.8827 145.715 59.7603C147.084 59.7015 147.429 58.6094 147.498 57.2748C147.662 53.7926 144.99 51.6989 142.664 49.162C140.705 50.0509 138.766 50.5505 136.973 48.9955L137.203 46.7402C134.828 49.6934 133.315 47.6731 131.532 47.1907C131.84 45.5329 132.369 44.0367 130.809 42.707L126.304 44.5167L122.361 42.8613L123.003 46.27C124.423 46.3508 125.474 46.4096 126.48 46.4683C127.293 48.5449 124.954 48.6722 124.07 49.6934L124.967 51.4785C127.513 51.0402 130.048 50.477 132.235 52.1324C132.438 52.2866 132.847 52.2548 133.197 52.2768L132.629 54.9362C130.64 53.7535 129.201 52.8988 127.445 51.8483L124.932 55.9696C126.647 57.4707 128.099 58.9081 130.675 57.8527C131.544 59.6501 132.634 61.1537 135.492 60.6957C136.283 60.5708 137.147 60.7594 137.982 60.8133L137.869 63.262C136.755 63.0882 135.967 62.9682 134.997 62.8164L134.933 64.7754C132.651 66.1124 130.741 64.364 128.598 64.7019C126.556 65.0227 124.396 64.8415 122.148 64.8831C122.915 65.9655 123.561 66.7687 124.078 67.6258C125.079 69.2909 125.562 69.3938 127.393 68.429" fill="#EA5837"/>
<path d="M133.182 43.9536C133.031 45.4229 133.249 46.3289 135.541 46.3461C135.261 44.9674 134.691 44.2646 133.182 43.9536Z" fill="#EA5837"/>
<path d="M206.42 48.3049C205.987 47.9229 205.605 47.4723 205.088 47.2005C204.941 47.1246 204.397 47.5678 203.741 47.9351C204.432 48.3661 204.828 48.7652 205.306 48.8509C205.617 48.9048 206.041 48.5008 206.42 48.3" fill="#EA5837"/>
<path d="M199.701 45.9394C199.701 45.6504 199.226 45.3566 198.966 45.0676L197.649 46.1794C198.28 46.5075 198.763 46.914 198.978 46.8332C199.331 46.7034 199.713 46.2553 199.713 45.9394" fill="#EA5837"/>
<path d="M177.659 37.0453C177.17 36.7882 176.614 36.345 176.124 36.3744C174.39 36.4797 173.746 35.5173 173.048 34.5231C172.737 34.0823 172.353 33.6783 172.003 33.2571C172.181 36.1589 169.309 36.9449 167.446 38.1546C168.055 41.1274 168.055 41.1274 173.957 43.5419C174.344 44.8471 173.656 46.5833 175.823 46.9261C176.604 47.0486 177.735 46.5858 178.396 46.0985C180.368 44.6537 178.886 43.1232 178.311 41.627C181.034 39.4231 181.722 39.117 177.659 37.0257" fill="#EA5837"/>
<path d="M168.317 48.0747C168.677 47.9425 168.952 47.6438 169.258 47.4087C168.983 47.252 168.719 46.9875 168.435 46.9728C168.151 46.9581 167.882 47.2054 167.497 47.3891C167.85 47.6927 168.207 48.1237 168.317 48.0747Z" fill="#EA5837"/>
<path d="M145.742 43.3118C147.383 45.3075 147.892 48.3171 152.013 48.1065C152.194 48.1065 152.454 48.3195 152.579 48.4836C153.745 50.0386 154.888 51.6058 156.269 53.4791C158.718 53.3664 160.692 50.2492 163.927 51.4442C166.015 49.2794 164.338 47.1049 164.196 45.5255L159.125 41.8866C158.199 41.9772 156.499 42.6898 155.527 40.9585C155.395 40.7136 154.548 40.5593 154.158 40.6573C151.928 41.2058 150.708 40.2165 149.633 38.5244C150.152 41.3674 146.244 41.3111 145.742 43.3118Z" fill="#EA5837"/>
<path d="M23.3225 40.9497C23.0972 39.6176 23.9934 37.95 21.8777 37.4284C21.1161 37.2398 19.9334 37.6072 19.2159 38.0357C17.0781 39.3091 18.3686 40.9546 18.758 42.49C15.7827 44.449 15.0579 44.7062 18.8486 47.1231C19.3139 47.4194 19.8036 47.9067 20.2958 47.9189C22.032 47.9581 22.556 48.9695 23.1315 50.0175C23.3764 50.4804 23.7192 50.9138 24.0179 51.3619C24.1918 48.4626 27.1377 47.9165 29.1481 46.8611C28.9032 43.8515 28.9032 43.8515 23.3225 40.9497Z" fill="#F2BF5E"/>
<path d="M30.2158 37.6782C29.9023 37.3476 29.5987 36.897 29.4811 36.9288C29.104 37.0292 28.7979 37.306 28.4648 37.5141C28.7097 37.6904 28.9546 37.9769 29.2313 38.0039C29.5081 38.0308 29.8068 37.8177 30.2109 37.6659" fill="#F2BF5E"/>
<path d="M77.4185 48.4505C78.4812 51.9008 78.4812 51.9008 80.8075 51.0462C78.513 50.9335 80.1048 48.2693 77.4185 48.4505Z" fill="#F2BF5E"/>
<path d="M81.9046 43.6017C82.245 42.2793 82.791 40.7954 82.3552 39.5906C82.0148 38.6429 80.521 37.6805 78.6992 38.327C78.6134 39.7105 78.3489 40.8884 78.5399 42.0148C78.655 42.6932 79.3432 43.4376 80.0337 43.8661C80.401 44.0963 81.8483 43.8147 81.9046 43.6017Z" fill="#F2BF5E"/>
<path d="M89.6548 38.4398C90.987 38.2268 92.5689 37.6587 93.328 36.8089C94.4422 35.5845 92.2089 35.3593 91.6579 34.5756C91.4914 34.3308 91.0947 34.2132 90.3723 33.7773L85.4968 37.9843C87.0469 38.1827 88.4206 38.6333 89.645 38.4398" fill="#F2BF5E"/>
<path d="M77.9573 33.0965C80.5873 35.0066 80.6779 32.1464 82.414 32.144L80.6069 29.9841L77.9573 33.0965Z" fill="#F2BF5E"/>
<path d="M39.2641 49.0037L40.5081 46.5549C39.1343 46.4055 38.1915 46.31 36.8667 46.1606C37.1116 47.6299 37.1116 48.8127 39.2641 49.0037Z" fill="#F2BF5E"/>
<path d="M51.3683 43.5454C49.9774 41.4248 49.8354 38.3883 45.7092 38.2536C45.528 38.2536 45.2978 38.0087 45.1949 37.8324C44.2154 36.1868 43.2726 34.5339 42.129 32.5528C39.6803 32.4622 37.3344 35.4008 34.2611 33.9413C31.9201 35.9224 33.3257 38.2242 33.2816 39.8184C35.0203 41.3439 36.2961 42.463 37.8853 43.8613C38.8183 43.849 40.5961 43.2809 41.3528 45.0857C41.4556 45.3306 42.2662 45.5754 42.68 45.4995C44.9672 45.1395 46.0593 46.2341 46.9238 47.9973C46.7523 45.1273 50.6336 45.5069 51.3756 43.5601" fill="#F2BF5E"/>
<path d="M57.4805 41.4199C56.3271 40.7318 54.1575 41.0501 53.6261 42.1692C53.1535 43.1756 52.7274 44.3927 52.9846 45.3918C53.369 46.9051 50.8982 46.7533 51.1773 48.0854C51.4222 49.3098 51.3928 50.5758 51.5079 52.2116C53.3004 50.2526 56.6797 49.4714 55.426 46.4741C56.4569 45.6954 57.2381 45.191 57.8895 44.591C58.869 43.6948 58.6241 42.0884 57.4829 41.4076" fill="#F2BF5E"/>
<path d="M74.59 45.938L74.3451 42.4925C72.942 42.2942 71.8963 42.1473 70.9168 42.0028C70.361 39.8699 72.7044 39.9311 73.706 38.9957L73.0325 37.1444C70.4442 37.3673 67.8534 37.7174 65.8797 35.8882C65.6936 35.7192 65.2822 35.7168 64.9394 35.6654L65.8258 33.0672L70.6107 36.569L73.6105 32.6754C72.0849 31.0396 70.8165 29.492 68.1253 30.3221C67.4763 28.4635 66.5898 26.8767 63.6758 27.0946C62.8726 27.1534 62.0352 26.8938 61.2124 26.7714L61.6213 24.3447C62.7085 24.6091 63.4799 24.7952 64.4276 25.0254L64.7263 23.0958C67.1604 21.9547 68.8476 23.8525 71.0197 23.6957C73.0913 23.5464 75.2169 23.9063 77.4624 24.0508C76.8306 22.9097 76.2845 22.0575 75.8756 21.1613C75.0798 19.4226 74.6096 19.2806 72.6726 20.0887C71.6 20.5344 70.4393 21.0486 69.2884 21.1C66.3695 21.2323 63.4113 21.1809 60.6344 20.2405C59.1872 21.6167 59.7015 23.1791 60.3504 24.8222C57.8869 25.5691 56.2364 27.2905 53.3885 27.1755C52.0196 27.1191 51.5372 28.177 51.3144 29.4993C50.7267 32.9497 53.1338 35.254 55.1394 37.9721C57.1964 37.2522 59.1872 36.9167 60.7716 38.6112L60.2818 40.8347C63.0049 38.0945 64.266 40.2323 65.9801 40.8592C65.4732 42.4827 64.7557 43.9275 66.1564 45.3796C67.8289 44.8727 69.4059 44.4001 70.8581 43.952L74.5802 45.9282" fill="#F2BF5E"/>
<path d="M61.8882 41.3757C61.9984 42.7715 62.4808 43.516 63.9452 43.9518C64.2733 42.512 64.1655 41.5814 61.8882 41.3757Z" fill="#F2BF5E"/>
<path d="M66.3304 50.8476C66.7565 50.0321 67.7752 49.0379 67.5254 48.3669C66.994 46.9344 65.2579 47.3336 63.2842 47.2797C64.5551 48.5628 63.507 50.4117 66.3304 50.8476Z" fill="#F2BF5E"/>
<path d="M6.87883 46.937C7.00862 47.4267 7.00616 47.9851 7.30001 48.4063C7.69427 48.967 8.29423 49.7898 8.8452 49.8119C9.45495 49.8363 10.4149 49.1825 10.6769 48.6438C11.2328 47.5027 12.222 45.7249 11.6417 45.12C9.32759 42.708 12.2074 42.5218 13.6791 41.6158C11.4752 39.2895 15.3932 38.1875 14.9598 35.9322L12.5894 34.4629L13.7354 33.1088C15.0259 33.5838 14.7884 35.6359 16.4291 34.9723C20.4867 31.5073 17.1637 28.5075 16.2601 25.6278C14.9598 25.2384 13.8383 24.7193 12.6555 24.5895C10.8973 24.3985 8.9946 23.8157 7.3931 25.0425C6.12953 26.022 4.69942 26.8791 3.69297 28.0104C2.87508 28.9385 2.11843 30.2143 2.25067 31.2795C2.33148 31.9358 4.10925 32.45 5.20875 33.0745C6.15642 33.9291 6.83963 34.8572 7.83628 35.3616C8.87456 35.8881 9.32026 36.4268 8.96274 37.3207C8.86143 37.5067 8.72168 37.6691 8.5528 37.797C8.38392 37.925 8.18978 38.0155 7.98323 38.0626C6.90822 38.2732 6.57031 37.6978 6.23483 36.9166C5.67161 35.6114 4.35661 34.9992 2.6743 34.6319C2.95591 39.2282 2.91919 39.2846 -2.82809 41.557L-3.47705 44.0425L-0.136887 47.2406C0.98955 46.6456 5.19407 46.4791 6.87393 46.937" fill="#F2BF5E"/>
<path d="M-2.00512 36.4439C-2.0443 36.7304 -1.6035 37.061 -1.37577 37.372C-0.97172 37.0953 -0.570145 36.8161 0.0689855 36.3754C-0.518721 35.9958 -0.949665 35.5501 -1.17495 35.6138C-1.53982 35.7142 -1.96594 36.128 -2.00512 36.4439Z" fill="#F2BF5E"/>
<path d="M228.212 40.5115C226.955 40.5801 226.292 42.2869 227.342 42.8084C228.378 43.2826 229.539 43.4113 230.653 43.1758C231.784 42.8697 232.673 41.9514 233.836 41.1776C233.577 40.9057 233.437 40.6241 233.283 40.6168C231.591 40.5458 229.889 40.4209 228.204 40.5115" fill="#F2BF5E"/>
<path d="M233.117 32.0828L231.067 35.369C232.673 35.729 233.78 35.9788 234.899 36.2285C236.026 34.4924 235.389 33.3929 233.124 32.0877" fill="#F2BF5E"/>
<path d="M237.647 41.9146C237.561 41.7089 237.172 41.5864 236.912 41.4248C236.75 41.6427 236.437 41.8754 236.469 42.0737C236.501 42.2721 236.873 42.4361 237.216 42.7153C237.424 42.3529 237.705 42.0811 237.647 41.9097" fill="#F2BF5E"/>
<path d="M209.18 49.447L210.629 50.5441L213.311 48.5655C210.862 47.6496 209.101 48.0169 209.18 49.447Z" fill="#F2BF5E"/>
<path d="M178.359 28.0692C178.173 27.5942 178.114 27.0383 177.764 26.6465C177.304 26.1224 176.606 25.3535 176.05 25.378C175.44 25.4049 174.566 26.1322 174.37 26.693C173.956 27.8758 173.187 29.727 173.839 30.278C176.432 32.4819 173.594 32.9104 172.237 33.9365C174.713 36.0669 170.942 37.4995 171.652 39.6985L174.189 40.9645L173.209 42.4068C171.868 42.0419 171.855 39.9801 170.313 40.7759C166.696 44.5642 170.374 47.2701 171.615 50.0592C172.957 50.3408 174.135 50.7645 175.325 50.7939C177.101 50.8404 179.062 51.2591 180.507 49.9074C181.658 48.8373 182.983 47.8578 183.837 46.6334C184.537 45.6539 185.133 44.2997 184.875 43.2639C184.716 42.6174 182.885 42.2525 181.714 41.7236C180.668 40.9498 179.875 40.0829 178.822 39.6642C177.727 39.2283 177.218 38.7287 177.465 37.8055C177.541 37.6131 177.658 37.4396 177.809 37.2974C177.959 37.1552 178.138 37.0478 178.335 36.9828C179.378 36.684 179.784 37.2276 180.213 37.977C180.93 39.2307 182.314 39.7303 184.033 39.9556C183.193 35.4057 183.227 35.3519 188.664 32.6092L189.009 30.0846L185.299 27.1803C184.249 27.866 180.086 28.3827 178.359 28.0643" fill="#F2BF5E"/>
<path d="M242.145 44.5616C242.39 46.0015 241.619 46.79 240.642 47.7671C239.417 48.9915 239.662 50.064 240.999 50.9676C242.468 51.9618 244.097 51.9912 245.289 50.8942C245.929 50.3089 246.301 49.5229 246.514 49.2192L244.134 43.205C242.956 42.8989 241.979 43.614 242.145 44.5665" fill="#F2BF5E"/>
<path d="M97.0477 43.4131C95.7499 43.7339 94.2439 44.4318 93.5828 45.3403C92.6228 46.6602 94.8708 46.6896 95.5148 47.4242C95.7083 47.6446 96.1172 47.7377 96.8911 48.1123L101.23 43.5184C99.6631 43.4499 98.2403 43.1168 97.0477 43.4131Z" fill="#F2BF5E"/>
<path d="M128.691 37.7689C129.915 38.3591 132.043 37.862 132.435 36.7013C132.785 35.663 133.059 34.4166 132.68 33.442C132.114 31.9727 134.59 31.9164 134.149 30.6038C133.748 29.4064 133.635 28.1551 133.319 26.5242C131.776 28.6277 128.507 29.6806 130.121 32.5604C129.19 33.4199 128.475 33.9856 127.897 34.637C127.033 35.6165 127.474 37.1886 128.688 37.7689" fill="#F2BF5E"/>
<path d="M104.132 37.6292C103.953 38.976 103.591 40.4942 104.169 41.6574C104.622 42.5732 106.226 43.4058 107.96 42.6124C107.879 41.2289 107.996 40.0339 107.671 38.9393C107.472 38.2732 106.691 37.59 105.956 37.2251C105.562 37.0268 104.159 37.4284 104.13 37.6439" fill="#F2BF5E"/>
<path d="M116.165 60.2507C117.177 59.7169 118.271 59.1071 119.408 58.9602C122.297 58.588 125.231 58.3921 128.12 59.0973C129.394 57.606 128.691 56.0951 127.849 54.5157C130.209 53.5656 131.639 51.7167 134.487 51.5943C135.856 51.5355 136.201 50.4434 136.27 49.1088C136.434 45.6266 133.762 43.5329 131.436 40.996C129.477 41.8849 127.538 42.3844 125.745 40.8295L125.975 38.5741C123.6 41.5274 122.087 39.5071 120.304 39.0247C120.612 37.3669 121.141 35.8707 119.581 34.541L115.076 36.3507L111.133 34.6953L111.775 38.104C113.195 38.1848 114.246 38.2436 115.252 38.3023C116.065 40.3789 113.726 40.5062 112.842 41.5274L113.739 43.3125C116.285 42.8742 118.82 42.311 121.007 43.9664C121.21 44.1206 121.619 44.0888 121.969 44.1108L121.401 46.7702C119.412 45.5874 117.973 44.7328 116.217 43.6823L113.704 47.8036C115.419 49.3047 116.871 50.7421 119.447 49.6867C120.316 51.4841 121.406 52.9876 124.264 52.5297C125.054 52.4048 125.919 52.5934 126.754 52.6473L126.641 55.096C125.527 54.9222 124.739 54.8022 123.769 54.6504L123.705 56.6094C121.423 57.9464 119.513 56.198 117.37 56.5359C115.328 56.8567 113.168 56.6755 110.92 56.7171C111.687 57.7995 112.333 58.6027 112.85 59.4598C113.851 61.1249 114.334 61.2278 116.165 60.263" fill="#F2BF5E"/>
<path d="M121.954 35.7878C121.803 37.2571 122.021 38.1632 124.313 38.1803C124.033 36.8016 123.463 36.0988 121.954 35.7878Z" fill="#F2BF5E"/>
<path d="M105.014 49.082L107.076 51.0827L109.333 47.7646C106.485 46.0823 106.74 48.9375 105.014 49.082Z" fill="#F2BF5E"/>
<path d="M195.192 40.1391C194.759 39.7571 194.377 39.3065 193.86 39.0347C193.713 38.9588 193.169 39.402 192.513 39.7693C193.204 40.2003 193.6 40.5995 194.078 40.6852C194.389 40.739 194.813 40.335 195.192 40.1342" fill="#F2BF5E"/>
<path d="M197.257 43.9766C196.424 42.9187 195.614 41.5278 193.873 42.2429L191.531 48.3477C193.505 48.0856 195.508 49.8169 197.186 48.0342C198.361 46.7878 198.288 45.294 197.257 43.9888" fill="#F2BF5E"/>
<path d="M188.473 37.7736C188.473 37.4847 187.998 37.1908 187.738 36.9019L186.421 38.0136C187.052 38.3417 187.535 38.7482 187.75 38.6674C188.103 38.5376 188.485 38.0895 188.485 37.7736" fill="#F2BF5E"/>
<path d="M185.375 46.5549C186.044 46.8904 186.67 47.2895 186.749 47.2283C187.169 46.8422 187.548 46.4148 187.883 45.9525C187.483 45.8007 187.006 45.4627 186.705 45.5436C186.261 45.666 185.943 46.097 185.375 46.5549Z" fill="#F2BF5E"/>
<path d="M166.431 28.8796C165.942 28.6224 165.386 28.1792 164.896 28.2086C163.162 28.3139 162.518 27.3515 161.82 26.3573C161.509 25.9165 161.125 25.5125 160.775 25.0913C160.953 27.9931 158.081 28.7792 156.218 29.9889C156.827 32.9617 156.827 32.9617 162.729 35.3762C163.116 36.6814 162.428 38.4175 164.595 38.7604C165.376 38.8828 166.507 38.42 167.168 37.9327C169.14 36.4879 167.658 34.9574 167.083 33.4612C169.806 31.2573 170.494 30.9512 166.431 28.86" fill="#F2BF5E"/>
<path d="M157.089 39.909C157.449 39.7767 157.724 39.478 158.03 39.2429C157.755 39.0862 157.491 38.8217 157.207 38.807C156.923 38.7923 156.654 39.0397 156.269 39.2233C156.622 39.527 156.979 39.9579 157.089 39.909Z" fill="#F2BF5E"/>
<path d="M149.684 52.8069C152.378 52.6305 154.792 52.6746 157.102 51.8984C158.532 51.4086 158.72 50.4854 158.277 49.3614C157.672 47.8236 156.423 46.7902 154.619 46.0017C151.986 47.6546 150.066 49.5818 149.684 52.8069Z" fill="#F2BF5E"/>
<path d="M134.514 35.146C136.155 37.1418 136.664 40.1513 140.786 39.9407C140.967 39.9407 141.226 40.1537 141.351 40.3178C142.517 41.8728 143.66 43.44 145.041 45.3133C147.49 45.2007 149.464 42.0834 152.699 43.2784C154.788 41.1137 153.11 38.9392 152.968 37.3597L147.897 33.7208C146.971 33.8114 145.272 34.524 144.299 32.7927C144.167 32.5478 143.32 32.3936 142.931 32.4915C140.7 33.0401 139.48 32.0507 138.405 30.3586C138.924 33.2017 135.016 33.1453 134.514 35.146Z" fill="#F2BF5E"/>
<g style="mix-blend-mode:darken">
<path d="M149.634 33.3054C149.639 33.304 149.644 33.304 149.649 33.3054L149.634 33.3054Z" fill="#693737"/>
<path d="M119.693 21.7766C119.687 21.7758 119.68 21.7758 119.674 21.7766L119.698 21.7618" fill="#693737"/>
<path d="M160.656 32.8623C158.658 32.8819 156.755 33.0019 156.219 35.0368C154.872 34.6842 153.616 34.3536 152.399 34.0328L151.752 34.6156C152.487 35.2302 152.964 36.0016 152.683 37.1942C149.343 36.5575 149.335 36.555 149.649 33.3129C150.089 33.5577 150.54 33.8026 150.964 34.0475C151.084 33.9446 151.209 33.8442 151.329 33.7414C150.763 33.5945 150.205 33.4475 149.649 33.3006L149.649 33.2859C149.703 33.1978 149.793 33.1121 149.798 33.0214C149.788 32.9271 149.75 32.8378 149.69 32.7643C148.625 33.0092 146.83 33.0655 146.634 33.5602C145.743 35.7837 143.561 35.5192 141.614 35.7641C140.495 37.1036 139.07 37.8284 136.984 37.5443C135.436 37.3313 133.857 37.2823 131.841 37.1256C131.707 36.7216 131.133 35.9306 131.285 35.2498C131.589 33.8932 132.289 32.5954 132.826 31.273C132.292 31.4322 131.413 31.8411 131.278 31.7138C128.717 29.2846 125.352 30.7955 122.394 30.0633C121.309 32.779 122.624 36.5526 117.273 36.4008C114.09 34.9486 114.188 32.7839 115.18 30.6461C118.351 28.9834 121.265 27.4627 124.181 25.9225L123.892 25.4719C122.093 25.7168 120.295 25.9616 117.905 26.2996C118.579 24.5854 119.13 23.1774 119.681 21.7767C121.608 21.3873 123.535 20.9955 125.761 20.5523L125.232 22.7905L133.952 26.8701C134.386 25.3494 135.333 24.1985 137.625 24.1765C138.989 25.2368 139.702 26.4195 139.063 27.9696C138.213 28.0774 137.405 28.1827 136.479 28.3027L137.679 30.0168C138.659 29.6348 139.601 29.0104 140.618 28.9124C144.332 28.5549 148.072 28.3761 152.46 28.0847L150.303 24.7054C151.542 23.0868 153.577 23.0182 155.81 22.7464L155.824 26.2971C156.694 26.5616 157.563 26.826 158.42 27.0856C160.205 24.8278 158.993 23.2998 157.345 21.882C155.462 20.2633 155.09 18.9434 156.366 17.6138C156.767 17.2249 157.292 16.9884 157.85 16.9452C159.809 16.9183 162.387 20.0527 161.422 21.4608C160.835 22.3178 160.744 22.93 160.82 23.9095C160.94 25.4645 160.82 27.1566 158.768 28.261C157.874 28.7508 157.49 29.8723 156.988 30.558C158.567 32.637 160.524 31.4934 162.191 31.4224C162.811 32.9553 161.618 32.8623 160.658 32.8721" fill="#693737"/>
<path d="M112.273 13.1767C113.319 13.0323 113.911 12.9514 114.477 12.8755C114.181 13.4902 113.794 13.9848 112.273 13.1767Z" fill="#693737"/>
<path d="M114.524 12.7698L114.578 12.8607L114.47 12.8755L114.524 12.7698Z" fill="#693737"/>
<path d="M118.804 19.7686C117.489 20.1457 116.786 22.1512 114.805 20.9317C113.6 20.1971 112.373 19.4625 110.929 18.6103C112.378 18.0104 113.431 17.7777 114.112 17.2317C114.793 16.6856 115.182 15.804 115.826 14.8808L114.563 12.8679C114.577 12.8669 114.592 12.8669 114.607 12.8679C116.566 11.7831 116.948 13.4605 117.501 14.2025C118.353 15.3461 119.066 15.5542 120.413 14.8074C121.336 14.298 122.436 14.0042 123.777 13.4924C123.555 15.7526 119.656 16.6292 121.907 18.8307C122.629 18.9335 123.197 19.0144 124.013 19.1295L119.678 21.7888C120.168 20.9171 119.972 20.2485 118.789 19.7735" fill="#693737"/>
<path d="M108.022 18.7328L109.05 17.4007C109.388 17.6456 109.724 17.8905 110.062 18.1182L108.627 19.1663L108.022 18.7328Z" fill="#693737"/>
<path d="M96.1553 47.7041L94.9309 50.366C94.1105 49.3154 94.064 48.4902 96.1553 47.7041Z" fill="#693737"/>
<path d="M99.5567 55.9348C98.8637 55.5038 98.3005 55.1047 97.6834 54.779C95.0363 53.3758 95.0265 53.1334 96.317 50.7801C97.2965 49.0097 98.9445 47.3739 97.9699 44.7806C100.742 47.0996 101.217 42.8216 103.394 44.1219C103.394 44.3203 103.485 44.5554 103.382 44.6851C101.785 46.7397 101.79 46.7397 104.4 47.7045C104.77 47.8508 105.089 48.0998 105.321 48.422C106.031 49.4333 106.673 50.474 107.398 51.5907L106.418 54.2403C104.141 54.8035 101.851 55.3716 99.5616 55.9348" fill="#693737"/>
<path d="M154.605 13.8353C152.622 13.9455 150.849 12.9293 150.854 11.6877C150.854 10.003 153.268 7.67419 155.002 7.6693C156.736 7.6644 157.581 8.70268 157.652 11.0192C157.703 12.6795 156.572 13.7251 154.605 13.8353Z" fill="#693737"/>
<path d="M127.078 18.0544L123.405 16.4089C125.568 15.8383 126.846 15.6522 127.078 18.0544Z" fill="#693737"/>
<path d="M145.285 18.3753C145.496 18.0056 146.042 17.768 146.451 17.4766C146.71 17.7509 147.242 18.0815 147.185 18.2823C147.056 18.6765 146.598 18.9973 146.074 19.5679C145.675 18.9875 145.185 18.5639 145.292 18.3753" fill="#693737"/>
<path d="M133.935 19.7687L134.001 19.279C135.123 19.3769 136.244 19.4741 137.366 19.5704L137.292 20.1091C136.174 19.9965 135.055 19.883 133.935 19.7687Z" fill="#693737"/>
<path d="M153.542 21.0716C153.432 21.2748 152.994 21.3556 152.44 21.6226L151.863 19.5313C153.643 19.4407 154.184 19.9011 153.542 21.0716Z" fill="#693737"/>
<path d="M175.669 21.6225C176.967 20.9907 177.893 20.5425 179.223 19.9083C178.544 22.2518 178.544 22.2518 175.669 21.6225Z" fill="#693737"/>
<path d="M136.014 41.3596C136.113 41.2393 136.237 41.1414 136.376 41.0722C136.516 41.003 136.669 40.9641 136.825 40.958C137.047 40.958 137.27 41.2567 137.728 41.5996C137.265 41.7763 136.79 41.9171 136.305 42.0208C136.244 42.0208 135.923 41.5163 136.014 41.3596Z" fill="#693737"/>
<path d="M125.014 41.5065C125.105 39.7581 123.508 39.0112 122.093 37.9093C124.576 38.0978 127.056 38.2864 129.655 38.4823C129.258 40.5931 127.992 41.7342 125.014 41.5065Z" fill="#693737"/>
<path d="M123.371 43.0518L123.236 43.5146C122.617 43.4534 121.995 43.3898 121.375 43.3285L121.62 42.5327L123.373 43.0518" fill="#693737"/>
<path d="M74.9195 42.1285C73.8568 42.6477 73.1564 43.9431 71.5598 43.037C72.6299 41.8812 72.6299 41.8812 74.9195 42.1285Z" fill="#693737"/>
<path d="M114.553 42.1481C114.693 40.5123 115.476 40.0029 117.536 40.8306C116.838 42.2289 116.174 43.0125 114.553 42.1481Z" fill="#693737"/>
<path d="M112.18 39.6898C111.978 39.9747 111.746 40.2367 111.487 40.4709L111.147 39.2466C111.37 39.2319 111.595 39.2196 111.82 39.2074C111.95 39.369 112.232 39.5894 112.18 39.6824" fill="#693737"/>
<path d="M87.3545 37.8504C87.7242 37.4513 88.9952 37.1158 89.387 37.324C91.0497 38.23 90.1412 39.1312 88.9658 40.1694C87.7145 39.5083 86.1276 39.1777 87.3545 37.8504Z" fill="#693737"/>
<path d="M20.2114 31.0113C20.5591 29.8408 20.7795 29.1013 20.9778 28.3519C20.2065 27.9332 18.7005 29.1257 18.2842 27.3724C19.3445 27.7569 20.1796 28.0605 21.0146 28.3519C22.0847 28.0581 23.1548 27.7618 24.1 27.5022L26.419 30.1959C24.5359 31.91 22.4079 30.2889 20.2114 31.004" fill="#693737"/>
<path d="M15.4535 44.4034C14.9956 44.6091 14.643 44.8564 14.2511 44.8931C14.0822 44.9152 13.8397 44.5307 13.6292 44.3324L14.8535 43.5512C15.0176 43.7789 15.1841 44.0042 15.4608 44.3911" fill="#693737"/>
<path d="M14.2805 34.2678C14.7703 34.0646 15.2429 33.8589 15.7228 33.6532L15.9677 34.2776C15.4437 34.3789 14.918 34.4809 14.3907 34.5837L14.2854 34.2678" fill="#693737"/>
<path d="M20.8188 40.7059C20.8188 40.652 21.3967 40.5565 21.7053 40.4806L22.0628 42.1457C21.7567 42.2021 21.453 42.2559 21.1469 42.3123C21.0043 41.7841 20.8947 41.2476 20.8188 40.7059Z" fill="#693737"/>
<path d="M24.918 37.9875C21.933 37.9655 21.5705 37.7427 21.4187 35.6318L24.918 37.9875Z" fill="#693737"/>
<path d="M34.4242 43.4287L31.1306 40.0274C33.5622 40.4339 34.1695 41.4036 34.4242 43.4287Z" fill="#693737"/>
<path d="M24.9205 24.784C25.0943 24.4093 25.6232 24.1424 26.0028 23.8314C26.304 24.113 26.8941 24.4436 26.8403 24.664C26.7448 25.0607 26.2575 25.3986 25.7139 25.9888C25.3 25.3937 24.8201 25.0093 24.9205 24.784Z" fill="#693737"/>
<path d="M29.0002 51.5806C29.0834 54 26.7963 53.4906 25.1311 53.7845C25.0625 54.3893 24.9793 54.8938 24.9524 55.4007C24.7638 59.211 23.0203 60.1538 18.85 58.6869C16.1001 57.7197 15.8821 56.7279 16.0266 53.9069C16.1074 52.3324 17.4958 51.4582 17.7236 49.9889C18.9259 50.2019 19.8002 50.3562 20.7527 50.5276C20.4907 46.1565 21.5926 44.7118 25.5572 44.0384C25.9931 44.3298 26.5367 44.5967 26.9359 44.9762C28.3611 46.3647 29.9969 47.6699 31.0498 49.242C32.0538 50.7382 28.9659 50.5252 29.0002 51.5781" fill="#693737"/>
<path d="M23.2089 25.7659L20.4956 24.3113C22.8366 23.1016 22.8709 23.1163 23.2089 25.7659Z" fill="#693737"/>
<path d="M4.46842 36.893C2.60246 36.1975 3.41787 35.1519 4.12801 33.9765C5.57279 34.1479 7.05188 34.2214 7.03964 35.8939C7.03964 36.702 5.54344 37.2946 4.46842 36.893Z" fill="#693737"/>
<path d="M80.7966 43.7055C80.5114 43.6728 80.2414 43.5599 80.0179 43.3798C79.9297 43.2843 80.1599 42.9929 80.5909 41.9791C80.9141 42.7529 81.0807 43.0027 81.1027 43.2622C81.1027 43.4116 80.8578 43.7177 80.7966 43.7055Z" fill="#693737"/>
<path d="M66.8656 43.8696C66.7211 44.2026 66.5375 44.8344 66.6574 44.8883C69.1209 45.978 67.97 48.0864 69.2923 49.9768C68.3128 49.563 67.9063 49.4871 67.6859 49.2814C64.9066 46.6391 63.1875 43.3431 59.9576 40.9555C58.7332 40.0397 59.0467 38.6463 60.3641 37.684C62.1738 36.3616 64.052 35.1005 65.8739 33.832C68.7095 35.9845 73.0757 34.3365 75.4902 37.3313C73.0414 38.6047 70.649 40.025 68.0655 41.1073C66.3514 41.8248 67.2672 42.9684 66.8656 43.8769" fill="#693737"/>
<path d="M55.5964 52.7462C53.7843 52.6311 52.3151 50.9929 53.275 49.4305C53.9068 48.4021 52.5012 48.1033 53.275 47.0552C55.1385 46.9181 57.0559 46.7785 58.9512 46.6389C59.1129 47.8903 59.3528 48.9016 59.3455 49.913C59.3308 51.9112 57.9619 52.8956 55.5964 52.7462Z" fill="#693737"/>
<path d="M41.9494 32.7475C43.5999 32.9703 44.2611 33.4184 43.7738 34.7285C42.3437 34.6991 41.7241 34.251 41.9494 32.7475Z" fill="#693737"/>
<path d="M44.1384 50.0284C45.6616 48.8848 47.0769 48.4073 48.3479 49.8325C48.6123 50.1312 48.1936 51.1891 47.7112 51.5295C46.3521 52.4845 45.882 52.2641 44.1384 50.0284Z" fill="#693737"/>
<path d="M8.40351 32.3651C8.38882 30.9791 9.21647 30.8273 10.3919 31.3856L10.409 35.7249C9.76012 35.6465 9.09159 35.5632 8.67529 35.5118C8.56755 34.3168 8.41576 33.3446 8.40351 32.37" fill="#693737"/>
<path d="M222.593 44.5012C224.434 44.4816 226.33 44.4645 228.154 44.4474L229.344 46.4749L226.988 50.2559C222.767 49.9277 221.946 48.8699 222.595 44.4914" fill="#693737"/>
<path d="M214.049 45.334C214.226 44.9741 214.747 44.7267 215.124 44.4329C215.369 44.7586 215.793 45.0794 215.805 45.4124C215.805 45.6842 215.335 45.9683 214.875 46.4531C214.463 45.9242 213.956 45.5324 214.049 45.3389" fill="#693737"/>
<path d="M133.411 48.3141C133.57 48.5345 133.864 48.7598 133.857 48.9753C133.857 49.2202 133.563 49.6854 133.409 49.683C132.588 49.6683 131.538 49.7613 131.011 49.3867C130.485 49.012 130.377 48.1109 129.995 47.2195C132.054 47.0897 131.626 49.4087 133.423 48.3141" fill="#693737"/>
<path d="M120.925 50.4471C118.998 50.4667 117.313 50.8046 116.199 52.0217C116.755 52.4575 117.257 53.4469 118.248 55.4059C116.833 55.832 115.596 56.2066 114.073 56.667L113.902 54.1007C113.41 54.1953 112.945 54.3931 112.535 54.681L112.325 53.9195C112.814 53.4444 113.304 52.9571 113.794 52.4747L113.762 51.9727C114.007 51.9188 114.24 51.8723 114.448 51.8331C115.07 51.2209 115.726 50.6332 116.385 50.0504C113.936 50.5402 113.833 50.4324 113.067 49.115C114.164 49.328 115.271 49.5435 116.647 49.8129C116.813 49.6684 116.96 49.5117 117.137 49.3721C118.334 48.3926 119.585 48.7648 120.932 50.4471" fill="#693737"/>
<path d="M139.567 44.9911C138.49 45.4809 137.415 45.9706 135.774 46.7297L135.728 43.5463C137.358 43.8328 138.455 44.0361 139.552 44.2173L139.567 44.9911Z" fill="#693737"/>
</g>
</g>
</g>
</svg>
