<svg width="784" height="680" viewBox="0 0 784 680" fill="none" xmlns="http://www.w3.org/2000/svg">
<path d="M509.707 679.373C519.143 675.887 543.263 681.552 551.718 676.799L547.098 677.779C539.505 676.463 557.935 674.477 561.056 673.32C567.318 676.415 561.482 675.685 568.947 678.531L560.098 677.453L562.046 680C590.388 673.445 614.81 682.997 632.458 678.231C631.382 678.479 631.659 678.896 630.502 679.139C642.227 680.584 650.469 677.344 659.094 676.477C660.086 677.751 653.952 678.541 649.434 679.534C670.06 680.528 704.714 677.057 727.458 679.088C735.476 677.369 724.427 676.789 732.772 675.489C739.793 675.965 744.77 677.346 736.125 678.221C740.635 678.95 746.492 679.236 753.205 679.28C756.563 679.3 760.133 679.261 763.859 679.185C769.812 679.086 776.008 678.978 782.353 678.877L782.174 662.974L782.085 657.166L782 652.711C781.894 646.761 781.808 640.778 781.777 634.888C781.715 623.108 781.87 611.697 782.511 601.661C780.964 582.127 780.29 594.326 779.265 564.364C780.258 571.381 782.656 557.261 782.774 575.127L783.861 577.238C784.069 547.46 784.466 507.72 781.392 491.465C783.658 490.53 781.83 486.054 783.048 474.821C782.794 470.245 782.71 475.234 782.556 477.079C780.62 466.141 782.634 460.568 782.331 452.742L782.729 455.52L781.323 434.123C781.615 430.561 782.049 425.203 782.742 424.45L781.162 424.576C781.15 413.068 783.176 419.004 782.764 404.677L781.581 407.7C782.311 398.62 780.669 384.082 782.389 382.184C782.727 381.798 782.585 383.589 782.639 386.815C785.037 372.591 781.857 350.011 782.968 332.407L780.414 336.9C779.606 319.771 780.939 326.429 781.831 327.073C781.814 315.604 782.647 313.08 782.928 297.973C782.277 290.523 781.987 294.085 781.238 291.672L781.858 276.26L782.872 283.428C779.844 259.785 783.548 226.081 780.261 210.869C780.988 201.861 781.796 218.918 782.228 213.552C783.871 185.437 779.792 150.747 781.683 127.309C782.546 109.331 782.607 90.0842 782.558 70.3255L782.492 40.4006L782.56 25.3226L782.783 1.18877C779.109 1.11172 775.455 1.03674 771.819 0.963815C772.139 1.24655 772.44 1.52723 772.725 1.80996L767.213 1.72535L764.036 1.64074L757.931 1.46944L745.719 1.12892C739.129 3.02553 722.526 2.14636 712.217 4.3546C713.061 3.68181 710.885 2.65199 713.23 2.16081C702.828 2.42497 691.547 3.3578 685.39 2.2124L688.864 1.48388C665.865 0.969997 633.92 0.914272 621.852 2.51577C613.989 2.72214 614.182 1.19288 612.088 0.163055C598.788 0.0722475 590.074 0.932846 579.138 2.28669C576.248 1.92965 573.281 1.57262 570.025 0.792506L564.966 2.85629C559.4 2.5653 563.68 1.1578 559.283 0.621211C538.543 3.09775 514.336 0.8895 499.782 1.03396L501.867 2.06586C495.836 2.86867 484.138 1.42608 491.308 0.385935C462.502 -0.852337 448.577 3.62401 409.64 3.08536C404.216 -0.670728 374.544 4.18329 368.807 0C352.359 1.0711 341.771 -0.619137 330.299 1.84089C329.961 1.41575 328.53 1.23827 331.144 1.16603C324.63 -0.396251 302.95 0.798677 286.461 1.85533L285.536 0.58817C279.589 3.32681 251.1 2.53225 245.15 5.27502C243.334 4.67033 248.29 4.11311 250.606 3.62399C241.989 1.03188 235.568 4.86226 224.479 4.28234C225.324 3.61161 222.06 2.83769 224.376 2.33826C187.578 -0.627403 134.158 4.40203 86.154 2.35888C72.7948 2.25569 90.9935 5.2585 73.5552 5.0418C68.5231 3.65081 82.0952 2.23506 71.0206 1.64481C62.9874 3.35982 60.0541 3.00278 49.319 2.83974C51.2741 1.92755 49.5133 1.3208 57.0463 0.695472C50.855 -0.43961 30.7469 2.88101 18.4116 0.600533C18.7208 1.01329 18.3102 1.35588 17.5346 1.64481C17.342 1.71704 17.1257 1.78721 16.8925 1.85119C16.4785 1.9131 16.0358 1.97914 15.5729 2.05757C14.6621 2.1752 13.6735 2.30109 12.68 2.42904C9.28355 2.69115 5.9057 2.86863 2.47549 2.97595C2.6546 11.6438 2.60227 22.4023 2.43836 25.9913C2.26938 31.1321 1.99557 36.0501 1.72689 40.3738C1.18786 49.0189 0.681003 55.2846 1.16427 56.2112C1.16427 56.2112 1.4718 64.0536 1.70668 57.2431C1.66613 65.4735 1.33994 77.3072 0.248355 75.2517C0.846529 79.5464 1.78941 83.317 1.89587 89.8158L0.608336 86.3074C0.883767 90.047 1.69648 94.3561 1.85363 98.0317L2.63093 92.2016C1.563 101.623 4.1416 120.083 1.683 119.534L1.62557 116.335L0.517081 133.95C1.51066 140.998 2.50424 148.124 2.16798 159.925C-0.383558 164.481 1.6171 190.068 1.34504 205.121L0.457921 204.449C1.6982 216.233 1.1423 246.368 1.58333 240.912C1.59684 252.353 0.974963 267.832 0.180776 262.14C0.687703 271.443 0.658993 291.134 2.14091 296.023L0 314.745C3.16492 325.983 -1.14226 352.166 2.21022 353.285C1.68639 363.713 0.942898 361.294 0.351482 368.524C1.99731 383.038 1.72018 398.048 1.44644 413.153L1.09661 413.549C0.822867 428.629 2.51434 446.343 2.69008 467.486L0.133493 471.954C0.495102 483.033 2.47046 485.74 1.9348 496.247C1.54278 498.693 1.40921 496.375 1.26896 493.564C1.77589 503.883 1.12879 517.857 0.498506 525.66C2.34034 541.605 1.66269 553.851 3.64816 567.924C1.40078 580.33 2.64619 549.408 0.537367 560.051C-0.664053 582.719 0.594761 605.867 1.70493 630.822C1.21997 632.964 0.821198 630.178 0.278785 629.138C0.278785 629.138 6.42275 679.777 8.85431 670.339C9.33927 672.151 9.76678 674.027 10.1639 675.272L8.36933 675.317L10.8483 676.762L24.0537 674.915L11.6356 675.226C11.8536 674.217 12.075 672.645 12.3014 670.331H345.74C338.136 671.103 330.211 672.092 319.817 672.236L323.197 671.505L303.182 671.357L304.321 671.113L288.17 672.595L288.656 671.51C284.926 671.813 284.055 672.492 278.844 672.622L280.517 671.281C275.388 673.359 256.325 674.483 247.014 674.5L245.238 673.899L223.325 676.613C211.646 675.169 238.237 673.423 215.061 674.436L221.009 671.697C204.533 672.764 202.083 671.301 190.826 672.234C195.911 673.623 203.716 673.427 197.938 674.647C184.988 671.514 177.268 675.451 164.846 676.727C171.152 676.667 175.419 676.698 179.716 675.109C186.382 675.158 182.117 676.553 186.208 676.684L195.662 675.144L198.351 677.022L214.549 675.532C213.535 677.724 229.429 675.811 223.109 678.128C234.417 677.197 240.89 678.766 251.2 676.556C258.852 677.878 239.101 678.159 247.235 678.382C292.445 676.605 339.18 676.937 386.265 677.703L381.693 678.688C386.265 677.703 392.315 676.902 395.735 676.161C403.726 677.916 434.582 680.165 445.441 676.863C446.946 677.047 444.596 677.534 443.459 677.781C459.143 677.387 487.392 679.703 509.711 679.362L509.707 679.373ZM479.317 674.069C479.927 672.731 480.126 671.489 482.021 670.331H584.082C567.632 670.789 553.851 672.189 531.024 670.389C513.667 672.123 491.338 672.463 479.309 674.069H479.317ZM642.059 670.331C639.898 670.913 636.547 671.252 629.77 670.936L630.052 670.331H642.059ZM468.626 670.331C465.321 670.802 462.19 670.975 458.781 670.331H468.626ZM630.833 674.153C617.315 672.114 619.042 676.178 602.614 673.78C606.412 673.557 611.367 671.881 614.063 671.002C609.545 670.663 605.39 670.453 601.49 670.331H623.389L620.485 670.95C625.789 672.762 642.62 672.125 630.829 674.151L630.833 674.153ZM654.655 670.521C654.301 670.482 653.95 670.418 653.602 670.329H687.958C678.496 671.122 668.298 671.545 654.67 670.521H654.655ZM775.424 532.962V527.274C775.703 528.595 775.985 530.023 776.269 531.653C775.942 532.376 775.67 532.797 775.424 532.962ZM776.198 389.18C776.302 395.609 776.608 403.49 776.367 410.274C775.998 405.857 775.691 403.775 775.429 403.269V385.23C775.843 386.493 776.101 387.824 776.194 389.18H776.198ZM775.424 253.759V246.515C775.705 248.608 776.085 250.679 776.563 252.719C776.214 255.922 775.822 255.554 775.424 253.75V253.759ZM365.285 670.333H373.665C374.282 671.12 377.703 672.455 369.131 672.511C367.676 672.333 367.342 671.908 365.863 671.732L361.301 672.711C357.714 671.982 362.548 671.163 365.282 670.333H365.285ZM410.963 673.404C395.013 674.49 387.661 671.6 380.716 670.333H453.805C443.584 672.521 414.648 671.924 411.392 675.775C410.784 674.925 395.426 675.747 410.968 673.404" fill="#F4F4F4"/>
</svg>
