<svg width="230" height="224" viewBox="0 0 230 224" fill="none" xmlns="http://www.w3.org/2000/svg">
<path d="M126.719 121.691C159.813 88.1758 180.398 54.8418 172.697 47.2377C164.997 39.6336 131.926 60.6389 98.8313 94.1543C65.7371 127.67 45.1518 161.004 52.8527 168.608C60.5536 176.212 93.6246 155.207 126.719 121.691Z" stroke="#BD1622" stroke-width="5" stroke-miterlimit="10"/>
<path d="M137.929 110.529C137.723 67.2552 128.008 32.2207 116.228 32.2767C104.449 32.3327 95.0662 67.458 95.2719 110.731C95.4776 154.005 105.193 189.039 116.973 188.983C128.752 188.927 138.135 153.802 137.929 110.529Z" stroke="#648C7D" stroke-width="5" stroke-miterlimit="10"/>
<path d="M194.086 105.487C193.526 93.7936 157.814 86.0026 114.321 88.0859C70.8285 90.1691 36.0248 101.338 36.5849 113.032C37.145 124.725 72.8569 132.516 116.35 130.433C159.842 128.35 194.646 117.181 194.086 105.487Z" stroke="#EA5837" stroke-width="5" stroke-miterlimit="10"/>
</svg>
