<svg width="442" height="915" viewBox="0 0 442 915" fill="none" xmlns="http://www.w3.org/2000/svg">
<g style="mix-blend-mode:hard-light">
<mask id="mask0" mask-type="alpha" maskUnits="userSpaceOnUse" x="0" y="0" width="442" height="915">
<rect x="441.002" y="915" width="441" height="915" transform="rotate(-180 441.002 915)" fill="#C4C4C4"/>
</mask>
<g mask="url(#mask0)">
<path d="M386.471 822.019L373.669 838.755C383.906 844.643 383.906 844.643 396.256 838.303L386.483 822.019" fill="#EA5837"/>
<path d="M362.223 808.422C379.435 803.12 379.435 803.121 375.172 791.515C374.61 802.962 361.319 795.021 362.223 808.422Z" fill="#EA5837"/>
<path d="M338.035 786.043C331.438 784.345 324.036 781.621 318.025 783.795C313.298 785.493 308.497 792.945 311.722 802.034C318.624 802.461 324.5 803.781 330.119 802.828C333.503 802.254 337.217 798.821 339.354 795.376C340.503 793.544 339.098 786.324 338.035 786.043Z" fill="#EA5837"/>
<path d="M312.285 747.379C311.222 740.734 308.388 732.842 304.149 729.056C298.041 723.497 296.917 734.638 293.008 737.387C291.786 738.218 291.2 740.197 289.025 743.8L310.012 768.122C311.002 760.389 313.25 753.536 312.285 747.428" fill="#EA5837"/>
<path d="M285.629 805.735C295.157 792.615 280.889 792.163 280.877 783.502L270.103 792.517L285.629 805.735Z" fill="#EA5837"/>
<path d="M327.151 907.885C323.718 913.639 325.306 924.462 330.889 927.113C335.91 929.471 341.981 931.596 346.965 930.313C354.515 928.396 353.757 940.722 360.403 939.329C366.511 938.107 372.827 938.254 380.987 937.68C371.214 928.738 367.317 911.88 352.365 918.134C348.48 912.991 345.964 909.094 342.971 905.845C338.5 900.958 330.486 902.18 327.09 907.873" fill="#EA5837"/>
<path d="M402.023 866.742C402.756 868.855 406.555 869.417 410.928 871.714L408.485 856.016C402.377 857.592 400.129 861.428 401.974 866.742" fill="#EA5837"/>
<path d="M349.689 822.532L332.501 823.754C331.512 830.753 330.779 835.97 330.058 840.856C319.418 843.629 319.723 831.938 315.057 826.942L305.822 830.302C306.933 843.214 308.68 856.138 299.555 865.984C298.712 866.913 298.7 868.965 298.443 870.675L285.482 866.253L302.951 842.383L283.527 827.418C275.367 835.029 267.647 841.357 271.788 854.782C262.516 858.019 254.6 862.442 255.687 876.979C255.98 880.985 254.686 885.163 254.075 889.268L241.969 887.228C243.288 881.804 244.216 877.956 245.365 873.228L235.739 871.738C230.046 859.595 239.513 851.179 238.732 840.343C237.986 830.008 239.782 819.405 240.503 808.203C234.81 811.354 230.559 814.079 226.088 816.119C217.415 820.089 216.706 822.434 220.737 832.097C222.961 837.448 225.526 843.238 225.783 848.979C226.442 863.541 226.186 878.298 221.495 892.151C228.36 899.37 236.154 896.805 244.351 893.568C248.077 905.857 256.665 914.091 256.09 928.298C255.809 935.127 261.087 937.533 267.683 938.645C284.896 941.577 296.391 929.568 309.951 919.563C306.359 909.302 304.685 899.37 313.139 891.467L324.231 893.91C310.561 880.326 321.226 874.034 324.353 865.483C332.452 868.012 339.66 871.591 346.904 864.604C344.375 856.26 342.017 848.393 339.782 841.149L349.64 822.581" fill="#EA5837"/>
<path d="M385.995 884.833C388.34 883.954 389.977 880.374 391.944 878.017L390.405 875.427L380.033 877.589C379.007 884.491 382.183 886.299 386.031 884.858" fill="#EA5837"/>
<path d="M326.931 885.897C333.894 885.347 337.607 882.94 339.782 875.635C332.599 873.998 327.957 874.536 326.931 885.897Z" fill="#EA5837"/>
<path d="M374.182 863.736C370.114 861.611 365.154 856.529 361.807 857.775C354.661 860.426 356.652 869.087 356.383 878.933C362.785 872.593 372.008 877.821 374.182 863.736Z" fill="#EA5837"/>
<path d="M428.897 802.18C423.571 797.734 417.353 794.252 413.016 788.62C403.806 776.563 404.233 776.123 394.692 787.008C392.884 789.072 390.893 790.905 389.085 792.749C391.797 801.508 391.932 812.295 403.109 809.852C404.331 818.293 405.308 825.732 406.847 836.886C408.961 827.724 410.182 822.41 411.868 815.117L425.477 831.144C426.845 819.209 427.822 810.768 428.799 802.168" fill="#EA5837"/>
<path d="M444.778 790.196C446.977 789.928 449.066 788.389 451.18 787.204L440.576 781.315C442.922 786.422 444.009 790.282 444.778 790.196Z" fill="#EA5837"/>
<path d="M322.619 56.1757C322.961 62.4425 331.476 65.7531 334.078 60.5124C336.443 55.3458 337.085 49.5559 335.91 43.9964C334.383 38.3527 329.802 33.9183 325.942 28.1157C324.586 29.4106 323.181 30.1069 323.144 30.8765C322.79 39.3177 322.167 47.8078 322.619 56.2124" fill="#EA5837"/>
<path d="M280.571 31.7068L296.965 41.9317C298.76 33.918 300.006 28.3965 301.252 22.8138C292.591 17.1945 287.106 20.3706 280.595 31.6704" fill="#EA5837"/>
<path d="M329.618 9.10749C328.592 9.53505 327.981 11.4774 327.175 12.7723C328.262 13.5785 329.423 15.1422 330.412 14.9834C331.402 14.8246 332.22 12.9677 333.613 11.2575C331.805 10.2192 330.449 8.81431 329.594 9.10749" fill="#EA5837"/>
<path d="M417.096 26.9673C416.327 20.4318 422.862 11.8072 414.25 8.21572C412.271 7.39725 406.921 11.1843 406.383 13.8229C404.551 22.7162 411.734 23.8156 417.096 26.9673Z" fill="#EA5837"/>
<path d="M387.705 93.2386L385.36 94.4602C386.091 96.2705 386.936 98.0331 387.888 99.7376C388.047 99.9941 389.464 99.1145 390.332 98.748L387.705 93.2386Z" fill="#EA5837"/>
<path d="M405.932 49.8847C406.995 49.2128 406.873 45.7802 407.288 43.6058L396.856 40.9425C396.599 42.6405 396.33 44.3265 396.074 46.0245C398.419 50.1902 401.595 52.6455 405.932 49.8847Z" fill="#EA5837"/>
<path d="M367.195 151.118L372.668 143.887L362.797 130.51C358.228 142.726 360.061 151.509 367.195 151.118Z" fill="#EA5837"/>
<path d="M260.55 304.868C258.18 305.797 255.407 306.09 253.452 307.837C250.838 310.133 247.002 313.615 247.124 316.388C247.259 319.43 250.887 323.791 253.684 324.768C259.584 326.833 268.82 330.668 271.568 327.419C282.563 314.482 284.7 328.641 289.819 335.408C300.447 323.058 307.593 341.87 318.563 338.328L324.879 325.672L332.074 330.559C330.254 337.253 319.968 337.314 323.938 345.01C342.836 363.053 356.335 344.705 370.249 338.511C371.654 331.817 373.767 325.941 373.914 320.004C374.146 311.147 376.235 301.362 369.491 294.155C364.153 288.413 359.267 281.805 353.159 277.541C348.272 274.048 341.517 271.079 336.35 272.362C333.125 273.156 331.304 282.293 328.666 288.133C324.806 293.349 320.481 297.307 318.392 302.56C316.218 308.02 313.726 310.561 309.12 309.327C308.16 308.949 307.294 308.365 306.585 307.616C305.876 306.866 305.34 305.97 305.016 304.991C303.525 299.787 306.237 297.759 309.975 295.621C316.23 292.041 318.722 285.14 319.846 276.564C297.149 280.754 296.88 280.583 283.198 253.463L270.603 251.741L256.115 270.248C259.536 275.489 262.113 296.256 260.525 304.868" fill="#EA5837"/>
<path d="M342.824 -13.3332C350.007 -14.5548 353.941 -10.7069 358.815 -5.83274C364.923 0.27524 370.274 -0.946308 374.781 -7.61622C379.741 -14.9458 379.888 -23.0694 374.415 -29.0186C371.495 -32.207 367.574 -34.0638 366.059 -35.1266L336.057 -23.2527C334.53 -17.3768 338.097 -12.5025 342.849 -13.3332" fill="#EA5837"/>
<path d="M337.094 710.5C338.694 716.974 342.176 724.487 346.708 727.785C353.293 732.574 353.439 721.36 357.104 718.147C358.203 717.182 358.668 715.141 360.537 711.281L337.619 689.635C337.277 697.453 335.616 704.55 337.094 710.5Z" fill="#EA5837"/>
<path d="M308.937 552.645C311.881 546.537 309.401 535.921 303.611 533.967C298.432 532.22 292.214 530.852 287.352 532.745C280.022 535.567 279.741 523.217 273.193 525.415C267.22 527.419 260.977 527.981 252.842 529.556C263.335 537.253 268.588 553.561 282.954 545.511C287.242 550.153 290.064 553.72 293.313 556.603C298.199 560.915 306.042 558.716 308.937 552.657" fill="#EA5837"/>
<path d="M308.241 675.159C314.959 676.05 322.533 677.858 328.336 674.975C332.905 672.715 337.058 664.714 333.1 656.065C326.198 656.468 320.237 655.882 314.776 657.506C311.453 658.496 308.045 662.393 306.225 666.058C305.236 668.024 307.239 675.024 308.314 675.171" fill="#EA5837"/>
<path d="M415.571 555.232L415.338 555.441C415.485 555.564 415.632 555.637 415.791 555.772L415.571 555.183" fill="#EA5837"/>
<path d="M421.091 615.129C418.428 610.084 415.386 604.624 414.653 598.956C412.796 584.541 411.819 569.906 415.337 555.491C407.898 549.139 400.361 552.645 392.481 556.847C387.742 545.071 378.518 537.937 377.908 523.73C377.614 516.901 372.166 515.179 365.508 514.837C348.137 514.018 337.693 527.346 325.037 538.951C329.471 548.724 331.963 558.399 324.206 567.341L312.955 566.192C327.688 578.042 317.61 585.591 315.203 594.485C306.933 592.945 299.469 590.307 292.836 598.088L301.863 620.566L293.605 640.233L310.61 637.033C311.013 629.947 311.306 624.707 311.599 619.686C321.959 615.63 322.594 627.297 327.688 631.707L336.593 627.235C334.407 614.531 331.597 601.887 339.855 590.978C340.625 589.965 340.466 587.925 340.576 586.178L353.842 589.012C347.942 598.931 343.679 606.114 338.438 614.873L358.997 627.407C366.486 618.855 373.657 611.611 368.391 598.76C377.358 594.424 384.859 588.987 382.574 574.731C381.951 570.785 382.892 566.473 383.161 562.308L395.376 562.87C394.509 568.428 393.911 572.361 393.153 577.199L402.926 577.516C409.596 588.902 400.874 598.43 402.559 609.119C404.16 619.307 403.256 630.082 403.463 641.296C408.863 637.472 412.87 634.248 417.145 631.67C425.452 626.674 425.965 624.267 421.152 615.129" fill="#EA5837"/>
<path d="M404.709 513.944C404.795 517.841 404.074 521.995 405.112 525.354C408.24 535.469 412.027 545.303 415.569 555.234L428.176 544.057C429.825 522.496 420.089 515.899 404.709 513.944Z" fill="#EA5837"/>
<path d="M299.054 586.251C306.384 587.008 310.904 585.921 310.989 574.487C304.112 575.879 300.606 578.726 299.054 586.251Z" fill="#EA5837"/>
<path d="M365.374 670.761L375.355 660.475L358.802 649.212C350.41 663.419 364.653 662.149 365.374 670.761Z" fill="#EA5837"/>
<path d="M320.762 220.896C318.856 223.058 316.608 224.964 315.252 227.542C314.874 228.274 317.085 230.986 318.917 234.26C321.067 230.815 323.058 228.837 323.486 226.454C323.755 224.903 321.739 222.79 320.737 220.896" fill="#EA5837"/>
<path d="M339.905 210.598C334.627 214.751 327.689 218.795 331.256 227.48L361.71 239.159C360.403 229.313 369.04 219.32 360.147 210.952C353.929 205.089 346.477 205.455 339.966 210.598" fill="#EA5837"/>
<path d="M409.535 705.088C407.679 704.013 403.965 705.955 401.754 707.8C396.721 712.002 390.613 715.862 387.693 721.824C383.063 731.254 376.699 732.818 368.392 730.912L379.179 758.423C389.184 745.217 394.119 726.221 410.635 725.843C411.294 721.335 412.333 717.744 412.174 714.225C412.027 710.976 411.27 706.09 409.535 705.088Z" fill="#EA5837"/>
<path d="M440.76 466.046C441.219 466.938 441.803 467.761 442.494 468.489C444.73 466.718 446.868 464.751 449.018 462.809L446.257 459.07C444.4 461.367 442.507 463.639 440.76 466.07" fill="#EA5837"/>
<path d="M422.57 438.132C409.78 426.405 406.811 426.491 399.934 441.48C396.929 447.991 393.288 451.741 387.791 454.294C385.348 455.43 383.54 458.667 380.657 461.819L394.986 481.23L394.73 481.108C395.402 487.473 394.632 493.324 402.804 495.364C412.394 497.697 422.753 501.875 430.07 509.193C435.555 514.665 437.962 515.215 442.14 509.999C446.941 504.013 442.751 500.544 440.112 497.16C434.199 497.856 429.118 499.334 424.17 498.797C418.807 498.223 420.017 494.619 421.8 488.315C424.451 478.885 431.109 482.757 435.763 479.056C431.866 476.747 428.091 475.269 424.402 475.562C420.713 475.855 416.853 477.859 413.225 479.08C403.159 465.228 408.253 450.983 408.644 436.068C418.416 442.005 416.181 462.063 429.924 459.632C429.704 449.786 429.472 440.087 429.191 427.749L422.57 438.132Z" fill="#EA5837"/>
<path d="M400.606 331.988C400.85 335.457 404.759 338.535 408.705 344.204C413.201 337.314 416.707 333.319 418.356 328.409C418.771 327.187 413.249 320.859 410.305 320.688C404.979 320.383 400.093 324.731 400.606 331.939" fill="#EA5837"/>
<path d="M308.962 254.416C307.52 254.416 306.054 256.786 304.613 258.081L310.159 264.654C311.796 261.502 313.824 259.095 313.421 258.02C312.773 256.261 310.538 254.355 308.962 254.355" fill="#EA5837"/>
<path d="M352.767 269.87C354.441 266.535 356.432 263.407 356.127 263.016C354.201 260.922 352.068 259.027 349.762 257.361C349.005 259.352 347.319 261.734 347.722 263.236C348.333 265.447 350.483 267.036 352.767 269.87Z" fill="#EA5837"/>
<path d="M436.508 550.116C436.435 551.179 436.373 552.23 436.312 553.293L446.293 554.807C446.293 553.366 446.366 551.924 446.415 550.483L436.508 550.116Z" fill="#EA5837"/>
<path d="M264.592 364.372C263.31 366.815 261.099 369.588 261.245 372.031C261.771 380.68 256.97 383.893 252.01 387.375C249.811 388.926 247.795 390.844 245.694 392.591C260.17 391.699 264.092 406.028 270.126 415.325C284.956 412.283 284.956 412.283 297.001 382.843C303.512 380.913 312.174 384.345 313.884 373.534C314.495 369.637 312.186 363.993 309.755 360.695C302.547 350.861 294.912 358.252 287.449 361.123C276.454 347.539 274.927 344.106 264.495 364.372" fill="#EA5837"/>
<path d="M319.614 410.976C318.954 409.181 317.464 407.812 316.291 406.285C315.509 407.654 314.19 408.973 314.117 410.39C314.043 411.807 315.277 413.151 316.193 415.069C317.708 413.31 319.858 411.526 319.614 410.976Z" fill="#EA5837"/>
<path d="M383.955 447.918C383.076 434.48 383.296 422.435 379.423 410.915C376.98 403.781 372.375 402.841 366.768 405.052C359.096 408.069 353.941 414.299 350.007 423.302C358.253 436.434 367.867 446.012 383.955 447.918Z" fill="#EA5837"/>
<path d="M295.853 523.595C305.809 515.411 320.822 512.87 319.772 492.31C319.772 491.406 320.835 490.111 321.653 489.488C329.41 483.674 337.228 477.969 346.574 471.079C346.012 458.863 330.461 449.017 336.422 432.879C325.623 422.459 314.775 430.827 306.896 431.536L288.743 456.835C289.195 461.452 292.75 469.931 284.113 474.78C282.892 475.44 282.122 479.667 282.611 481.609C285.347 492.738 280.412 498.821 271.971 504.184C286.153 501.594 285.872 521.091 295.853 523.595Z" fill="#EA5837"/>
<path d="M345.219 863.053L332.417 879.789C342.654 885.677 342.654 885.677 355.004 879.337L345.232 863.053" fill="#F2BF5E"/>
<path d="M320.971 849.456C338.184 844.155 338.184 844.155 333.92 832.55C333.358 843.996 320.067 836.055 320.971 849.456Z" fill="#F2BF5E"/>
<path d="M296.784 827.077C290.187 825.379 282.784 822.655 276.774 824.829C272.046 826.527 267.245 833.979 270.47 843.068C277.372 843.495 283.248 844.815 288.868 843.862C292.252 843.288 295.965 839.855 298.103 836.41C299.251 834.578 297.846 827.358 296.784 827.077Z" fill="#F2BF5E"/>
<path d="M271.033 788.413C269.97 781.768 267.136 773.876 262.897 770.089C256.789 764.531 255.665 775.672 251.756 778.421C250.535 779.251 249.948 781.23 247.774 784.834L268.761 809.156C269.75 801.423 271.998 794.57 271.033 788.462" fill="#F2BF5E"/>
<path d="M244.378 846.769C253.906 833.649 239.638 833.197 239.626 824.536L228.851 833.551L244.378 846.769Z" fill="#F2BF5E"/>
<path d="M360.771 907.775C361.504 909.889 365.303 910.451 369.677 912.747L367.233 897.05C361.125 898.626 358.878 902.461 360.722 907.775" fill="#F2BF5E"/>
<path d="M308.438 863.566L291.25 864.788C290.26 871.787 289.527 877.004 288.807 881.89C278.166 884.663 278.472 872.972 273.805 867.976L264.57 871.335C265.682 884.248 267.429 897.172 258.303 907.018C257.46 907.947 257.448 909.999 257.192 911.709L244.231 907.287L261.699 883.417L242.276 868.452C234.116 876.063 226.395 882.391 230.536 895.816C221.265 899.053 213.349 903.476 214.436 918.013C214.729 922.019 213.434 926.197 212.823 930.302L200.717 928.262C202.037 922.838 202.965 918.99 204.113 914.262L194.487 912.772C188.795 900.629 198.262 892.212 197.48 881.377C196.735 871.042 198.531 860.439 199.251 849.237C193.559 852.388 189.308 855.113 184.837 857.153C176.163 861.123 175.455 863.468 179.486 873.131C181.709 878.482 184.275 884.272 184.531 890.013C185.191 904.575 184.934 919.332 180.243 933.185C187.109 940.404 194.902 937.839 203.099 934.602C206.825 946.891 215.413 955.125 214.839 969.332C214.558 976.161 219.835 978.567 226.432 979.679C243.644 982.611 255.139 970.602 268.699 960.597C265.108 950.336 263.434 940.404 271.887 932.501L282.98 934.944C269.31 921.36 279.974 915.068 283.102 906.517C291.201 909.046 298.408 912.625 305.652 905.638C303.124 897.294 300.766 889.427 298.53 882.183L308.389 863.615" fill="#F2BF5E"/>
<path d="M332.931 904.77C328.863 902.644 323.903 897.563 320.556 898.809C313.409 901.46 315.401 910.121 315.132 919.967C321.533 913.627 330.756 918.855 332.931 904.77Z" fill="#F2BF5E"/>
<path d="M387.646 843.214C382.32 838.768 376.102 835.286 371.765 829.654C362.554 817.597 362.982 817.157 353.441 828.042C351.633 830.106 349.642 831.939 347.834 833.784C350.546 842.542 350.68 853.329 361.858 850.886C363.079 859.327 364.057 866.767 365.596 877.92C367.709 868.758 368.931 863.444 370.617 856.151L384.225 872.178C385.593 860.243 386.571 851.802 387.548 843.202" fill="#F2BF5E"/>
<path d="M410.209 828.482C408.352 833.209 406.312 837.851 404.712 842.713C402.66 848.98 405.286 851.765 410.881 852.486C416.012 844.301 418.418 836.312 410.209 828.518" fill="#F2BF5E"/>
<path d="M403.527 831.23C405.726 830.962 407.815 829.422 409.928 828.238L399.325 822.349C401.67 827.456 402.757 831.316 403.527 831.23Z" fill="#F2BF5E"/>
<path d="M428.24 868.99L426.261 862.882C426.028 864.946 425.796 866.999 425.552 868.99L428.24 868.99Z" fill="#F2BF5E"/>
<path d="M409.904 828.237L410.076 828.335C410.124 828.381 410.169 828.43 410.21 828.482L410.444 827.93L409.904 828.237Z" fill="#F2BF5E"/>
<path d="M281.368 97.2094C281.71 103.476 290.224 106.787 292.826 101.546C295.191 96.3795 295.834 90.5896 294.659 85.0301C293.132 79.3864 288.551 74.952 284.69 69.1494C283.334 70.4443 281.93 71.1406 281.893 71.9102C281.539 80.3514 280.916 88.8415 281.368 97.2461" fill="#F2BF5E"/>
<path d="M239.319 72.7407L255.713 82.9656C257.509 74.9519 258.755 69.4305 260.001 63.8478C251.34 58.2284 245.855 61.4046 239.344 72.7043" fill="#F2BF5E"/>
<path d="M288.367 50.1417C287.341 50.5692 286.73 52.5116 285.924 53.8065C287.011 54.6127 288.172 56.1764 289.161 56.0176C290.151 55.8588 290.969 54.0019 292.362 52.2917C290.554 51.2533 289.198 49.8485 288.343 50.1417" fill="#F2BF5E"/>
<path d="M375.845 68.001C375.075 61.4655 381.611 52.8409 372.999 49.2494C371.02 48.4309 365.669 52.218 365.131 54.8566C363.299 63.7499 370.482 64.8493 375.845 68.001Z" fill="#F2BF5E"/>
<path d="M346.454 134.273L344.108 135.494C344.84 137.305 345.684 139.067 346.637 140.772C346.796 141.028 348.213 140.149 349.08 139.782L346.454 134.273Z" fill="#F2BF5E"/>
<path d="M364.681 90.9184C365.743 90.2465 365.621 86.8139 366.037 84.6395L355.604 81.9762C355.348 83.6742 355.079 85.3602 354.822 87.0582C357.168 91.2239 360.344 93.6792 364.681 90.9184Z" fill="#F2BF5E"/>
<path d="M427.129 209.853C418.48 214.8 418.48 214.8 425.003 227.651C425.675 221.983 426.225 216.926 427.129 209.853Z" fill="#F2BF5E"/>
<path d="M436.083 203.134C435.851 206.262 435.631 209.389 435.399 212.516L438.208 212.858L439.125 202.939L436.083 203.134Z" fill="#F2BF5E"/>
<path d="M325.943 192.152L331.416 184.92L321.546 171.544C316.977 183.76 318.809 192.543 325.943 192.152Z" fill="#F2BF5E"/>
<path d="M219.298 345.902C216.928 346.831 214.155 347.124 212.201 348.871C209.586 351.167 205.751 354.649 205.873 357.422C206.007 360.464 209.635 364.825 212.433 365.802C218.333 367.867 227.568 371.703 230.317 368.453C241.311 355.516 243.449 369.675 248.568 376.442C259.195 364.092 266.342 382.905 277.312 379.362L283.627 366.706L290.823 371.593C289.002 378.287 278.717 378.348 282.687 386.044C301.585 404.087 315.083 385.739 328.997 379.545C330.402 372.851 332.516 366.975 332.662 361.038C332.894 352.181 334.983 342.396 328.24 335.189C322.902 329.448 318.015 322.839 311.907 318.576C307.021 315.082 300.265 312.113 295.098 313.396C291.873 314.19 290.053 323.327 287.414 329.167C283.554 334.383 279.23 338.341 277.141 343.594C274.966 349.054 272.474 351.595 267.869 350.361C266.908 349.984 266.043 349.399 265.334 348.65C264.624 347.9 264.088 347.004 263.764 346.025C262.274 340.821 264.986 338.793 268.724 336.655C274.978 333.076 277.47 326.174 278.594 317.598C255.897 321.788 255.628 321.617 241.946 294.498L229.352 292.775L214.864 311.282C218.284 316.523 220.862 337.29 219.274 345.902" fill="#F2BF5E"/>
<path d="M415.547 53.4153C419.066 54.9057 421.142 56.5669 423.036 56.3103C424.257 56.1515 426.383 52.2059 426.053 51.5951C424.832 49.3596 422.865 46.7087 420.947 46.3911C419.725 46.2079 418.101 49.946 415.547 53.4153Z" fill="#F2BF5E"/>
<path d="M301.573 27.701C308.756 26.4794 312.689 30.3273 317.564 35.2014C323.672 41.3094 329.022 40.0879 333.53 33.418C338.49 26.0884 338.636 17.9647 333.163 12.0156C330.244 8.8272 326.322 6.97037 324.808 5.90758L294.805 17.7815C293.278 23.6573 296.845 28.5317 301.597 27.701" fill="#F2BF5E"/>
<path d="M295.843 751.533C297.443 758.008 300.924 765.521 305.457 768.819C312.041 773.608 312.188 762.393 315.852 759.181C316.952 758.216 317.416 756.175 319.285 752.315L296.368 730.669C296.026 738.487 294.364 745.584 295.843 751.533Z" fill="#F2BF5E"/>
<path d="M267.686 593.679C270.63 587.571 268.15 576.955 262.36 575C257.18 573.253 250.962 571.885 246.1 573.779C238.771 576.601 238.49 564.25 231.942 566.449C225.968 568.453 219.726 569.014 211.59 570.59C222.084 578.286 227.336 594.595 241.702 586.544C245.99 591.186 248.812 594.754 252.062 597.636C256.948 601.949 264.791 599.75 267.686 593.691" fill="#F2BF5E"/>
<path d="M266.989 716.192C273.708 717.084 281.282 718.892 287.084 716.009C291.653 713.749 295.807 705.748 291.849 697.099C284.947 697.502 278.985 696.915 273.525 698.54C270.202 699.53 266.794 703.426 264.974 707.091C263.984 709.058 265.988 716.058 267.063 716.205" fill="#F2BF5E"/>
<path d="M374.319 596.266L374.086 596.475C374.233 596.598 374.38 596.671 374.54 596.806L374.319 596.217" fill="#F2BF5E"/>
<path d="M379.839 656.163C377.176 651.118 374.135 645.658 373.402 639.989C371.545 625.575 370.567 610.94 374.086 596.525C366.646 590.173 359.109 593.679 351.23 597.881C346.49 586.105 337.267 578.971 336.656 564.763C336.363 557.935 330.914 556.213 324.257 555.871C306.886 555.052 296.441 568.38 283.785 579.985C288.22 589.758 290.712 599.433 282.955 608.375L271.704 607.226C286.436 619.076 276.358 626.625 273.951 635.519C265.681 633.979 258.217 631.341 251.584 639.122L260.612 661.599L252.354 681.267L269.358 678.067C269.761 670.981 270.055 665.741 270.348 660.72C280.707 656.664 281.342 668.331 286.436 672.741L295.342 668.269C293.155 655.565 290.345 642.921 298.603 632.012C299.373 630.998 299.214 628.959 299.324 627.212L312.591 630.046C306.69 639.965 302.427 647.148 297.186 655.907L317.746 668.441C325.234 659.889 332.405 652.645 327.14 639.794C336.106 635.457 343.607 630.021 341.322 615.765C340.699 611.819 341.64 607.507 341.909 603.342L354.125 603.903C353.257 609.462 352.659 613.395 351.901 618.233L361.674 618.55C368.344 629.936 359.622 639.464 361.308 650.153C362.908 660.341 362.004 671.116 362.212 682.33C367.611 678.506 371.618 675.281 375.894 672.704C384.2 667.708 384.714 665.301 379.9 656.163" fill="#F2BF5E"/>
<path d="M363.458 554.978C363.543 558.875 362.822 563.029 363.861 566.388C366.988 576.503 370.775 586.337 374.318 596.268L386.925 585.091C388.574 563.529 378.838 556.933 363.458 554.978Z" fill="#F2BF5E"/>
<path d="M257.803 627.285C265.133 628.042 269.653 626.955 269.738 615.521C262.861 616.913 259.355 619.76 257.803 627.285Z" fill="#F2BF5E"/>
<path d="M324.123 711.795L334.103 701.509L317.551 690.246C309.158 704.453 323.402 703.183 324.123 711.795Z" fill="#F2BF5E"/>
<path d="M431.281 277.2C436.901 282.624 445.696 281.989 449.19 275.917C453.197 268.979 449.19 259.78 437.743 250.948C426.517 263.384 424.819 270.97 431.281 277.2Z" fill="#F2BF5E"/>
<path d="M279.51 261.93C277.605 264.092 275.357 265.998 274.001 268.575C273.622 269.308 275.833 272.02 277.666 275.294C279.816 271.849 281.807 269.87 282.235 267.488C282.503 265.937 280.488 263.823 279.486 261.93" fill="#F2BF5E"/>
<path d="M298.653 251.632C293.376 255.785 286.437 259.828 290.004 268.514L320.459 280.192C319.152 270.346 327.788 260.354 318.895 251.986C312.677 246.122 305.225 246.489 298.714 251.632" fill="#F2BF5E"/>
<path d="M368.284 746.122C366.427 745.047 362.713 746.989 360.502 748.834C355.469 753.036 349.361 756.896 346.442 762.858C341.812 772.288 335.447 773.852 327.141 771.946L337.927 799.457C347.932 786.251 352.867 767.255 369.383 766.877C370.043 762.369 371.081 758.778 370.923 755.259C370.776 752.01 370.019 747.124 368.284 746.122Z" fill="#F2BF5E"/>
<path d="M399.508 507.08C399.968 507.972 400.552 508.795 401.243 509.523C403.478 507.752 405.616 505.785 407.766 503.843L405.005 500.105C403.148 502.401 401.255 504.673 399.508 507.104" fill="#F2BF5E"/>
<path d="M381.318 479.166C368.528 467.439 365.56 467.524 358.682 482.513C355.677 489.024 352.037 492.775 346.54 495.328C344.096 496.464 342.288 499.701 339.406 502.853L353.735 522.264L353.478 522.142C354.15 528.506 353.381 534.358 361.553 536.398C371.143 538.731 381.502 542.909 388.819 550.226C394.304 555.699 396.711 556.249 400.888 551.032C405.689 545.047 401.499 541.577 398.861 538.193C392.948 538.89 387.866 540.368 382.919 539.831C377.556 539.256 378.765 535.653 380.549 529.349C383.2 519.918 389.857 523.791 394.512 520.09C390.615 517.781 386.84 516.303 383.151 516.596C379.462 516.889 375.601 518.893 371.973 520.114C361.907 506.261 367.001 492.017 367.392 477.101C377.165 483.038 374.93 503.097 388.672 500.666C388.453 490.82 388.221 481.121 387.94 468.783L381.318 479.166Z" fill="#F2BF5E"/>
<path d="M359.355 373.021C359.599 376.491 363.508 379.569 367.454 385.237C371.949 378.348 375.455 374.353 377.104 369.442C377.52 368.221 371.998 361.893 369.054 361.722C363.728 361.416 358.842 365.765 359.355 372.972" fill="#F2BF5E"/>
<path d="M458.108 841.247L461.37 841.247C461.773 838.059 462.188 834.858 462.591 831.658L456.911 830.986C454.932 824.084 451.182 822.435 445.342 824.988C440.456 827.114 435.215 828.213 430.769 829.569C431.233 836.837 431.673 843.605 432.088 850.104C438.062 849.701 444.145 850.104 449.923 848.687C454.15 847.661 456.74 844.424 457.558 840.136L458.108 841.211" fill="#F2BF5E"/>
<path d="M267.71 295.45C266.268 295.45 264.803 297.82 263.361 299.115L268.907 305.687C270.544 302.536 272.572 300.129 272.169 299.054C271.521 297.295 269.286 295.389 267.71 295.389" fill="#F2BF5E"/>
<path d="M311.516 310.904C313.189 307.569 315.181 304.441 314.875 304.051C312.949 301.956 310.817 300.061 308.511 298.395C307.753 300.386 306.067 302.768 306.471 304.27C307.081 306.481 309.231 308.07 311.516 310.904Z" fill="#F2BF5E"/>
<path d="M432.345 464.727L421.094 481.536C436.706 481.683 436.706 481.683 432.345 464.727Z" fill="#F2BF5E"/>
<path d="M395.256 591.15C395.183 592.213 395.122 593.264 395.061 594.326L405.041 595.841C405.041 594.4 405.115 592.958 405.164 591.517L395.256 591.15Z" fill="#F2BF5E"/>
<path d="M430.084 561.954L414.949 591.602L417.49 594.204C422.462 587.351 427.727 580.766 432.149 573.437C433.138 571.787 431.184 567.549 430.084 561.978" fill="#F2BF5E"/>
<path d="M223.341 405.406C222.058 407.849 219.847 410.622 219.994 413.065C220.519 421.714 215.718 424.927 210.759 428.409C208.56 429.96 206.544 431.878 204.443 433.625C218.919 432.733 222.84 447.062 228.875 456.359C243.705 453.317 243.705 453.317 255.75 423.877C262.261 421.947 270.922 425.379 272.632 414.568C273.243 410.671 270.934 405.027 268.503 401.729C261.296 391.895 253.661 399.286 246.197 402.157C235.203 388.572 233.676 385.14 223.243 405.406" fill="#F2BF5E"/>
<path d="M430.402 585.616C427.323 614.995 430.927 619.821 452.83 615.973C453.185 608.643 453.563 601.081 453.93 593.605C448.787 593.935 444.804 595.34 441.506 594.094C437.682 592.64 434.47 588.853 430.402 585.616Z" fill="#F2BF5E"/>
<path d="M278.362 452.01C277.703 450.215 276.212 448.846 275.04 447.319C274.258 448.688 272.938 450.007 272.865 451.424C272.792 452.841 274.026 454.185 274.942 456.103C276.457 454.343 278.607 452.56 278.362 452.01Z" fill="#F2BF5E"/>
<path d="M342.704 488.951C341.824 475.514 342.044 463.469 338.172 451.949C335.729 444.815 331.123 443.874 325.516 446.085C317.845 449.103 312.689 455.333 308.756 464.336C317.002 477.468 326.616 487.046 342.704 488.951Z" fill="#F2BF5E"/>
<path d="M254.601 564.629C264.557 556.444 279.571 553.903 278.52 533.344C278.52 532.44 279.583 531.145 280.402 530.522C288.159 524.707 295.977 519.002 305.322 512.113C304.76 499.897 289.209 490.05 295.171 473.913C284.372 463.493 273.524 471.861 265.645 472.569L247.492 497.869C247.944 502.486 251.499 510.964 242.862 515.814C241.64 516.474 240.871 520.7 241.359 522.643C244.096 533.771 239.16 539.855 230.719 545.218C244.902 542.628 244.621 562.125 254.601 564.629Z" fill="#F2BF5E"/>
<path d="M415.914 605.723C415.462 605.516 414.142 607.959 412.872 609.669C414.399 610.891 415.596 612.723 416.61 612.577C417.624 612.43 418.687 610.512 419.701 609.364C418.479 608.069 417.343 606.408 415.914 605.699" fill="#F2BF5E"/>
<path d="M408.413 461.245L420.727 461.098C416.732 440.759 429.278 435.359 437.487 429.251L423.072 408.252C408.755 443.031 406.483 451.313 408.315 461.245" fill="#F2BF5E"/>
<path d="M437.934 779.269C441.159 786.22 438.557 792.707 432.034 793.928C422.664 795.724 420.392 793.488 415.627 777.119C426.622 768.763 433.499 769.667 437.934 779.232" fill="#E7D962"/>
<path d="M245.935 504.178C245.928 504.153 245.928 504.126 245.935 504.101L245.935 504.178Z" fill="#E7D962"/>
<path d="M188.422 653.541C188.418 653.574 188.418 653.607 188.422 653.64L188.348 653.516" fill="#E7D962"/>
<path d="M243.724 449.194C243.822 459.162 244.42 468.654 254.572 471.329C252.813 478.048 251.164 484.315 249.563 490.386L252.471 493.611C255.537 489.946 259.385 487.564 265.334 488.969C262.158 505.632 262.146 505.668 245.972 504.105C247.193 501.906 248.415 499.658 249.637 497.545C249.124 496.946 248.623 496.323 248.11 495.725C247.377 498.546 246.644 501.332 245.911 504.105L245.838 504.105C245.398 503.836 244.97 503.384 244.518 503.36C244.048 503.411 243.602 503.597 243.235 503.897C244.457 509.211 244.738 518.165 247.206 519.142C258.298 523.589 256.978 534.473 258.2 544.185C264.882 549.768 268.498 556.878 267.081 567.286C266.018 575.006 265.774 582.886 264.992 592.939C262.976 593.611 259.031 596.47 255.635 595.712C248.867 594.198 242.393 590.704 235.796 588.028C236.59 590.692 238.63 595.077 237.995 595.749C225.877 608.527 233.414 625.311 229.761 640.068C243.309 645.48 262.134 638.92 261.376 665.612C254.132 681.493 243.333 681.004 232.669 676.057C224.374 660.237 216.788 645.7 209.104 631.151L206.856 632.592C208.078 641.571 209.3 650.537 210.985 662.46C202.434 659.101 195.41 656.352 188.422 653.604C186.48 643.99 184.526 634.376 182.314 623.271L193.48 625.91L213.832 582.409C206.246 580.247 200.504 575.519 200.394 564.085C205.684 557.281 211.584 553.726 219.317 556.914C219.854 561.153 220.379 565.185 220.978 569.802L229.529 563.816C227.623 558.93 224.508 554.227 224.02 549.157C222.236 530.626 221.344 511.972 219.891 490.081L203.033 500.843C194.958 494.662 194.616 484.51 193.26 473.369L210.973 473.296C212.292 468.96 213.612 464.623 214.907 460.347C203.644 451.442 196.021 457.489 188.948 465.71C180.873 475.104 174.289 476.961 167.655 470.596C165.715 468.592 164.536 465.974 164.32 463.194C164.186 453.421 179.822 440.557 186.847 445.37C191.122 448.302 194.176 448.754 199.063 448.375C206.82 447.777 215.261 448.376 220.77 458.613C223.214 463.071 228.808 464.989 232.229 467.494C242.6 459.614 236.895 449.854 236.541 441.535C244.188 438.444 243.724 444.393 243.773 449.182" fill="#E7D962"/>
<path d="M145.521 690.557C144.8 685.341 144.397 682.384 144.018 679.562C147.084 681.041 149.552 682.971 145.521 690.557Z" fill="#E7D962"/>
<path d="M143.49 679.329L143.944 679.06L144.018 679.599L143.49 679.329Z" fill="#E7D962"/>
<path d="M178.405 657.977C180.286 664.537 190.291 668.043 184.208 677.926C180.543 683.936 176.878 690.056 172.627 697.263C169.634 690.031 168.473 684.779 165.749 681.383C163.025 677.987 158.627 676.044 154.022 672.831L143.98 679.135C143.975 679.062 143.975 678.988 143.98 678.915C138.569 669.142 146.937 667.237 150.638 664.476C156.343 660.225 157.381 656.67 153.655 649.951C151.115 645.345 149.649 639.861 147.095 633.166C158.371 634.278 162.744 653.726 173.726 642.499C174.239 638.896 174.642 636.061 175.217 631.993L188.483 653.616C184.134 651.172 180.799 652.15 178.429 658.05" fill="#E7D962"/>
<path d="M361.645 507.244L368.034 494.54C372.346 504.312 368.571 505.778 361.62 507.281" fill="#E7D962"/>
<path d="M381.008 414.635C380.531 415.698 377.465 416.382 377.343 416.187C375.694 412.082 374.289 407.819 372.847 403.592C381.264 404.667 383.768 408.393 380.971 414.586" fill="#E7D962"/>
<path d="M424.839 403.481C439.107 430.833 448.929 436.208 461.047 423.968C465.603 431.774 470.551 439.348 474.582 447.557C476.195 450.88 476.243 455.619 476.231 459.699C476.219 463.78 474.313 468.067 474.826 471.915C476.94 487.894 471.943 502.871 470.807 518.336C470.404 523.845 467.143 529.049 464.125 537.478L459.837 526.863C453.167 537.539 460.131 547.41 461.633 561.788C456.319 552.724 452.74 546.64 449.234 540.667C440.084 546.03 430.91 550.977 422.799 541.339C418.926 536.733 417.546 529.062 415.029 522.783L415.139 523.1C403.29 533.178 386.676 532.983 370.893 521.463L384.648 508.099C382.449 491.339 392.674 486.513 404.194 484.388C404.194 474.994 404.12 466.931 404.084 458.734L417.02 460.335C416.495 452.174 416.153 445.529 415.64 438.896C415.127 432.262 414.418 425.702 413.551 416.357C427.477 424.444 417.753 405.033 424.875 403.335" fill="#E7D962"/>
<path d="M378.821 458.685L371.1 473.003C369.659 464.94 367.814 457.879 378.821 458.685Z" fill="#E7D962"/>
<path d="M339.656 404.019C339.005 402.505 338.494 400.935 338.129 399.328C338.056 398.901 339.351 398.107 340.426 397.227C341.183 398.595 342.49 399.939 342.49 401.283C342.49 402.199 340.658 403.115 339.656 404.019Z" fill="#E7D962"/>
<path d="M173.238 711.764L166.592 706.633C167.814 704.948 169.035 703.274 170.172 701.588L175.4 708.747L173.238 711.764Z" fill="#E7D962"/>
<path d="M409.885 708.087C403.179 721.17 403.179 721.17 385.112 714.574C388.556 708.747 390.951 700.831 395.568 697.752C403.729 692.316 406.196 702.455 409.885 708.087Z" fill="#E7D962"/>
<path d="M317.765 770.962L331.044 777.07C325.803 781.163 321.686 781.395 317.765 770.962Z" fill="#E7D962"/>
<path d="M358.823 753.994C356.673 757.452 354.682 760.261 353.057 763.34C346.057 776.545 344.848 776.594 333.109 770.156C324.276 765.27 316.116 757.049 303.179 761.911C314.748 748.082 293.407 745.712 299.893 734.852C300.883 734.852 302.056 734.4 302.703 734.913C312.952 742.878 312.952 742.854 317.765 729.831C318.495 727.99 319.737 726.396 321.345 725.238C326.39 721.696 331.582 718.495 337.152 714.879L350.37 719.766C353.179 731.126 356.013 742.548 358.823 753.97" fill="#E7D962"/>
<path d="M148.806 479.38C149.356 489.275 144.286 498.119 138.093 498.094C129.688 498.094 118.071 486.049 118.046 477.401C118.022 468.752 123.201 464.537 134.758 464.183C143.04 463.926 148.256 469.57 148.806 479.38Z" fill="#E7D962"/>
<path d="M169.854 616.699L161.645 635.023C158.798 624.236 157.87 617.859 169.854 616.699Z" fill="#E7D962"/>
<path d="M171.455 525.873C169.61 524.823 168.425 522.098 166.972 520.058C168.34 518.764 169.989 516.113 170.991 516.394C172.957 517.041 174.558 519.326 177.404 521.94C174.509 523.931 172.396 526.374 171.455 525.837" fill="#E7D962"/>
<path d="M178.406 582.494L175.963 582.164C176.451 576.57 176.936 570.975 177.416 565.38L180.104 565.746C179.542 571.325 178.976 576.908 178.406 582.494Z" fill="#E7D962"/>
<path d="M184.904 484.681C185.918 485.231 186.322 487.417 187.653 490.178L177.221 493.061C176.769 484.18 179.065 481.48 184.904 484.681Z" fill="#E7D962"/>
<path d="M398.855 367.872C400.858 376.814 397.853 379.88 391.525 381.921C390.242 373.516 392.747 370.034 398.855 367.872Z" fill="#E7D962"/>
<path d="M402.801 361.386C402.247 356.801 401.702 352.224 401.164 347.655L405.122 347.044L405.782 360.97L402.801 361.386Z" fill="#E7D962"/>
<path d="M187.653 374.298C184.501 367.823 182.266 363.206 179.102 356.572C190.793 359.956 190.793 359.956 187.653 374.298Z" fill="#E7D962"/>
<path d="M424.68 383.203C424.887 399.744 423.959 401.295 409.385 407.061C415.127 395.981 400.04 389.397 407.846 377.01L424.68 383.203Z" fill="#E7D962"/>
<path d="M401.641 339.556L400.016 337.247C400.92 336.025 401.629 334.168 402.777 333.582C403.925 332.996 405.574 333.423 410.009 333.411L401.641 339.592" fill="#E7D962"/>
<path d="M286.113 572.123C285.513 571.628 285.025 571.012 284.68 570.316C284.334 569.619 284.14 568.857 284.11 568.08C284.11 566.968 285.6 565.856 287.31 563.572C288.192 565.88 288.895 568.253 289.412 570.67C289.412 570.975 286.895 572.575 286.113 572.123Z" fill="#E7D962"/>
<path d="M379.969 623.907C378.808 624.322 374.972 619.863 375.253 618.935C376.086 616.077 377.87 613.59 380.311 611.886C381.349 611.3 383.866 614.476 386.871 616.87C383.988 620.022 382.253 623.112 379.969 623.907Z" fill="#E7D962"/>
<path d="M286.847 626.997C278.125 626.545 274.399 634.51 268.902 641.571C269.842 629.184 270.783 616.809 271.76 603.848C282.291 605.827 287.983 612.143 286.847 626.997Z" fill="#E7D962"/>
<path d="M294.555 635.194L296.864 635.866C296.559 638.956 296.241 642.059 295.936 645.15L291.965 643.928L294.555 635.182" fill="#E7D962"/>
<path d="M344.701 913.889L333.854 898.607L345.41 890.617C348.036 898.973 351.579 906.437 344.701 913.889Z" fill="#E7D962"/>
<path d="M289.949 876.899C292.539 882.201 299.001 885.694 294.481 893.659C288.715 888.321 288.715 888.321 289.949 876.899Z" fill="#E7D962"/>
<path d="M290.047 679.184C281.887 678.488 279.346 674.579 283.475 664.305C290.45 667.787 294.359 671.097 290.047 679.184Z" fill="#E7D962"/>
<path d="M340.621 581.847C338.882 581.29 337.194 580.583 335.576 579.734C336.04 578.317 336.505 576.9 337.372 574.298C339.436 576.436 340.878 577.828 342.136 579.417C342.246 579.563 341 581.945 340.621 581.86" fill="#E7D962"/>
<path d="M383.28 692.536L377.306 682.14C385.466 684.583 385.466 684.583 383.28 692.536Z" fill="#E7D962"/>
<path d="M277.783 691.021C279.204 692.028 280.511 693.187 281.68 694.478L275.572 696.176C275.499 695.065 275.438 693.941 275.376 692.817C276.183 692.17 277.282 690.765 277.746 691.021" fill="#E7D962"/>
<path d="M268.608 814.866C266.617 813.022 264.943 806.681 265.982 804.727C270.502 796.432 274.997 800.964 280.177 806.828C276.878 813.07 275.229 820.986 268.608 814.866Z" fill="#E7D962"/>
<path d="M297.817 847.581C297.654 849.003 297.09 850.35 296.192 851.465C295.715 851.905 294.262 850.757 289.204 848.607C293.065 846.994 294.311 846.164 295.605 846.054C296.351 846.054 297.878 847.275 297.817 847.581Z" fill="#E7D962"/>
<path d="M298.635 917.077C300.296 917.798 303.448 918.714 303.717 918.116C309.153 905.826 319.671 911.568 329.102 904.971C327.037 909.858 326.658 911.886 325.632 912.985C312.451 926.85 296.009 935.426 284.098 951.539C279.529 957.647 272.578 956.083 267.777 949.511C261.181 940.483 254.89 931.113 248.562 922.025C259.3 907.879 251.078 886.098 266.018 874.053C272.371 886.269 279.456 898.204 284.855 911.092C288.435 919.643 294.14 915.074 298.672 917.077" fill="#E7D962"/>
<path d="M362.403 85.5981C355.794 89.1285 352.434 82.532 349.71 76.5828C356.368 59.4805 356.368 59.4803 369.708 63.8414C370.648 72.698 370.013 81.5424 362.378 85.5981" fill="#E7D962"/>
<path d="M463.379 119.839C453.387 132.349 456.05 151.98 444.066 163.621C440.853 166.737 438.361 175.153 442.844 182.202C444.835 185.28 445.178 189.922 446.216 193.685C442.099 202.309 436.663 200.11 430.152 198.645C433.621 193.758 436.125 190.24 438.703 186.526C424.948 182.251 413.159 187.137 400.284 194.1C397.78 188.09 395.483 183.24 393.736 178.109C392.405 174.2 389.888 168.434 391.159 166.089C398.83 151.943 395.605 136.123 397.205 121.073C398.207 111.642 403.655 107.135 411.376 109.04C414.112 109.724 416.555 112.229 419.17 113.927L428.539 105.18L442.49 118.41C448.598 114.135 455.561 112.156 463.257 119.852" fill="#E7D962"/>
<path d="M367.057 114.452C369.268 117.799 371.773 120.975 373.397 124.713C373.629 125.263 369.733 128.451 366.263 131.823C363.71 127.608 360.29 124.359 360.619 121.854C360.986 119.045 364.761 116.895 367.057 114.452Z" fill="#E7D962"/>
<path d="M418.352 66.7489C419.842 66.7489 422.579 70.4136 422.493 72.3803C422.395 74.4937 419.708 76.4362 417.081 79.8444C415.298 76.1796 412.977 73.5777 413.343 71.7087C413.771 69.5587 416.581 66.7367 418.352 66.7489Z" fill="#E7D962"/>
<path d="M301.786 140.216C301.689 131.029 301.603 121.574 301.518 112.473L311.632 106.536L330.494 118.288C328.857 139.348 323.58 143.441 301.738 140.203" fill="#E7D962"/>
<path d="M305.941 182.837C304.145 181.957 302.911 179.355 301.445 177.474C303.07 176.252 304.67 174.139 306.332 174.078C307.688 174.078 309.105 176.423 311.523 178.72C308.885 180.772 306.93 183.301 305.965 182.837" fill="#E7D962"/>
<path d="M432.021 253.751C418.18 263.523 416.14 262.583 413.551 248.693C415.994 249.561 418.29 250.514 420.648 251.137C423.299 251.882 425.999 252.358 432.021 253.714" fill="#E7D962"/>
<path d="M446.265 255.852C443.565 254.239 441.562 250.965 438.312 247.178C441.684 244.735 444.835 241.669 445.312 242.194C447.889 245.016 449.795 248.73 451.933 252.126C449.991 253.482 447.376 256.511 446.265 255.852Z" fill="#E7D962"/>
<path d="M434.708 232.727L431.911 231.115C433.279 226.75 434.643 222.38 436.003 218.007L439.973 220.34C438.231 224.469 436.476 228.598 434.708 232.727Z" fill="#E7D962"/>
<path d="M444.971 82.1652C435.32 70.0225 433.476 69.0333 445.85 48.1684C448.684 59.6758 457.443 70.2546 444.971 82.1652Z" fill="#E7D962"/>
<path d="M320.807 585.109C321.907 584.315 323.031 582.849 324.106 582.885C325.327 582.885 327.648 584.351 327.636 585.121C327.563 589.213 328.027 594.454 326.158 597.08C324.289 599.707 319.793 600.244 315.347 602.15C314.699 591.876 326.268 594.014 320.807 585.048" fill="#E7D962"/>
<path d="M405.219 666.296L410.045 655.9C410.436 668.031 408.982 670.181 405.219 666.296Z" fill="#E7D962"/>
<path d="M387.995 654.312L391.036 654.691C390.633 657.745 390.242 660.799 389.815 663.841L387.885 663.56C387.885 660.469 387.946 657.39 387.97 654.312" fill="#E7D962"/>
<path d="M446.974 678.011C443.895 685.34 442.27 689.164 439.644 695.284L427.184 680.063L446.913 678.011" fill="#E7D962"/>
<path d="M331.447 647.398C331.545 657.012 333.231 665.416 339.302 670.974C341.477 668.201 346.412 665.697 356.185 660.75C358.31 667.811 360.179 673.98 362.476 681.578L349.674 682.433C350.145 684.885 351.132 687.208 352.569 689.25L348.77 690.3C346.4 687.857 343.969 685.414 341.562 682.971L339.058 683.129C338.789 681.908 338.557 680.747 338.362 679.709C335.308 676.606 332.376 673.332 329.468 670.046C331.912 682.262 331.374 682.775 324.802 686.599C325.865 681.126 326.94 675.605 328.283 668.739C327.563 667.908 326.781 667.176 326.085 666.296C321.198 660.322 323.055 654.08 331.447 647.361" fill="#E7D962"/>
<path d="M358.786 756.535C361.229 750.256 363.208 745.296 365.15 740.386C363.538 745.492 368.534 753.823 358.786 756.535Z" fill="#E7D962"/>
<path d="M371.417 752.919L365.236 740.349C369.108 742.792 376.059 742.67 371.417 752.919Z" fill="#E7D962"/>
<path d="M365.15 740.385C365.156 740.319 365.156 740.252 365.15 740.186L365.225 740.348L365.15 740.348L365.15 740.435" fill="#E7D962"/>
<path d="M304.23 554.398C306.673 559.773 309.117 565.135 312.904 573.32L297.023 573.552C298.452 565.416 299.466 559.944 300.37 554.471L304.23 554.398Z" fill="#E7D962"/>
<path d="M343.81 278.659C342.821 275.642 341.892 273.638 341.66 271.525C341.599 270.938 343.627 270.035 344.69 269.277C345.747 271.071 346.592 272.981 347.206 274.97C347.353 275.617 345.484 276.9 343.81 278.635" fill="#E7D962"/>
<path d="M389.668 274.554L392.466 279.636C391.379 280.467 390.279 281.286 388.801 282.348C387.812 280.43 386.358 278.867 386.541 277.657C386.724 276.448 388.52 275.568 389.607 274.554" fill="#E7D962"/>
<path d="M453.851 286.184C452.348 288.859 449.184 292.011 446.986 291.779C444.481 291.51 442.221 287.723 438.801 284.45L460.02 270.316C457.577 276.876 456.221 281.957 453.912 286.196" fill="#E7D962"/>
</g>
</g>
<path d="M115.985 26.3397C116 26.0666 116.014 25.82 116.029 25.5468C115.513 24.5051 115.641 25.0526 115.985 26.3397Z" fill="#F0DCAB"/>
<path d="M113 73.5034C113.012 73.8507 113.024 74.2639 113.034 74.5741C113.022 73.8171 113.012 73.5752 113 73.5034Z" fill="#648C7D"/>
<path d="M222.466 131.312L132.728 148.109" stroke="white" stroke-width="6" stroke-miterlimit="10"/>
<path d="M192.727 84.3664L161.759 188.854" stroke="white" stroke-width="6" stroke-miterlimit="10"/>
<path d="M139.375 99.7701L197.928 163.378" stroke="white" stroke-width="6" stroke-miterlimit="10"/>
<path d="M195.859 86.2854C193.937 86.505 191.993 86.1497 190.272 85.2643C188.552 84.3789 187.132 83.0032 186.194 81.3112C185.255 79.6192 184.84 77.6869 184.999 75.7586C185.159 73.8303 185.887 71.9927 187.091 70.4781C188.295 68.9634 189.921 67.8398 191.763 67.2493C193.606 66.6589 195.582 66.628 197.442 67.1607C199.302 67.6935 200.963 68.7658 202.213 70.2421C203.464 71.7185 204.249 73.5325 204.469 75.4549C204.614 76.7313 204.507 78.024 204.154 79.2591C203.8 80.4942 203.207 81.6475 202.407 82.6533C201.608 83.659 200.618 84.4974 199.494 85.1206C198.371 85.7438 197.136 86.1396 195.859 86.2854Z" fill="#75BEBE"/>
<path d="M225.714 140.632C223.792 140.852 221.847 140.497 220.127 139.612C218.406 138.727 216.987 137.351 216.048 135.659C215.109 133.967 214.693 132.035 214.853 130.107C215.012 128.179 215.74 126.341 216.944 124.826C218.148 123.311 219.773 122.188 221.616 121.597C223.458 121.006 225.435 120.975 227.295 121.508C229.155 122.04 230.816 123.112 232.066 124.588C233.317 126.065 234.102 127.878 234.322 129.801C234.617 132.379 233.875 134.968 232.261 136.999C230.647 139.031 228.292 140.337 225.714 140.632Z" fill="#648C7D"/>
<path d="M141.495 109.048C139.572 109.268 137.628 108.913 135.907 108.028C134.186 107.142 132.767 105.767 131.828 104.074C130.889 102.382 130.473 100.45 130.632 98.5211C130.792 96.5925 131.52 94.7545 132.724 93.2396C133.928 91.7247 135.554 90.6009 137.397 90.0103C139.24 89.4196 141.216 89.3887 143.077 89.9215C144.937 90.4542 146.598 91.5267 147.849 93.0032C149.1 94.4797 149.884 96.2941 150.104 98.2167C150.25 99.4932 150.143 100.786 149.79 102.021C149.436 103.256 148.843 104.41 148.043 105.416C147.244 106.422 146.254 107.26 145.13 107.883C144.007 108.507 142.771 108.903 141.495 109.048Z" fill="#EA5837"/>
<path d="M134.032 157.792C132.11 158.012 130.166 157.656 128.445 156.771C126.725 155.886 125.306 154.51 124.367 152.818C123.429 151.126 123.013 149.194 123.172 147.266C123.332 145.337 124.06 143.5 125.264 141.985C126.468 140.47 128.094 139.347 129.936 138.756C131.778 138.166 133.755 138.135 135.615 138.667C137.475 139.2 139.135 140.272 140.386 141.748C141.637 143.224 142.422 145.038 142.642 146.96C142.936 149.538 142.195 152.128 140.58 154.159C138.966 156.19 136.61 157.497 134.032 157.792Z" fill="#F0DCAB"/>
<path d="M162.87 198.573C160.948 198.793 159.003 198.438 157.283 197.553C155.562 196.668 154.143 195.292 153.204 193.6C152.265 191.908 151.849 189.976 152.009 188.048C152.168 186.119 152.896 184.281 154.1 182.767C155.304 181.252 156.93 180.128 158.772 179.538C160.615 178.947 162.591 178.916 164.451 179.449C166.312 179.981 167.972 181.054 169.223 182.53C170.473 184.006 171.258 185.821 171.478 187.743C171.772 190.321 171.031 192.91 169.417 194.941C167.802 196.972 165.447 198.278 162.87 198.573Z" fill="#BD1622"/>
<path d="M199.724 173.844C197.801 174.064 195.857 173.709 194.136 172.823C192.415 171.938 190.996 170.562 190.057 168.87C189.118 167.178 188.702 165.245 188.861 163.317C189.021 161.388 189.749 159.55 190.953 158.035C192.157 156.52 193.783 155.396 195.626 154.806C197.469 154.215 199.445 154.184 201.306 154.717C203.166 155.25 204.827 156.322 206.078 157.799C207.329 159.275 208.113 161.09 208.333 163.012C208.479 164.289 208.372 165.582 208.019 166.817C207.665 168.052 207.072 169.206 206.272 170.211C205.473 171.217 204.483 172.056 203.359 172.679C202.236 173.302 201 173.698 199.724 173.844Z" fill="#D98219"/>
</svg>
