<svg width="247" height="310" viewBox="0 0 247 310" fill="none" xmlns="http://www.w3.org/2000/svg">
<path fill-rule="evenodd" clip-rule="evenodd" d="M166.791 309.308C164.362 309.139 161.97 308.973 160.584 309.714L160.585 309.709C156.901 309.791 152.703 309.54 148.831 309.308C145.314 309.097 142.064 308.903 139.712 308.989L139.76 308.974C140.131 308.857 140.791 308.65 140.337 308.57C136.916 310.075 127.194 309.05 124.677 308.25C124.173 308.408 123.49 308.571 122.757 308.747C121.921 308.947 121.021 309.162 120.253 309.402L121.693 308.953C106.859 308.604 92.1351 308.452 77.8918 309.262C76.8617 309.222 77.2509 309.176 77.9284 309.098C78.9364 308.981 80.5827 308.79 79.1407 308.43C77.1909 309.035 75.6766 309.019 74.0068 309.001C72.8952 308.989 71.7146 308.977 70.2907 309.147C71.315 308.603 70.487 308.57 69.485 308.53C68.5394 308.492 67.4387 308.448 67.5938 307.963L62.4906 308.642L61.6436 307.786L58.665 308.488C58.1014 308.462 58.0412 308.326 57.9763 308.179C57.8928 307.99 57.8014 307.783 56.6197 307.77C55.3239 308.464 54.0369 308.48 52.1868 308.504L51.9349 308.508C53.1326 308.33 54.1915 308.038 55.2014 307.76C57.4914 307.13 59.5293 306.568 62.3607 307.559C63.4901 307.214 62.9719 307.118 62.0333 306.943C61.4592 306.836 60.7279 306.7 60.12 306.46C61.8029 306.258 62.861 306.302 64.063 306.352C65.3941 306.408 66.9015 306.471 69.629 306.215L67.7551 307.464C71.4067 307.232 71.1369 307.316 70.4149 307.54C69.6931 307.763 68.5194 308.127 70.3589 308.456L77.2625 307.219L77.822 307.493C80.7553 307.485 86.7614 306.972 88.3771 306.025L87.8501 306.636C88.8335 306.601 89.3262 306.476 89.8158 306.351C90.1437 306.268 90.4701 306.185 90.9415 306.129L90.7882 306.624L95.8765 305.949L95.5177 306.06L101.823 306.128L100.759 306.461C103.567 306.404 105.804 306.064 107.895 305.747C108.242 305.694 108.585 305.642 108.926 305.592L3.87557 305.592C3.80423 306.647 3.7345 307.364 3.66582 307.824L7.57815 307.682L3.41776 308.524L2.63677 307.865L3.20214 307.845C3.12242 307.483 3.03882 307.005 2.94912 306.491C2.89805 306.199 2.84499 305.896 2.78956 305.596C2.02349 309.898 0.0878316 286.813 0.0878316 286.813C0.138557 286.954 0.185296 287.165 0.22994 287.366C0.335697 287.843 0.429706 288.267 0.537141 287.581C0.506934 286.598 0.476378 285.622 0.446003 284.651C0.124659 274.383 -0.176521 264.759 0.169298 255.317C0.494703 252.941 0.566606 255.11 0.638458 257.278C0.713308 259.536 0.788102 261.792 1.14936 258.907C0.822129 255.55 0.724507 252.422 0.622745 249.161C0.529979 246.188 0.433773 243.105 0.157055 239.639C0.355625 236.082 0.559497 229.711 0.399789 225.007C0.443974 226.289 0.486054 227.345 0.609561 226.23C0.704607 223.533 0.548717 221.963 0.374047 220.204C0.238581 218.84 0.0918191 217.362 0.0420572 215.156L0.847512 213.119C0.821174 208.533 0.686762 204.302 0.562349 200.385C0.425239 196.068 0.300273 192.134 0.345488 188.53L0.455703 188.349L0.456391 188.294C0.542405 181.427 0.627875 174.603 0.110735 168.003C0.190382 166.595 0.278784 165.989 0.366793 165.387C0.484671 164.58 0.601844 163.778 0.696331 161.056C0.173593 160.804 0.24196 157.753 0.323493 154.114C0.406699 150.4 0.503619 146.074 0 143.487L0.674497 134.952C0.347786 133.392 0.254129 128.528 0.172613 124.295C0.13764 122.478 0.104902 120.778 0.0569536 119.505C0.307163 122.1 0.503087 115.043 0.498828 109.827C0.444697 110.796 0.438236 109.303 0.427413 106.801C0.410456 102.88 0.382789 96.4838 0.144268 93.2045L0.423758 93.5113C0.452291 91.2267 0.401472 88.41 0.350629 85.5919C0.248746 79.9449 0.146768 74.2926 0.683024 72.9068C0.788963 67.5271 0.475935 64.2783 0.162907 61.0654L0.512139 53.0353L0.53023 54.4936C0.968798 54.6353 0.898615 51.9988 0.816261 48.9051C0.753165 46.5349 0.682924 43.8962 0.828878 42.0331L0.583987 44.6909C0.556607 43.7643 0.466061 42.7493 0.375911 41.7387C0.303048 40.9219 0.230443 40.108 0.191657 39.346L0.597296 40.9454C0.572179 38.7267 0.399271 37.2055 0.234865 35.7591C0.179738 35.2741 0.125567 34.7976 0.0782444 34.3059C0.422149 35.243 0.524915 29.8482 0.537691 26.0961C0.463693 29.2009 0.366806 25.6257 0.366806 25.6257C0.238672 25.2702 0.331469 23.1908 0.465309 20.1918C0.490505 19.6272 0.517155 19.0301 0.54406 18.4057C0.628705 16.4346 0.714972 14.1926 0.768208 11.849C0.819847 10.2128 0.836335 5.30822 0.779905 1.35668C1.8606 1.30776 2.92479 1.22685 3.99484 1.10736C4.13683 1.0809 4.27849 1.05463 4.41769 1.02882C4.58536 0.997736 4.74946 0.967311 4.90624 0.938008C5.0497 0.902848 5.18695 0.873148 5.31551 0.845328L5.32199 0.843924C5.39546 0.814758 5.46362 0.782769 5.52431 0.74984C5.76866 0.618122 5.89802 0.461941 5.8006 0.273773C8.07828 0.883089 11.1971 0.615296 13.7815 0.393398C15.6066 0.236689 17.1651 0.10287 17.9725 0.317053C16.2306 0.526293 16.066 0.730972 15.8582 0.989496C15.7829 1.08319 15.7019 1.18396 15.538 1.29459C16.0042 1.30483 16.4236 1.31676 16.8071 1.32766C19.2054 1.39584 20.1931 1.42392 22.3751 0.749842C24.2947 0.897883 23.8639 1.15984 23.3519 1.47115C22.9333 1.72569 22.4605 2.01322 23.1736 2.29847C26.1 2.35109 25.8409 1.98729 25.5957 1.64287C25.3805 1.34067 25.1759 1.05339 27.1429 1.07537C34.3782 1.52097 42.004 1.22864 49.26 0.950479C57.1713 0.647203 64.643 0.360775 70.69 1.06597C70.2755 1.19527 70.4281 1.36492 70.5886 1.54339C70.7108 1.6792 70.8375 1.82011 70.7225 1.95224C72.2249 2.06595 73.4554 1.80775 74.5859 1.57052C76.0839 1.25617 77.4065 0.978647 78.9538 1.65211C78.7777 1.70591 78.5533 1.76151 78.322 1.81878C77.5948 1.99892 76.8006 2.19563 77.2348 2.40479C78.1724 1.77934 80.8868 1.55738 83.6003 1.33548C86.3115 1.11377 89.0219 0.89213 89.9583 0.268137L90.25 0.845814C95.4448 0.364103 102.275 -0.180644 104.327 0.531574C103.74 0.555059 103.801 0.602951 103.923 0.698798C103.972 0.737342 104.03 0.783643 104.061 0.83923C106.227 0.167086 108.293 0.174564 110.717 0.183337C112.337 0.189201 114.117 0.195643 116.193 0C117.121 0.978794 120.035 0.87233 122.883 0.768274C125.584 0.669586 128.226 0.573065 129.057 1.40656C135.218 1.52989 139.392 1.07656 143.169 0.6662C146.914 0.259468 150.27 -0.105058 154.787 0.175941C152.528 0.650125 156.214 1.30777 158.114 0.941787L157.457 0.471366C158.869 0.451087 160.569 0.5325 162.437 0.621941C166.635 0.822975 171.681 1.06457 176.203 0.283199C176.85 0.397511 176.9 0.598525 176.949 0.793784C177.005 1.01636 177.059 1.23147 177.993 1.30213L179.587 0.36129C180.588 0.708325 181.502 0.871707 182.392 1.03065L182.458 1.04246C185.903 0.425268 188.649 0.0329364 192.839 0.0743339C192.985 0.178383 193.096 0.293616 193.207 0.40894C193.596 0.813969 193.987 1.22013 195.915 1.14689C199.717 0.416801 209.781 0.442204 217.027 0.676475L215.933 1.00859C217.382 1.3987 219.732 1.26001 222.195 1.11469C223.029 1.06549 223.875 1.01553 224.704 0.985073C224.261 1.11928 224.33 1.3417 224.399 1.56442C224.445 1.71329 224.491 1.8623 224.385 1.98519C226.042 1.47138 228.217 1.32422 230.224 1.18833C232.15 1.05797 233.923 0.937988 234.94 0.514653L238.787 0.669892L240.71 0.747982L241.711 0.786557L243.448 0.825131C243.358 0.696235 243.263 0.568282 243.163 0.439386C244.308 0.47263 245.459 0.506813 246.616 0.541938L246.546 11.5441L246.525 18.4179L246.546 32.0602C246.561 41.0678 246.542 49.8421 246.27 58.0378C245.97 63.4141 246.147 70.089 246.33 77.0274C246.511 83.8786 246.699 90.9866 246.442 97.3546C246.382 98.4201 246.301 97.5462 246.208 96.5596C246.089 95.2812 245.951 93.8135 245.822 96.1315C246.346 99.6433 246.306 105.317 246.262 111.462C246.22 117.452 246.174 123.889 246.645 129.21L246.325 125.942L246.13 132.968C246.211 133.348 246.276 133.403 246.333 133.452C246.443 133.545 246.528 133.618 246.662 135.841C246.619 139.189 246.535 141.181 246.461 142.946C246.382 144.81 246.314 146.42 246.317 149.107C246.258 149.046 246.194 148.866 246.131 148.69C245.89 148.02 245.669 147.402 245.87 153.587L246.675 151.539C246.521 155.056 246.628 159.009 246.732 162.886C246.865 167.855 246.996 172.7 246.571 176.342C246.566 175.911 246.567 175.537 246.567 175.226C246.567 174.478 246.568 174.106 246.492 174.231C246.18 174.73 246.22 177.149 246.265 179.901C246.299 181.918 246.335 184.113 246.238 185.863L246.611 184.485C246.681 188.01 246.527 188.844 246.371 189.69C246.239 190.412 246.104 191.142 246.106 193.557L246.604 193.499C246.387 193.84 246.251 196.244 246.159 197.867L246.156 197.909L246.599 207.664L246.474 206.397C246.509 207.694 246.447 208.854 246.384 210.046C246.273 212.134 246.157 214.317 246.545 217.492C246.558 217.274 246.569 216.96 246.58 216.65C246.611 215.765 246.641 214.917 246.7 216.462C246.532 218.699 246.548 220.349 246.559 221.532C246.573 223.058 246.58 223.81 246.178 224.05C247.113 231.204 247.029 248.337 246.963 261.729C246.961 262.208 246.958 262.683 246.956 263.153L246.614 262.19C246.591 257.295 246.31 257.667 246.02 258.049C245.828 258.302 245.633 258.56 245.508 257.284C245.702 265.482 245.856 266.756 246.054 268.39C246.185 269.478 246.336 270.726 246.531 274.287C246.329 278.862 246.28 284.064 246.3 289.434C246.309 292.119 246.336 294.847 246.37 297.559L246.397 299.591L246.425 302.238L246.481 309.488C245.127 309.519 243.795 309.552 242.493 309.584C241.873 309.599 241.26 309.614 240.655 309.628C239.481 309.663 238.356 309.681 237.298 309.672C235.183 309.652 233.338 309.521 231.917 309.189C234.64 308.79 233.073 308.161 230.861 307.943C229.554 308.238 229.756 308.451 229.981 308.688C230.208 308.927 230.457 309.19 229.186 309.584C225.163 309.064 219.956 309.335 215.012 309.593C211.153 309.794 207.454 309.986 204.605 309.787C204.913 309.689 205.245 309.596 205.573 309.503C206.76 309.169 207.893 308.849 207.648 308.394C206.795 308.518 205.954 308.749 205.087 308.987C203.192 309.506 201.174 310.06 198.64 309.608C198.827 309.551 198.895 309.473 198.963 309.395C199.017 309.334 199.071 309.272 199.185 309.221C196.669 310.176 193.719 309.815 190.418 309.411C186.433 308.923 181.936 308.373 177.073 310L176.459 308.839L179.247 309.33C178.002 308.643 177.931 308.413 177.848 308.139C177.774 307.896 177.689 307.618 176.761 306.954C176.443 307.125 175.621 307.335 174.735 307.562C172.881 308.036 170.745 308.581 172.364 308.988L173.819 308.541C172.398 309.697 169.57 309.501 166.791 309.308ZM151.009 307.295C151.043 307.188 151.073 307.081 151.103 306.976C151.24 306.487 151.37 306.027 151.861 305.592H184.016C182.837 305.64 181.702 305.709 180.568 305.779C176.711 306.016 172.856 306.252 167.3 305.618C164.691 305.995 161.727 306.228 158.928 306.447C155.861 306.688 152.992 306.913 151.009 307.295ZM198.41 305.868C200.545 306.012 201.601 305.857 202.281 305.592H198.499L198.41 305.868ZM147.641 305.592C146.6 305.807 145.613 305.886 144.54 305.592H147.641ZM194.782 307.283C195.771 307.081 196.71 306.891 198.744 307.335L198.743 307.334C200.959 306.783 199.966 306.664 198.45 306.482C197.424 306.359 196.158 306.208 195.484 305.874L196.399 305.592H189.5C190.729 305.648 192.038 305.744 193.461 305.898L193.325 305.962C192.452 306.376 190.989 307.068 189.854 307.164C192.557 307.735 193.7 307.503 194.782 307.283ZM205.918 305.591C206.028 305.632 206.138 305.661 206.25 305.679H206.254C210.548 306.145 213.761 305.953 216.742 305.591H205.918ZM244.298 240.375V242.968C244.376 242.893 244.461 242.701 244.564 242.371C244.475 241.628 244.386 240.977 244.298 240.375ZM244.574 179.661C244.562 178.886 244.55 178.134 244.542 177.42H244.541C244.511 176.802 244.43 176.195 244.3 175.62V183.843C244.382 184.074 244.479 185.023 244.595 187.037C244.653 184.697 244.612 182.071 244.574 179.661ZM244.298 112.382V115.68C244.424 116.503 244.547 116.67 244.657 115.21C244.506 114.28 244.387 113.336 244.298 112.382ZM117.723 305.593H115.084H115.082C114.902 305.672 114.692 305.751 114.484 305.83C113.699 306.126 112.935 306.414 113.828 306.677L115.266 306.231C115.5 306.271 115.644 306.341 115.787 306.41C115.927 306.478 116.068 306.546 116.295 306.586C118.538 306.565 118.175 306.141 117.876 305.793C117.815 305.722 117.756 305.654 117.723 305.593ZM121.329 306.02C123.196 306.635 125.479 307.387 129.474 306.993H129.476C126.236 307.7 127.258 307.775 128.376 307.857C128.948 307.899 129.545 307.943 129.609 308.074C130.23 307.012 133.812 306.692 137.257 306.384C139.507 306.183 141.7 305.987 142.972 305.593H119.945C120.394 305.712 120.847 305.861 121.329 306.02ZM159.585 298.357C157.392 298.2 155.232 298.046 153.981 298.734L153.982 298.73C150.655 298.805 146.866 298.572 143.37 298.357C140.194 298.161 137.26 297.981 135.137 298.06L135.18 298.046C135.515 297.938 136.111 297.746 135.701 297.671C132.612 299.07 123.835 298.117 121.562 297.374C121.108 297.521 120.491 297.673 119.829 297.836C119.074 298.022 118.261 298.222 117.568 298.444L118.869 298.027C105.476 297.703 92.1827 297.562 79.3233 298.315C78.3934 298.277 78.7448 298.235 79.3564 298.162C80.2665 298.053 81.7528 297.876 80.4509 297.541C78.6905 298.103 77.3234 298.088 75.8159 298.072C74.8122 298.061 73.7464 298.05 72.4609 298.207C73.3856 297.702 72.6381 297.671 71.7334 297.634C70.8797 297.599 69.8859 297.558 70.026 297.108L65.4186 297.739L64.6539 296.943L61.9648 297.595C61.4559 297.571 61.4016 297.445 61.343 297.308C61.2676 297.132 61.1851 296.94 60.1182 296.928C58.9482 297.573 57.7862 297.588 56.1157 297.611C56.041 297.612 55.9654 297.613 55.8886 297.614C56.9699 297.448 57.9259 297.177 58.8377 296.919C60.9052 296.333 62.7451 295.812 65.3013 296.733C66.321 296.412 65.8532 296.322 65.0058 296.16C64.4875 296.061 63.8272 295.934 63.2784 295.711C64.7978 295.523 65.7531 295.564 66.8383 295.611C68.04 295.663 69.4009 295.721 71.8634 295.484L70.1716 296.643C73.4685 296.429 73.2248 296.507 72.5729 296.714C71.9213 296.922 70.8616 297.26 72.5224 297.566L78.7552 296.416L79.2604 296.671C81.9087 296.664 87.3312 296.187 88.7899 295.307L88.3141 295.875C89.2019 295.842 89.6468 295.726 90.0888 295.61C90.3848 295.533 90.6795 295.456 91.1051 295.404L90.9667 295.864L95.5606 295.236L95.2366 295.339L100.93 295.402L99.9685 295.712C102.504 295.659 104.523 295.344 106.411 295.049C106.725 295 107.034 294.951 107.342 294.905H12.499C12.4346 295.885 12.3716 296.551 12.3096 296.978L15.8418 296.846L12.0857 297.629L11.3806 297.017L11.891 296.997C11.819 296.662 11.7436 296.217 11.6626 295.741C11.6165 295.469 11.5686 295.187 11.5185 294.908C10.8269 298.906 9.0793 277.458 9.0793 277.458C9.12509 277.589 9.16729 277.785 9.2076 277.972C9.30308 278.416 9.38795 278.81 9.48495 278.172C9.45768 277.259 9.43009 276.352 9.40267 275.45C9.11255 265.911 8.84063 256.97 9.15285 248.198C9.44664 245.99 9.51155 248.005 9.57642 250.019C9.644 252.117 9.71153 254.213 10.0377 251.533C9.74225 248.415 9.65411 245.508 9.56224 242.479C9.47848 239.717 9.39163 236.853 9.14179 233.632C9.32107 230.328 9.50513 224.409 9.36094 220.039C9.40084 221.229 9.43883 222.211 9.55033 221.175C9.63614 218.669 9.4954 217.21 9.3377 215.576C9.2154 214.309 9.0829 212.936 9.03797 210.886L9.76516 208.994C9.74138 204.734 9.62003 200.803 9.50771 197.164C9.38392 193.154 9.2711 189.499 9.31192 186.15L9.41142 185.982L9.41204 185.931C9.4897 179.551 9.56687 173.212 9.09997 167.081C9.17188 165.772 9.2517 165.21 9.33115 164.65C9.43758 163.9 9.54337 163.155 9.62867 160.626C9.15673 160.392 9.21845 157.557 9.29206 154.176C9.36718 150.726 9.45468 146.708 9 144.304L9.60896 136.374C9.31399 134.925 9.22944 130.407 9.15584 126.474C9.12427 124.786 9.09471 123.207 9.05142 122.024C9.27732 124.435 9.4542 117.879 9.45036 113.033C9.40149 113.933 9.39565 112.546 9.38588 110.221C9.37057 106.579 9.34559 100.637 9.13025 97.59L9.38258 97.875C9.40834 95.7525 9.36246 93.1357 9.31656 90.5177C9.22458 85.2714 9.13251 80.0202 9.61666 78.7328C9.7123 73.7348 9.42969 70.7166 9.14708 67.7317L9.46238 60.2715L9.47871 61.6263C9.87466 61.7579 9.8113 59.3086 9.73695 56.4345C9.67998 54.2324 9.61657 51.781 9.74834 50.0501L9.52724 52.5193C9.50252 51.6584 9.42078 50.7155 9.33939 49.7766C9.2736 49.0178 9.20805 48.2617 9.17303 47.5537L9.53926 49.0396C9.51658 46.9783 9.36048 45.5651 9.21204 44.2214C9.16227 43.7708 9.11337 43.3281 9.07064 42.8713C9.38113 43.7419 9.47391 38.7299 9.48545 35.2441C9.41864 38.1286 9.33116 34.8071 9.33116 34.8071C9.21548 34.4768 9.29926 32.545 9.4201 29.7588C9.44285 29.2343 9.46691 28.6796 9.4912 28.0995C9.56762 26.2683 9.6455 24.1854 9.69356 22.0081C9.74019 20.488 9.75507 15.9315 9.70413 12.2604C10.6798 12.2149 11.6406 12.1398 12.6067 12.0288C12.7349 12.0042 12.8628 11.9798 12.9885 11.9558C13.1399 11.9269 13.288 11.8987 13.4295 11.8714C13.559 11.8388 13.6829 11.8112 13.799 11.7853L13.8049 11.784C13.8712 11.7569 13.9327 11.7272 13.9875 11.6966C14.2081 11.5743 14.3249 11.4292 14.237 11.2543C16.2933 11.8204 19.1092 11.5716 21.4424 11.3655C23.0902 11.2199 24.4973 11.0956 25.2262 11.2946C23.6535 11.4889 23.5049 11.6791 23.3173 11.9193C23.2493 12.0063 23.1762 12.0999 23.0282 12.2027C23.4491 12.2122 23.8278 12.2233 24.174 12.2334C26.3393 12.2968 27.231 12.3229 29.201 11.6966C30.9341 11.8342 30.5451 12.0775 30.0829 12.3667C29.705 12.6032 29.2781 12.8703 29.9219 13.1354C32.564 13.1842 32.3301 12.8463 32.1086 12.5263C31.9144 12.2455 31.7297 11.9786 33.5056 11.9991C40.0378 12.413 46.9226 12.1414 53.4737 11.883C60.6162 11.6013 67.3619 11.3352 72.8213 11.9903C72.4471 12.1104 72.5849 12.2681 72.7298 12.4339C72.8401 12.56 72.9545 12.6909 72.8507 12.8137C74.2071 12.9193 75.318 12.6795 76.3387 12.4591C77.6912 12.167 78.8852 11.9092 80.2822 12.5349C80.1232 12.5848 79.9206 12.6365 79.7118 12.6897C79.0552 12.8571 78.3382 13.0398 78.7302 13.2341C79.5767 12.6531 82.0273 12.4469 84.4772 12.2407C86.925 12.0347 89.372 11.8288 90.2174 11.2491L90.4808 11.7858C95.1708 11.3383 101.337 10.8322 103.19 11.4938C102.66 11.5157 102.715 11.5602 102.825 11.6492C102.869 11.685 102.922 11.728 102.95 11.7797C104.905 11.1552 106.771 11.1622 108.959 11.1703C110.422 11.1758 112.028 11.1818 113.903 11C114.74 11.9093 117.371 11.8104 119.943 11.7138C122.381 11.6221 124.766 11.5324 125.517 12.3067C131.08 12.4213 134.847 12.0002 138.258 11.6189C141.639 11.2411 144.668 10.9024 148.747 11.1635C146.708 11.604 150.035 12.215 151.75 11.875L151.157 11.4379C152.432 11.4191 153.967 11.4947 155.653 11.5778C159.444 11.7646 163.999 11.989 168.082 11.2631C168.666 11.3693 168.712 11.556 168.756 11.7375C168.806 11.9442 168.855 12.1441 169.698 12.2097L171.137 11.3356C172.041 11.6581 172.867 11.8098 173.67 11.9575L173.729 11.9685C176.84 11.3951 179.319 11.0306 183.102 11.0691C183.234 11.1657 183.334 11.2728 183.434 11.3799C183.785 11.7562 184.138 12.1335 185.879 12.0655C189.311 11.3872 198.398 11.4108 204.94 11.6285L203.951 11.937C205.26 12.2994 207.382 12.1706 209.605 12.0356C210.358 11.9899 211.122 11.9435 211.87 11.9152C211.471 12.0398 211.533 12.2465 211.595 12.4534C211.637 12.5917 211.678 12.7301 211.582 12.8443C213.079 12.367 215.042 12.2302 216.854 12.104C218.593 11.9829 220.194 11.8714 221.112 11.4781L224.585 11.6224L226.322 11.6949L227.225 11.7307L228.793 11.7666C228.712 11.6468 228.626 11.528 228.535 11.4082C229.569 11.4391 230.609 11.4708 231.654 11.5035L231.59 21.7249L231.571 28.1109L231.59 40.7849C231.604 49.1533 231.586 57.3049 231.341 64.9189C231.07 69.9137 231.23 76.1149 231.395 82.5608C231.559 88.9258 231.728 95.5294 231.496 101.446C231.442 102.435 231.369 101.624 231.285 100.707C231.177 99.5193 231.053 98.1558 230.937 100.309C231.41 103.572 231.374 108.843 231.334 114.552C231.295 120.116 231.254 126.097 231.679 131.04L231.391 128.004L231.214 134.532C231.288 134.885 231.346 134.936 231.398 134.982C231.497 135.068 231.574 135.136 231.695 137.2C231.656 140.311 231.58 142.162 231.513 143.801C231.442 145.534 231.381 147.029 231.383 149.525C231.33 149.468 231.272 149.301 231.215 149.138C230.998 148.515 230.798 147.941 230.98 153.687L231.707 151.784C231.568 155.052 231.664 158.725 231.758 162.326C231.878 166.943 231.996 171.444 231.613 174.827C231.608 174.427 231.609 174.079 231.609 173.791C231.609 173.096 231.61 172.75 231.542 172.866C231.259 173.33 231.296 175.577 231.337 178.134C231.367 180.007 231.4 182.047 231.312 183.673L231.648 182.393C231.712 185.667 231.573 186.442 231.432 187.228C231.313 187.899 231.191 188.577 231.193 190.82L231.642 190.767C231.447 191.083 231.324 193.317 231.241 194.826L231.238 194.864L231.638 203.926L231.525 202.75C231.557 203.954 231.501 205.032 231.444 206.139C231.343 208.079 231.239 210.107 231.589 213.057C231.601 212.854 231.611 212.563 231.621 212.275C231.649 211.453 231.676 210.665 231.729 212.101C231.578 214.179 231.592 215.711 231.602 216.811C231.615 218.228 231.621 218.927 231.258 219.15C232.102 225.796 232.026 241.713 231.967 254.154L231.96 255.477L231.651 254.583C231.631 250.036 231.377 250.381 231.116 250.736C230.942 250.971 230.766 251.211 230.653 250.025C230.828 257.641 230.967 258.825 231.146 260.343C231.264 261.354 231.401 262.513 231.576 265.821C231.394 270.072 231.35 274.904 231.368 279.894C231.376 282.388 231.401 284.922 231.431 287.442L231.455 289.329L231.481 291.789L231.532 298.525C230.309 298.554 229.106 298.584 227.93 298.613C227.371 298.627 226.817 298.641 226.271 298.655C225.211 298.687 224.196 298.704 223.241 298.695C221.331 298.677 219.665 298.555 218.382 298.247C220.841 297.876 219.426 297.291 217.429 297.089C216.249 297.363 216.432 297.561 216.634 297.781C216.839 298.003 217.064 298.247 215.917 298.614C212.284 298.131 207.583 298.383 203.12 298.622C199.636 298.808 196.296 298.987 193.724 298.802C194.002 298.711 194.302 298.624 194.598 298.539C195.67 298.227 196.693 297.931 196.472 297.508C195.702 297.623 194.942 297.838 194.16 298.058C192.449 298.541 190.627 299.055 188.339 298.636C188.508 298.583 188.57 298.51 188.631 298.438C188.68 298.381 188.728 298.324 188.831 298.277C186.559 299.164 183.896 298.828 180.916 298.453C177.318 297.999 173.258 297.488 168.868 299L168.313 297.921L170.831 298.378C169.706 297.739 169.643 297.526 169.567 297.271C169.5 297.045 169.424 296.787 168.586 296.171C168.299 296.329 167.557 296.524 166.757 296.735C165.082 297.175 163.154 297.682 164.616 298.059L165.93 297.644C164.646 298.719 162.094 298.536 159.585 298.357ZM145.337 296.487C145.367 296.387 145.394 296.288 145.421 296.191C145.545 295.736 145.662 295.309 146.105 294.905H175.136C174.072 294.949 173.047 295.014 172.023 295.079C168.541 295.298 165.06 295.518 160.044 294.929C157.689 295.28 155.013 295.496 152.486 295.699C149.716 295.923 147.126 296.132 145.337 296.487ZM188.131 295.161C190.059 295.295 191.012 295.151 191.627 294.905H188.211L188.131 295.161ZM142.295 294.905C141.355 295.104 140.465 295.178 139.495 294.905H142.295ZM184.856 296.476C185.749 296.289 186.596 296.111 188.433 296.524L188.432 296.523C190.433 296.011 189.536 295.9 188.167 295.732C187.241 295.618 186.099 295.477 185.49 295.167L186.316 294.905H180.087C181.196 294.957 182.378 295.046 183.663 295.189C183.624 295.208 183.583 295.228 183.54 295.249C182.752 295.633 181.432 296.276 180.407 296.366C182.847 296.896 183.879 296.68 184.856 296.476ZM194.91 294.904C195.009 294.942 195.109 294.969 195.209 294.985H195.214C199.09 295.419 201.99 295.24 204.682 294.904H194.91ZM229.561 234.316V236.725C229.631 236.655 229.708 236.477 229.801 236.171C229.72 235.48 229.64 234.875 229.561 234.316ZM229.81 177.911C229.799 177.191 229.788 176.492 229.781 175.829H229.78C229.753 175.255 229.68 174.691 229.562 174.156V181.796C229.637 182.011 229.724 182.893 229.829 184.763C229.881 182.589 229.844 180.149 229.81 177.911ZM229.561 115.406V118.471C229.674 119.235 229.785 119.39 229.885 118.034C229.749 117.17 229.641 116.293 229.561 115.406ZM115.285 294.906H112.901H112.9C112.737 294.979 112.548 295.053 112.36 295.126C111.652 295.401 110.961 295.669 111.768 295.913L113.066 295.498C113.278 295.536 113.407 295.6 113.536 295.664C113.663 295.728 113.79 295.791 113.995 295.828C116.02 295.808 115.692 295.415 115.422 295.091C115.367 295.025 115.314 294.962 115.285 294.906ZM118.54 295.302C120.226 295.874 122.287 296.572 125.894 296.206H125.895C122.97 296.863 123.893 296.933 124.902 297.009C125.418 297.048 125.957 297.089 126.016 297.211C126.576 296.224 129.81 295.927 132.921 295.641C134.952 295.454 136.931 295.272 138.08 294.906H117.29C117.695 295.016 118.105 295.155 118.54 295.302Z" fill="#2D9CDB"/>
</svg>
