<svg   viewBox="0 0 1761 440" fill="none" xmlns="http://www.w3.org/2000/svg" preserveAspectRatio="none">
<path d="M1137.89 439.594C1159.33 437.339 1214.12 441.004 1233.33 437.929L1222.83 438.563C1205.58 437.711 1247.45 436.427 1254.54 435.677C1268.77 437.68 1255.51 437.208 1272.47 439.049L1252.36 438.352L1256.79 440C1321.18 435.759 1376.65 441.939 1416.75 438.856C1414.3 439.016 1414.93 439.286 1412.3 439.443C1438.94 440.378 1457.66 438.281 1477.25 437.721C1479.51 438.544 1465.57 439.056 1455.31 439.698C1502.17 440.342 1580.89 438.096 1632.55 439.41C1650.77 438.297 1625.67 437.922 1644.63 437.081C1660.58 437.389 1671.88 438.283 1652.24 438.849C1662.49 439.32 1675.79 439.506 1691.04 439.534C1698.67 439.547 1706.78 439.522 1715.25 439.473C1728.77 439.408 1742.85 439.339 1757.26 439.274L1756.85 428.983L1756.65 425.225L1756.46 422.342C1756.22 418.492 1756.02 414.621 1755.95 410.81C1755.81 403.187 1756.16 395.804 1757.62 389.31C1754.1 376.671 1752.57 384.564 1750.24 365.177C1752.5 369.717 1757.95 360.58 1758.22 372.141L1760.68 373.507C1761.16 354.239 1762.06 328.524 1755.08 318.007C1760.22 317.402 1756.07 314.505 1758.84 307.237C1758.26 304.276 1758.07 307.504 1757.72 308.698C1753.32 301.62 1757.9 298.015 1757.21 292.951L1758.11 294.748L1754.92 280.903C1755.58 278.598 1756.57 275.132 1758.14 274.644L1754.55 274.726C1754.53 267.279 1759.13 271.12 1758.19 261.85L1755.51 263.806C1757.16 257.93 1753.43 248.524 1757.34 247.295C1758.11 247.046 1757.79 248.205 1757.91 250.292C1763.36 241.088 1756.13 226.478 1758.66 215.087L1752.85 217.994C1751.02 206.911 1754.05 211.219 1756.07 211.635C1756.03 204.214 1757.93 202.581 1758.56 192.806C1757.09 187.985 1756.43 190.29 1754.73 188.729L1756.13 178.757L1758.44 183.394C1751.56 168.096 1759.97 146.288 1752.51 136.445C1754.16 130.616 1755.99 141.653 1756.98 138.181C1760.71 119.989 1751.44 97.5422 1755.74 82.3762C1757.7 70.7436 1757.84 58.2898 1757.72 45.5047L1757.57 26.1416L1757.73 16.3852L1758.23 0.769203C1749.89 0.719348 1741.59 0.670829 1733.33 0.623645C1734.06 0.806593 1734.74 0.988205 1735.39 1.17115L1722.87 1.1164L1715.65 1.06165L1701.78 0.950814L1674.04 0.730475C1659.07 1.9577 1621.35 1.38882 1597.93 2.81769C1599.85 2.38235 1594.91 1.71599 1600.23 1.39817C1576.6 1.5691 1550.98 2.17269 1536.99 1.43155L1544.88 0.960158C1492.63 0.627645 1420.07 0.591588 1392.65 1.62785C1374.79 1.76139 1375.23 0.771865 1370.47 0.105506C1340.26 0.0467484 1320.46 0.603606 1295.62 1.47962C1289.05 1.2486 1282.31 1.01758 1274.92 0.512798L1263.42 1.84819C1250.78 1.6599 1260.5 0.749162 1250.51 0.40196C1203.4 2.00443 1148.41 0.575559 1115.35 0.669035L1120.08 1.33673C1106.38 1.8562 1079.81 0.922759 1096.1 0.249723C1030.66 -0.551512 999.025 2.34495 910.572 1.99641C898.25 -0.434001 830.844 2.70683 817.812 0C780.448 0.693066 756.395 -0.400618 730.335 1.19116C729.567 0.916075 726.316 0.801231 732.254 0.754492C717.456 -0.256398 668.207 0.516791 630.75 1.20051L628.646 0.380581C615.138 2.15264 550.42 1.63852 536.904 3.41325C532.777 3.02198 544.036 2.66142 549.299 2.34494C529.722 0.667688 515.135 3.14617 489.946 2.77093C491.866 2.33692 484.449 1.83615 489.712 1.51299C406.119 -0.405966 284.765 2.84837 175.715 1.52634C145.367 1.45957 186.708 3.40256 147.094 3.26234C135.663 2.36229 166.494 1.44621 141.336 1.06429C123.088 2.174 116.424 1.94298 92.0372 1.83748C96.4785 1.24724 92.4787 0.854634 109.591 0.450011C95.5265 -0.284453 49.8471 1.86419 21.8254 0.38858C22.5278 0.655658 21.5951 0.877335 19.8332 1.06429C19.3956 1.11103 18.9041 1.15643 18.3744 1.19783C17.4339 1.23789 16.4284 1.28062 15.3766 1.33137C13.3076 1.40748 11.062 1.48894 8.80487 1.57174C1.08929 1.74133 -6.58412 1.85617 -14.3765 1.92561C-13.9696 7.53425 -14.0885 14.4956 -14.4608 16.8179C-14.8447 20.1443 -15.4667 23.3266 -16.077 26.1242C-17.3016 31.7181 -18.453 35.7724 -17.3551 36.372C-17.3551 36.372 -16.6565 41.4465 -16.123 37.0397C-16.2151 42.3652 -16.9561 50.0223 -19.4358 48.6923C-18.077 51.4712 -15.935 53.911 -15.6932 58.1161L-18.6181 55.846C-17.9924 58.2657 -16.1461 61.054 -15.7891 63.4323L-14.0234 59.6598C-16.4494 65.7559 -10.5916 77.7009 -16.1768 77.3457L-16.3072 75.2759L-18.8254 86.6734C-16.5683 91.2338 -14.3112 95.8449 -15.075 103.481C-20.8713 106.429 -16.3265 122.985 -16.9445 132.726L-18.9597 132.29C-16.1422 139.915 -17.4051 159.415 -16.4032 155.884C-16.3725 163.287 -17.7852 173.303 -19.5893 169.62C-18.4378 175.64 -18.503 188.381 -15.1365 191.544L-20 203.659C-12.8103 210.93 -22.5949 227.872 -14.9791 228.596C-16.1691 235.344 -17.858 233.779 -19.2015 238.456C-15.4628 247.848 -16.0923 257.56 -16.7141 267.334L-17.5089 267.591C-18.1307 277.348 -14.2882 288.81 -13.889 302.491L-19.6967 305.382C-18.8753 312.55 -14.3879 314.302 -15.6047 321.101C-16.4953 322.683 -16.7987 321.184 -17.1173 319.365C-15.9657 326.042 -17.4358 335.084 -18.8676 340.133C-14.6835 350.45 -16.2229 358.374 -11.7125 367.48C-16.8179 375.507 -13.9887 355.499 -18.7793 362.386C-21.5085 377.054 -18.6489 392.031 -16.1269 408.179C-17.2286 409.565 -18.1345 407.762 -19.3667 407.089C-19.3667 407.089 -5.40955 439.856 0.114195 433.749C1.21587 434.922 2.18704 436.135 3.08911 436.941L-0.987528 436.97L4.64385 437.905L34.6425 436.71L6.43251 436.911C6.92769 436.258 7.43052 435.241 7.9449 433.744L765.412 433.744C748.138 434.243 730.135 434.883 706.524 434.976L714.201 434.504L668.733 434.407L671.32 434.25L634.631 435.209L635.736 434.506C627.261 434.703 625.284 435.142 613.445 435.226L617.246 434.358C605.596 435.703 562.289 436.431 541.138 436.441L537.103 436.053L487.324 437.809C460.792 436.874 521.2 435.744 468.55 436.4L482.062 434.628C444.635 435.318 439.069 434.371 413.497 434.975C425.047 435.874 442.777 435.747 429.653 436.536C400.234 434.509 382.696 437.057 354.478 437.882C368.804 437.843 378.496 437.863 388.258 436.835C403.401 436.867 393.713 437.77 403.006 437.854L424.483 436.858L430.59 438.073L467.387 437.109C465.084 438.527 501.189 437.289 486.833 438.789C512.521 438.187 527.227 439.201 550.646 437.771C568.031 438.627 523.162 438.809 541.641 438.953C644.342 437.803 750.51 438.018 857.473 438.514L847.086 439.151C857.473 438.514 871.215 437.996 878.984 437.516C897.137 438.651 967.234 440.107 991.901 437.97C995.321 438.089 989.981 438.404 987.398 438.564C1023.03 438.309 1087.2 439.808 1137.9 439.587L1137.89 439.594ZM1068.86 436.162C1070.24 435.297 1070.7 434.493 1075 433.744H1306.85C1269.48 434.04 1238.17 434.946 1186.32 433.781C1146.89 434.903 1096.16 435.123 1068.84 436.162H1068.86ZM1438.56 433.744C1433.65 434.12 1426.03 434.339 1410.64 434.135L1411.28 433.744H1438.56ZM1044.57 433.744C1037.06 434.048 1029.95 434.16 1022.21 433.744H1044.57ZM1413.05 436.217C1382.34 434.897 1386.27 437.527 1348.95 435.975C1357.58 435.831 1368.83 434.747 1374.96 434.178C1364.69 433.959 1355.25 433.823 1346.4 433.744H1396.14L1389.54 434.144C1401.59 435.317 1439.83 434.904 1413.04 436.216L1413.05 436.217ZM1467.17 433.867C1466.37 433.841 1465.57 433.8 1464.78 433.742H1542.82C1521.33 434.255 1498.16 434.529 1467.2 433.867H1467.17ZM1741.52 344.858V341.177C1742.15 342.032 1742.79 342.956 1743.44 344.011C1742.7 344.478 1742.08 344.751 1741.52 344.858ZM1743.28 251.822C1743.51 255.982 1744.21 261.082 1743.66 265.471C1742.82 262.614 1742.12 261.266 1741.53 260.939V249.266C1742.47 250.084 1743.06 250.945 1743.27 251.822H1743.28ZM1741.52 164.197V159.51C1742.16 160.864 1743.02 162.204 1744.1 163.524C1743.31 165.596 1742.42 165.359 1741.52 164.191V164.197ZM809.813 433.745H828.848C830.249 434.254 838.023 435.118 818.549 435.154C815.244 435.039 814.484 434.764 811.126 434.65L800.761 435.283C792.612 434.812 803.594 434.282 809.805 433.745H809.813ZM913.578 435.732C877.345 436.435 860.644 434.565 844.867 433.745H1010.9C987.682 435.161 921.95 434.775 914.553 437.266C913.171 436.716 878.282 437.248 913.589 435.732" fill="#EDEDED"/>
</svg>
